<?xml version="1.0" encoding="utf-8"?>
<!-- Generator: Adobe Illustrator 22.1.0, SVG Export Plug-In . SVG Version: 6.00 Build 0)  -->
<svg version="1.1" xmlns="http://www.w3.org/2000/svg" xmlns:xlink="http://www.w3.org/1999/xlink" x="0px" y="0px"
	 viewBox="0 0 289.4 289.4" style="enable-background:new 0 0 289.4 289.4;" xml:space="preserve">
<style type="text/css">
	.st0{fill:#FFFFFF;}
</style>
<g id="fond">
</g>
<g id="images">
</g>
<g id="txt">
	<g>
		<g>
			<path class="st0" d="M84.7,84.7C32.1,137.2,2.3,206.4,0,280.3c-0.2,4.9,3.8,9.1,8.7,9.1h0c4.7,0,8.6-3.8,8.7-8.5
				C19.6,211.4,47.7,146.4,97,97c49.4-49.4,114.3-77.4,183.8-79.5c4.7-0.1,8.5-4,8.5-8.7v0c0-5-4.1-8.9-9.1-8.7
				C206.4,2.3,137.2,32.1,84.7,84.7z"/>
		</g>
		<g>
			<path class="st0" d="M279.9,72.6c-4.5,0.2-9,0.5-13.5,1c-4.8,0.5-8.3,4.8-7.8,9.6v0c0.5,4.8,4.8,8.3,9.6,7.8
				c4.2-0.4,8.5-0.8,12.8-0.9c5-0.2,8.8-4.6,8.3-9.7C288.8,75.7,284.6,72.4,279.9,72.6z"/>
			<path class="st0" d="M235.1,79.2C144.6,102.6,76.7,183.1,72.6,279.9c-0.2,4.7,3.2,8.9,7.8,9.4c5.1,0.5,9.4-3.3,9.6-8.3
				c3.7-89.1,66.1-163.3,149.5-184.8c4.5-1.2,7.3-5.6,6.4-10.2l0,0C244.9,81.1,240,78,235.1,79.2z"/>
		</g>
	</g>
</g>
<g id="logo">
</g>
<g id="taille-ecran">
</g>
</svg>
