<?xml version="1.0" encoding="utf-8"?>
<!-- Generator: Adobe Illustrator 22.1.0, SVG Export Plug-In . SVG Version: 6.00 Build 0)  -->
<svg version="1.1" xmlns="http://www.w3.org/2000/svg" xmlns:xlink="http://www.w3.org/1999/xlink" x="0px" y="0px"
	 viewBox="0 0 217.4 217.4" style="enable-background:new 0 0 217.4 217.4;" xml:space="preserve">
<style type="text/css">
	.st0{fill:#786ABF;}
	.st1{fill:#FFFFFF;}
</style>
<g id="fond">
	<rect class="st0" width="217.4" height="217.4"/>
	<g>
		<path class="st1" d="M29.5,45.4h-7.8l11.4-22.5H19.9v-5.7h20.5v5.3L29.5,45.4z"/>
		<path class="st1" d="M55.9,46.1c-5.6,0-10.6-2.8-10.6-8.8c0-3.4,2.3-5.9,5.1-6.7v-0.1c-2.4-0.9-4.3-3-4.3-6.1c0-5.2,4.6-8,9.8-8
			c5.2,0,9.8,2.7,9.8,7.9c0,3.1-1.8,5.3-4.3,6.2v0.1c2.8,0.8,5.1,3.4,5.1,6.7C66.5,43.3,61.5,46.1,55.9,46.1z M55.9,33.3
			c-2.3,0-3.9,1.6-3.9,3.8c0,2.3,1.6,3.7,3.9,3.7s3.9-1.5,3.9-3.7C59.8,35,58.2,33.3,55.9,33.3z M55.9,21.6c-2,0-3.3,1.4-3.3,3.2
			c0,1.8,1.3,3.3,3.3,3.3c2,0,3.4-1.6,3.4-3.3C59.3,23,57.8,21.6,55.9,21.6z"/>
		<path class="st1" d="M81.6,46.1c-6.1,0-11.1-3.9-11.1-10.1c0-3.3,1.3-5.9,3.1-8.7l6.8-10.2h8.1l-6.9,9.6L81.5,27
			c0.5-0.2,1.4-0.3,2-0.3c4.9,0,9.2,3.7,9.2,9.2C92.7,42.3,87.7,46.1,81.6,46.1z M81.7,31.7c-2.6,0-4.5,1.8-4.5,4.5
			c0,2.4,1.8,4.5,4.4,4.5c2.6,0,4.4-1.8,4.4-4.5C86,33.5,84.3,31.7,81.7,31.7z"/>
		<path class="st1" d="M116.5,45.4l-2.2-5.5h-10.9l-2.1,5.5H94l11.8-28.2h6.6l11.7,28.2H116.5z M109,24.7l-3.6,9.7h7.1L109,24.7z"/>
		<path class="st1" d="M137.7,45.4h-11.2V17.2h11.2c4.4,0,9.6,1.6,9.6,7.2c0,3.1-1.9,5.2-4.6,6.1v0.1c3.2,0.6,5.8,2.9,5.8,6.6
			C148.4,43.3,143,45.4,137.7,45.4z M136.4,22.6H133v5.8h3.7c2.5,0,4-1.1,4-3.1C140.7,23.5,139.2,22.6,136.4,22.6z M136.8,33.5H133
			v6.4h3.8c2.1,0,4.8-0.6,4.8-3.3C141.6,34.2,139.7,33.5,136.8,33.5z"/>
		<path class="st1" d="M159.6,23v5.8h10.9v5.6h-10.9v10.9h-6.7V17.2h18.6V23H159.6z"/>
	</g>
</g>
<g id="images">
</g>
<g id="txt">
</g>
<g id="logo">
</g>
<g id="taille-ecran">
</g>
</svg>
