<?xml version="1.0" encoding="utf-8"?>
<!-- Generator: Adobe Illustrator 22.1.0, SVG Export Plug-In . SVG Version: 6.00 Build 0)  -->
<svg version="1.1" xmlns="http://www.w3.org/2000/svg" xmlns:xlink="http://www.w3.org/1999/xlink" x="0px" y="0px"
	 viewBox="0 0 217.4 217.4" style="enable-background:new 0 0 217.4 217.4;" xml:space="preserve">
<style type="text/css">
	.st0{fill:#C7B2DE;}
	.st1{fill:#FFFFFF;}
</style>
<g id="fond">
	<rect class="st0" width="217.4" height="217.4"/>
	<g>
		<path class="st1" d="M34.1,46.1c-8.7,0-15.2-6.1-15.2-14.9c0-9,6.7-14.8,15.3-14.8c3.9,0,8.2,1.4,10.5,4.1l-4.6,4.6
			c-1.3-1.8-3.5-2.6-5.7-2.6c-4.7,0-8.1,3.7-8.1,8.6c0,5.1,3.3,8.6,8,8.6c2.7,0,4.8-1.2,6-2.9l4.7,4.5
			C42.6,44.4,38.9,46.1,34.1,46.1z"/>
		<path class="st1" d="M57.3,45.4h-7.8l11.4-22.5H47.6v-5.7H68v5.3L57.3,45.4z"/>
		<path class="st1" d="M84.9,45.4H73.7V17.2h11.2c4.4,0,9.6,1.6,9.6,7.2c0,3.1-1.9,5.2-4.6,6.1v0.1c3.2,0.6,5.8,2.9,5.8,6.6
			C95.7,43.3,90.3,45.4,84.9,45.4z M83.6,22.6h-3.3v5.8h3.7c2.5,0,4-1.1,4-3.1C87.9,23.5,86.5,22.6,83.6,22.6z M84,33.5h-3.8v6.4
			h3.8c2.2,0,4.8-0.6,4.8-3.3C88.9,34.2,87,33.5,84,33.5z"/>
		<path class="st1" d="M100,45.4v-5.6l11-10c1.4-1.3,2.3-2.6,2.3-4.3c0-2-1.4-3.4-3.5-3.4c-2.2,0-3.7,1.8-4,4.3l-6.4-0.9
			c0.6-5.7,5.3-9.1,10.8-9.1c5.2,0,10.2,2.7,10.2,8.6c0,4-2.3,6.4-4.9,8.7l-6.5,5.8h11.5v5.8H100z"/>
		<path class="st1" d="M136.4,45.4h-10.5V17.2h10.2c8,0,16.1,3.3,16.1,14C152.2,41.1,144.2,45.4,136.4,45.4z M135.9,23h-3.4v16.5
			h3.2c4.9,0,9.4-2,9.4-8.3C145.1,24.9,140.6,23,135.9,23z"/>
		<path class="st1" d="M156.7,45.4V17.2h19V23h-12.4v5.3H175v5.5h-11.7v5.9h13.1v5.8H156.7z"/>
	</g>
</g>
<g id="images">
</g>
<g id="txt">
</g>
<g id="logo">
</g>
<g id="taille-ecran">
</g>
</svg>
