<?xml version="1.0" encoding="utf-8"?>
<!-- Generator: Adobe Illustrator 22.1.0, SVG Export Plug-In . SVG Version: 6.00 Build 0)  -->
<svg version="1.1" id="Calque_1" xmlns="http://www.w3.org/2000/svg" xmlns:xlink="http://www.w3.org/1999/xlink" x="0px" y="0px"
	 viewBox="0 0 964.6 952.6" style="enable-background:new 0 0 964.6 952.6;" xml:space="preserve">
<style type="text/css">
	.st0{fill:none;stroke:#786ABF;stroke-width:5;stroke-linecap:round;stroke-linejoin:round;stroke-miterlimit:10;}
	.st1{fill:none;stroke:#786ABF;stroke-width:5;stroke-miterlimit:10;}
	.st2{fill:#786ABF;}
	.st3{fill:#FFFFFF;}
	.st4{fill:none;stroke:#FFFFFF;stroke-width:5;stroke-linecap:round;stroke-linejoin:round;}
	.st5{fill:none;stroke:#FFFFFF;stroke-width:5;stroke-linecap:round;stroke-linejoin:round;stroke-miterlimit:10;}
</style>
<g id="fond">
</g>
<g id="images">
</g>
<g id="logo">
</g>
<g id="taille-ecran">
</g>
<g>
	<line class="st0" x1="97.2" y1="639.3" x2="265.2" y2="639.3"/>
	<polyline class="st0" points="157.5,830.6 3.8,830.6 3.8,639.3 49.9,639.3 	"/>
	<polyline class="st0" points="193.3,639.3 193.3,0.6 963.3,0.6 963.3,830.6 	"/>
	<polyline class="st1" points="616.4,559.9 616.4,639.3 963.3,639.3 963.3,97.8 616.4,97.8 616.4,483.9 	"/>
	<circle class="st2" cx="475.3" cy="137.3" r="11.5"/>
	<circle class="st2" cx="475.3" cy="264.8" r="11.5"/>
	<circle class="st2" cx="475.3" cy="392.3" r="11.5"/>
	<circle class="st2" cx="475.3" cy="559.8" r="11.5"/>
	<line class="st0" x1="386.2" y1="639.3" x2="616.4" y2="639.3"/>
	<g>
		<path class="st2" d="M879.7,603.4c-2,1.3-2.9,3.5-2.9,5.8c0,3.3,1.6,6.7,5.3,6.7c2.9,0,4.2-1.6,5.8-6.7c1.6-4.9,3.2-9.5,9.4-9.5
			c6.3,0,9.3,5.4,9.3,11.1c0,3.7-1.2,7.6-4.4,9.7l-2.6-3.2c2.3-1.3,3.5-4,3.5-6.7c0-3.2-1.9-6.9-5.5-6.9c-3.9,0-4.6,2.6-6.4,8.3
			c-1.5,4.5-3.4,7.9-8.7,7.9c-6.1,0-9.1-5.2-9.1-10.8c0-3.5,1-6.5,3.7-8.8L879.7,603.4z"/>
		<path class="st2" d="M887.5,594.5c-2.2-2.1-3.2-5.3-3.2-8.3c0-6.2,3-8.8,8.8-8.8h9c1.2,0,2.5-0.1,3.6-0.3v3.4
			c-0.9,0.2-2.2,0.2-3.1,0.2v0.1c2.1,1.4,3.7,3.7,3.7,6.9c0,4.2-2.1,7.8-6.2,7.8c-6.9,0-7.3-8-7.3-13.2v-1.3h-0.6
			c-3,0-4.6,1.9-4.6,5.2c0,2.2,0.8,4.6,2.3,6.2L887.5,594.5z M895.7,584.4c0,4.4,1.2,7.3,4,7.3c2.6,0,3.6-2,3.6-4.6
			c0-4-2.9-6.1-6.3-6.2h-1.3V584.4z"/>
		<path class="st2" d="M872,570.7v-3.5h33.8v3.5H872z"/>
		<path class="st2" d="M872,560v-3.5h33.8v3.5H872z"/>
		<path class="st2" d="M902,530.9c3.2,2.5,4.3,5.4,4.3,9.3c0,6.6-4.9,10.6-11,10.6c-6.5,0-11-4.6-11-10.7c0-5.9,4-9.9,11-9.9h1.1
			V547c3.6-0.3,6.7-3,6.7-6.8c0-3-1.1-5-3.2-6.7L902,530.9z M893.4,533.9c-3.5,0.1-5.9,2.5-5.9,6.3c0,3.8,2.4,6.4,5.9,6.8V533.9z"/>
		<path class="st2" d="M945.7,601.7L945.7,601.7c2.4,1.4,4.2,4.4,4.2,8.1c0,5.9-4.7,10.5-11,10.5c-6.3,0-11-4.4-11-11
			c0-3,1.3-5.6,3.6-7.5v-0.1h-15.9v-3.5h33.8v3.5H945.7z M931.2,609.1c0,4.5,3.4,7.4,7.8,7.4s7.8-2.9,7.8-7.4c0-4.5-3.4-7.4-7.8-7.4
			S931.2,604.6,931.2,609.1z"/>
		<path class="st2" d="M945.6,573c3.2,2.5,4.3,5.4,4.3,9.3c0,6.6-4.9,10.6-11,10.6c-6.5,0-11-4.6-11-10.7c0-5.9,4-9.9,10.9-9.9h1.1
			v16.9c3.6-0.3,6.7-3,6.7-6.8c0-3-1.1-5-3.2-6.7L945.6,573z M937.1,576c-3.5,0.1-5.9,2.5-5.9,6.3c0,3.8,2.4,6.4,5.9,6.8V576z"/>
		<path class="st2" d="M933.7,539.6c-1.8,1.5-2.5,3.2-2.5,5.3c0,4.7,3.5,7.1,7.8,7.1c4.3,0,7.8-2.8,7.8-7.1c0-2.3-0.8-4-2.6-5.3
			l2.5-2.6c2.3,2,3.4,4.9,3.4,7.9c0,6.5-4.6,10.8-11,10.8c-6.3,0-11-4.4-11-10.8c0-3.1,1-5.9,3.3-8L933.7,539.6z"/>
		<path class="st2" d="M928,522.9c0-6.4,4.5-11.2,11-11.2s11,4.7,11,11.2c0,6.4-4.5,11.2-11,11.2S928,529.4,928,522.9z M946.7,522.9
			c0-4.5-3.4-7.4-7.8-7.4s-7.8,2.9-7.8,7.4c0,4.5,3.4,7.4,7.8,7.4S946.7,527.5,946.7,522.9z"/>
		<path class="st2" d="M933.5,506.4c-1.9,0-3.6,0.2-5,0.2v-3.3c1.1,0,2.3-0.1,3.4-0.1v-0.1c-2.1-0.9-4-3.5-4-7c0-5.5,3.5-8,8.5-8
			h12.9v3.5h-12.6c-3.5,0-5.7,1.5-5.7,4.8c0,4.5,3.3,6.5,8,6.5h10.2v3.5H933.5z"/>
		<path class="st2" d="M931.5,479.7v4.6h-2.9v-4.6h-4.7c-5.1,0-8.7-1.8-8.7-7.4c0-0.9,0.2-2,0.5-2.7l3.1,0.5
			c-0.3,0.8-0.4,1.6-0.4,2.4c0,3.6,2.6,3.8,6.3,3.8h3.9v-5.1h2.9v5.1h18v3.5H931.5z"/>
		<path class="st2" d="M917.1,456.8v-4.9l6.4,6.4v3.2L917.1,456.8z M945.6,448.8c3.2,2.5,4.3,5.4,4.3,9.3c0,6.6-4.9,10.6-11,10.6
			c-6.5,0-11-4.6-11-10.7c0-5.9,4-9.9,10.9-9.9h1.1v16.9c3.6-0.3,6.7-3,6.7-6.8c0-3-1.1-5-3.2-6.7L945.6,448.8z M937.1,451.8
			c-3.5,0.1-5.9,2.5-5.9,6.3c0,3.8,2.4,6.4,5.9,6.8V451.8z"/>
		<path class="st2" d="M933.5,442.6c-1.9,0-3.6,0.2-5,0.2v-3.3c1.1,0,2.3-0.1,3.4-0.1v-0.1c-2.1-0.9-4-3.5-4-7c0-0.4,0-0.9,0.2-1.4
			l3.5,0.2c-0.2,0.6-0.3,1.3-0.3,1.9c0,4.2,3,6.1,7.8,6.1h10.2v3.5H933.5z"/>
		<path class="st2" d="M945.6,409c3.2,2.5,4.3,5.4,4.3,9.3c0,6.6-4.9,10.6-11,10.6c-6.5,0-11-4.6-11-10.7c0-5.9,4-9.9,10.9-9.9h1.1
			v16.9c3.6-0.3,6.7-3,6.7-6.8c0-3-1.1-5-3.2-6.7L945.6,409z M937.1,412c-3.5,0.1-5.9,2.5-5.9,6.3c0,3.8,2.4,6.4,5.9,6.8V412z"/>
		<path class="st2" d="M933.5,402.8c-1.9,0-3.6,0.2-5,0.2v-3.3c1.1,0,2.3-0.1,3.4-0.1v-0.1c-2.1-0.9-4-3.5-4-7c0-5.5,3.5-8,8.5-8
			h12.9v3.5h-12.6c-3.5,0-5.7,1.5-5.7,4.8c0,4.5,3.3,6.5,8,6.5h10.2v3.5H933.5z"/>
		<path class="st2" d="M933.7,363.1c-1.8,1.5-2.5,3.2-2.5,5.3c0,4.7,3.5,7.1,7.8,7.1c4.3,0,7.8-2.8,7.8-7.1c0-2.3-0.8-4-2.6-5.3
			l2.5-2.6c2.3,2,3.4,4.9,3.4,7.9c0,6.5-4.6,10.8-11,10.8c-6.3,0-11-4.4-11-10.8c0-3.1,1-5.9,3.3-8L933.7,363.1z"/>
		<path class="st2" d="M945.6,337.7c3.2,2.5,4.3,5.4,4.3,9.3c0,6.6-4.9,10.6-11,10.6c-6.5,0-11-4.6-11-10.7c0-5.9,4-9.9,10.9-9.9
			h1.1v16.9c3.6-0.3,6.7-3,6.7-6.8c0-3-1.1-5-3.2-6.7L945.6,337.7z M937.1,340.7c-3.5,0.1-5.9,2.5-5.9,6.3c0,3.8,2.4,6.4,5.9,6.8
			V340.7z"/>
	</g>
	<g>
		<path class="st2" d="M238.3,593.2c2,3.6,3,7.7,3,11.8c0,9.8-6.7,16.9-16.6,16.9c-10,0-16.6-7.6-16.6-17c0-4.2,1.1-8.2,4.2-11.2
			l2.9,2.8c-2.3,2.1-3.6,5.4-3.6,8.6c0,7.2,5.5,12.7,13.1,12.7c7.6,0,13.1-5.3,13.1-13.1c0-2.5-0.7-5.5-1.8-7.9h-9.7v7.3h-3.5v-11
			H238.3z"/>
		<path class="st2" d="M224.5,586c-1.9,0-3.6,0.2-5,0.2v-3.3c1.1,0,2.3-0.1,3.4-0.1v-0.1c-2.1-0.9-4-3.5-4-7c0-0.4,0-0.9,0.2-1.4
			l3.5,0.2c-0.2,0.6-0.3,1.3-0.3,1.9c0,4.2,3,6.1,7.8,6.1h10.2v3.5H224.5z"/>
		<path class="st2" d="M222.2,570.5c-2.2-2.1-3.2-5.3-3.2-8.3c0-6.2,2.9-8.8,8.8-8.8h9c1.2,0,2.5-0.1,3.6-0.3v3.4
			c-0.9,0.2-2.2,0.2-3.1,0.2v0.1c2.1,1.4,3.7,3.7,3.7,6.9c0,4.2-2.1,7.8-6.2,7.8c-6.9,0-7.3-8-7.3-13.2V557h-0.6
			c-3,0-4.6,1.9-4.6,5.2c0,2.2,0.8,4.6,2.3,6.2L222.2,570.5z M230.4,560.4c0,4.4,1.2,7.3,4,7.3c2.6,0,3.6-2,3.6-4.6
			c0-4-2.9-6.1-6.3-6.2h-1.3V560.4z"/>
		<path class="st2" d="M224.5,547.1c-1.9,0-3.6,0.2-5,0.2v-3.3c1.1,0,2.3-0.1,3.4-0.1v-0.1c-2.1-0.9-4-3.5-4-7c0-5.5,3.5-8,8.5-8
			h12.9v3.5h-12.6c-3.5,0-5.7,1.5-5.7,4.8c0,4.5,3.3,6.5,8,6.5h10.2v3.5H224.5z"/>
		<path class="st2" d="M236.7,504.8L236.7,504.8c2.4,1.4,4.2,4.4,4.2,8.1c0,5.9-4.7,10.5-11,10.5c-6.3,0-11-4.4-11-11
			c0-3,1.3-5.6,3.6-7.5v-0.1h-15.9v-3.5h33.8v3.5H236.7z M222.2,512.3c0,4.5,3.4,7.4,7.8,7.4s7.8-2.9,7.8-7.4c0-4.5-3.4-7.4-7.8-7.4
			S222.2,507.7,222.2,512.3z"/>
		<path class="st2" d="M208.8,471.6v-3.5l31.6-13.5v4.4l-7.8,3.2V478l7.8,3.3v4.2L208.8,471.6z M213.6,469.9L213.6,469.9l15.6,6.7
			v-12.9L213.6,469.9z"/>
		<path class="st2" d="M222.5,439.6v6.2h10.5c2.7,0,4.8,0,4.8-3.1c0-1-0.2-2.1-0.7-3.1l3.2-0.1c0.5,1.2,0.8,2.8,0.8,4.1
			c0,5-2.7,5.8-7,5.8h-11.5v4.6h-2.9v-4.6h-5.9v-3.5h5.9v-6.2H222.5z"/>
		<path class="st2" d="M224.5,435.3c-1.9,0-3.6,0.2-5,0.2v-3.3c1.1,0,2.3-0.1,3.4-0.1V432c-2.1-0.9-4-3.5-4-7c0-0.4,0-0.9,0.2-1.4
			l3.5,0.2c-0.2,0.6-0.3,1.3-0.3,1.9c0,4.2,3,6.1,7.8,6.1h10.2v3.5H224.5z"/>
		<path class="st2" d="M208.8,417.5c0-1.4,1.2-2.5,2.5-2.5c1.5,0,2.5,1.1,2.5,2.5s-1.1,2.5-2.5,2.5
			C209.9,420.1,208.8,418.9,208.8,417.5z M219.5,419.3v-3.5h20.9v3.5H219.5z"/>
		<path class="st2" d="M235.5,390.6c1.9,0,3.6-0.2,5-0.2v3.3c-1.1,0-2.3,0.1-3.4,0.1v0.1c2.1,0.9,4,3.5,4,7c0,5.5-3.5,8-8.5,8h-12.9
			v-3.5h12.6c3.5,0,5.7-1.5,5.7-4.8c0-4.5-3.3-6.5-8-6.5h-10.2v-3.5H235.5z"/>
		<path class="st2" d="M224.5,384c-1.9,0-3.6,0.2-5,0.2v-3.3c1.1,0,2.3-0.1,3.4-0.1v-0.1c-2.1-0.9-4-3.5-4-7c0-4.5,2.5-5.9,4-6.6
			c-2.5-1.5-4-3.4-4-6.6c0-6,3.4-8,8.8-8h12.7v3.5h-12.5c-2.9,0-5.7,1-5.7,5.1c0,3,2.4,5.4,6.2,5.4h12.1v3.5h-11.8
			c-4.6,0-6.4,1.2-6.4,4c0,4.5,3.3,6.5,8,6.5h10.2v3.5H224.5z"/>
	</g>
	<g>
		<path class="st3" d="M304.8,252.6h19v2.7h-16v11.3h14.9v2.7h-14.9v15h-3V252.6z"/>
		<path class="st3" d="M338.5,263c6.3,0,10.9,4.6,10.9,10.9s-4.5,10.9-10.9,10.9c-6.3,0-10.9-4.6-10.9-10.9S332.2,263,338.5,263z
			 M338.5,282.4c5.1,0,8.2-3.8,8.2-8.4c0-4.6-3.1-8.4-8.2-8.4c-5,0-8.2,3.8-8.2,8.4C330.4,278.6,333.5,282.4,338.5,282.4z"/>
		<path class="st3" d="M355.4,269.4c0-1.5-0.2-4.7-0.2-5.8h2.7c0,1.5,0.1,3.2,0.2,3.6c1.3-2.4,3.5-4.2,6.6-4.2c0.5,0,1,0.1,1.6,0.2
			l-0.3,2.6c-0.4-0.1-0.8-0.2-1-0.2c-4.6,0-6.7,3.2-6.7,7.2v11.3h-2.7V269.4z"/>
		<path class="st3" d="M387.7,278.4c0,1.5,0.2,4.7,0.2,5.8h-2.7c0-1.5-0.1-3.2-0.2-3.6H385c-1.1,2.3-3.7,4.2-7.1,4.2
			c-6.4,0-7.9-4.4-7.9-8.9v-12.3h2.7v12.2c0,3.4,0.9,6.6,5.2,6.6c4,0,7.2-2.8,7.2-8.4v-10.3h2.7V278.4z"/>
		<path class="st3" d="M395.1,269.4c0-1.5-0.2-4.7-0.2-5.8h2.7c0,1.5,0.1,3.2,0.2,3.6h0.1c1.1-2.3,3.7-4.2,7.1-4.2
			c2.7,0,5.2,1.3,6.2,4.5c1.3-3.1,4.2-4.5,7-4.5c6.4,0,7.9,4.4,7.9,8.9v12.3h-2.7v-12.2c0-3.4-0.9-6.6-5.2-6.6c-5,0-6.3,4.2-6.3,7.2
			v11.6h-2.7v-12.4c0-3.8-1.4-6.3-4.3-6.3c-4,0-7.2,2.8-7.2,8.4v10.3h-2.7V269.4z"/>
		<path class="st3" d="M304.4,296.2h9.8c16.4,0,17.1,13.5,17.1,15.8s-0.7,15.8-17.1,15.8h-9.8V296.2z M307.3,325.2h6.1
			c8.4,0,14.9-4.1,14.9-13.1s-6.5-13.1-14.9-13.1h-6.1V325.2z"/>
		<path class="st3" d="M337.9,296.2h3v31.6h-3V296.2z"/>
		<path class="st3" d="M375.6,325.8c-3.7,2.1-7.7,2.9-11.8,2.9c-9.7,0-16.4-7-16.4-16.6s6.7-16.6,16.4-16.6c4.7,0,8.5,1.4,11.4,4.4
			L373,302c-1.9-2.3-5.8-3.9-9.3-3.9c-8.3,0-13.4,6.1-13.4,13.9c0,7.9,5.1,13.9,13.4,13.9c3.4,0,6.4-0.4,8.8-1.9v-10.6H365v-2.7
			h10.5V325.8z"/>
		<path class="st3" d="M384.3,296.2h3v31.6h-3V296.2z"/>
		<path class="st3" d="M402.9,298.9h-10.8v-2.7h24.6v2.7h-10.8v29h-3V298.9z"/>
	</g>
	<g>
		<path class="st2" d="M44.1,715.7h3.5l13.5,31.6h-4.4l-3.2-7.8H37.7l-3.3,7.8h-4.2L44.1,715.7z M45.8,720.5L45.8,720.5l-6.7,15.6
			h12.9L45.8,720.5z"/>
		<path class="st2" d="M65.1,741.8c1.4,1.7,2.9,2.8,5.4,2.8c2.2,0,4.6-0.9,4.6-3.2c0-2.2-2.2-2.8-4.5-3.3c-4-0.9-7.4-1.7-7.4-6.1
			c0-4.1,3.9-6.2,7.8-6.2c3,0,5.7,1.1,7.1,3.8l-2.9,1.9c-0.9-1.5-2.4-2.5-4.4-2.5c-1.9,0-4.1,0.9-4.1,2.9c0,1.7,2.5,2.5,5.3,3
			c3.7,0.7,6.8,2.1,6.8,6.3c0,4.7-4.2,6.6-8.4,6.6c-3.5,0-6.1-0.9-8.1-3.9L65.1,741.8z"/>
		<path class="st2" d="M98.6,731.7c-1.5-1.8-3.2-2.5-5.3-2.5c-4.7,0-7.1,3.5-7.1,7.8s2.8,7.8,7.1,7.8c2.3,0,4-0.8,5.3-2.6l2.6,2.5
			c-2,2.3-4.9,3.4-7.9,3.4c-6.5,0-10.8-4.6-10.8-11c0-6.3,4.4-11,10.8-11c3.1,0,5.9,1,8,3.3L98.6,731.7z"/>
		<path class="st2" d="M124,743.5c-2.5,3.2-5.4,4.3-9.3,4.3c-6.6,0-10.6-4.9-10.6-11c0-6.5,4.6-11,10.7-11c5.9,0,9.9,4,9.9,10.9v1.1
			h-16.9c0.3,3.6,3,6.7,6.8,6.7c3,0,5-1.1,6.7-3.2L124,743.5z M121,735c-0.1-3.5-2.5-5.9-6.3-5.9c-3.8,0-6.4,2.4-6.8,5.9H121z"/>
		<path class="st2" d="M130.1,731.4c0-1.9-0.2-3.6-0.2-5h3.3c0,1.1,0.1,2.3,0.1,3.4h0.1c0.9-2.1,3.5-4,7-4c5.5,0,8,3.5,8,8.5v12.9
			h-3.5v-12.6c0-3.5-1.5-5.7-4.8-5.7c-4.5,0-6.5,3.3-6.5,8v10.2h-3.5V731.4z"/>
		<path class="st2" d="M155.4,741.8c1.4,1.7,2.9,2.8,5.4,2.8c2.2,0,4.6-0.9,4.6-3.2c0-2.2-2.2-2.8-4.5-3.3c-4-0.9-7.4-1.7-7.4-6.1
			c0-4.1,3.9-6.2,7.8-6.2c3,0,5.7,1.1,7.1,3.8l-2.9,1.9c-0.9-1.5-2.4-2.5-4.4-2.5c-1.9,0-4.1,0.9-4.1,2.9c0,1.7,2.5,2.5,5.3,3
			c3.7,0.7,6.8,2.1,6.8,6.3c0,4.7-4.2,6.6-8.4,6.6c-3.5,0-6.1-0.9-8.1-3.9L155.4,741.8z"/>
		<path class="st2" d="M192.7,743.5c-2.5,3.2-5.4,4.3-9.3,4.3c-6.6,0-10.6-4.9-10.6-11c0-6.5,4.6-11,10.7-11c5.9,0,9.9,4,9.9,10.9
			v1.1h-16.9c0.3,3.6,3,6.7,6.8,6.7c3,0,5-1.1,6.7-3.2L192.7,743.5z M189.7,735c-0.1-3.5-2.5-5.9-6.3-5.9c-3.8,0-6.4,2.4-6.8,5.9
			H189.7z"/>
		<path class="st2" d="M217.1,742.4c0,1.9,0.2,3.6,0.2,5H214c0-1.1-0.1-2.3-0.1-3.4h-0.1c-0.9,2.1-3.5,4-7,4c-5.5,0-8-3.5-8-8.5
			v-12.9h3.5V739c0,3.5,1.5,5.7,4.8,5.7c4.5,0,6.5-3.3,6.5-8v-10.2h3.5V742.4z"/>
		<path class="st2" d="M223.7,731.4c0-1.9-0.2-3.6-0.2-5h3.3c0,1.1,0.1,2.3,0.1,3.4h0.1c0.9-2.1,3.5-4,7-4c0.4,0,0.9,0,1.4,0.2
			l-0.2,3.5c-0.6-0.2-1.3-0.3-1.9-0.3c-4.2,0-6.1,3-6.1,7.8v10.2h-3.5V731.4z"/>
		<path class="st2" d="M239.9,741.8c1.4,1.7,2.9,2.8,5.4,2.8c2.2,0,4.6-0.9,4.6-3.2c0-2.2-2.2-2.8-4.5-3.3c-4-0.9-7.4-1.7-7.4-6.1
			c0-4.1,3.9-6.2,7.8-6.2c3,0,5.7,1.1,7.1,3.8l-2.9,1.9c-0.9-1.5-2.4-2.5-4.4-2.5c-1.9,0-4.1,0.9-4.1,2.9c0,1.7,2.5,2.5,5.3,3
			c3.7,0.7,6.8,2.1,6.8,6.3c0,4.7-4.2,6.6-8.4,6.6c-3.5,0-6.1-0.9-8.1-3.9L239.9,741.8z"/>
	</g>
	<g>
		<path class="st3" d="M35.2,550.8h3c6.6,0,13.3-1,13.3-9.2c0-5.2-4-9-9.7-9c-4.6,0-8.6,2.8-10.2,7.5l-12.2-3.3
			c3-10.1,11.8-14.6,21.9-14.6c11.8,0,21.9,6.2,21.9,18.2c0,7.3-4.4,13.6-11.7,15.4v0.2c8.7,1.3,13.3,8.2,13.3,16.6
			c0,13-10.9,20.1-23,20.1c-11.2,0-20.4-4.6-23.4-16l12.3-3.3c1.4,5.6,4.9,8.9,11.1,8.9s11.5-4.3,11.5-10.7
			c0-8.9-8.1-10.4-15.1-10.4h-2.8V550.8z"/>
	</g>
	<g>
		<path class="st2" d="M913.5,932.4V923c0-5.8,2.1-11.1,8.7-11.1c6.9,0,8.8,5.9,8.8,10.4v6.3h14.2v3.8H913.5z M927.4,928.6v-6.3
			c0-3.8-1.7-6.3-5.2-6.3s-5.2,2.6-5.2,6.3v6.3H927.4z"/>
		<path class="st2" d="M941.3,887.8c3.2,2.5,4.3,5.4,4.3,9.3c0,6.6-4.9,10.6-11,10.6c-6.5,0-11-4.6-11-10.7c0-5.9,4-9.9,11-9.9h1.1
			V904c3.6-0.3,6.7-3,6.7-6.8c0-3-1.1-5-3.2-6.7L941.3,887.8z M932.8,890.8c-3.5,0.1-5.9,2.5-5.9,6.3c0,3.8,2.4,6.4,5.9,6.8V890.8z"
			/>
		<path class="st2" d="M927.2,870.2v6.2h10.5c2.7,0,4.8,0,4.8-3.1c0-1-0.2-2.1-0.7-3.1l3.2-0.1c0.5,1.2,0.8,2.8,0.8,4.1
			c0,5-2.7,5.8-7,5.8h-11.5v4.6h-3v-4.6h-5.9v-3.5h5.9v-6.2H927.2z"/>
		<path class="st2" d="M913.5,863.9c0-1.4,1.2-2.5,2.5-2.5c1.5,0,2.5,1.1,2.5,2.5s-1.1,2.5-2.5,2.5
			C914.6,866.4,913.5,865.3,913.5,863.9z M924.2,865.6v-3.5h20.9v3.5H924.2z"/>
		<path class="st2" d="M927.2,843.8v6.2h10.5c2.7,0,4.8,0,4.8-3.1c0-1-0.2-2.1-0.7-3.1l3.2-0.1c0.5,1.2,0.8,2.8,0.8,4.1
			c0,5-2.7,5.8-7,5.8h-11.5v4.6h-3v-4.6h-5.9v-3.5h5.9v-6.2H927.2z"/>
		<path class="st2" d="M913.5,816.2v-3.5l31.6-13.5v4.4l-7.8,3.2v15.8l7.8,3.3v4.2L913.5,816.2z M918.3,814.5L918.3,814.5l15.6,6.7
			v-12.9L918.3,814.5z"/>
		<path class="st2" d="M927.2,784.2v6.2h10.5c2.7,0,4.8,0,4.8-3.1c0-1-0.2-2.1-0.7-3.1l3.2-0.1c0.5,1.2,0.8,2.8,0.8,4.1
			c0,5-2.7,5.8-7,5.8h-11.5v4.6h-3v-4.6h-5.9v-3.5h5.9v-6.2H927.2z"/>
		<path class="st2" d="M929.2,779.9c-1.9,0-3.6,0.2-5,0.2v-3.3c1.1,0,2.3-0.1,3.4-0.1v-0.1c-2.1-0.9-4-3.5-4-7c0-0.4,0-0.9,0.2-1.4
			l3.5,0.2c-0.2,0.6-0.3,1.3-0.3,1.9c0,4.2,3,6.1,7.8,6.1h10.2v3.5H929.2z"/>
		<path class="st2" d="M913.5,762.1c0-1.4,1.2-2.5,2.5-2.5c1.5,0,2.5,1.1,2.5,2.5s-1.1,2.5-2.5,2.5
			C914.6,764.6,913.5,763.5,913.5,762.1z M924.2,763.8v-3.5h20.9v3.5H924.2z"/>
		<path class="st2" d="M940.2,735.2c1.9,0,3.6-0.2,5-0.2v3.3c-1.1,0-2.3,0.1-3.4,0.1v0.1c2.1,0.9,4,3.5,4,7c0,5.5-3.5,8-8.5,8h-12.9
			v-3.5h12.6c3.5,0,5.7-1.5,5.7-4.8c0-4.5-3.3-6.5-8-6.5h-10.2v-3.5H940.2z"/>
		<path class="st2" d="M929.2,728.6c-1.9,0-3.6,0.2-5,0.2v-3.3c1.1,0,2.3-0.1,3.4-0.1v-0.1c-2.1-0.9-4-3.5-4-7c0-4.5,2.5-5.9,4-6.6
			c-2.5-1.5-4-3.4-4-6.6c0-6,3.4-8,8.8-8h12.7v3.5h-12.5c-2.9,0-5.7,1-5.7,5.1c0,3,2.4,5.4,6.2,5.4h12.1v3.5h-11.8
			c-4.6,0-6.4,1.2-6.4,4c0,4.5,3.3,6.5,8,6.5h10.2v3.5H929.2z"/>
	</g>
	<g>
		<path class="st2" d="M416.7,440.9h3.5l13.5,31.6h-4.4l-3.2-7.8h-15.8l-3.3,7.8h-4.2L416.7,440.9z M418.4,445.8L418.4,445.8
			l-6.7,15.6h12.9L418.4,445.8z"/>
		<path class="st2" d="M452.1,456.9c-1.5-1.8-3.2-2.5-5.3-2.5c-4.7,0-7.1,3.5-7.1,7.8c0,4.3,2.8,7.8,7.1,7.8c2.3,0,4-0.8,5.3-2.6
			l2.6,2.5c-2,2.3-4.9,3.4-7.9,3.4c-6.5,0-10.8-4.6-10.8-11c0-6.3,4.4-11,10.8-11c3.1,0,5.9,1,8,3.3L452.1,456.9z"/>
		<path class="st2" d="M473.7,456.9c-1.5-1.8-3.2-2.5-5.3-2.5c-4.7,0-7.1,3.5-7.1,7.8c0,4.3,2.8,7.8,7.1,7.8c2.3,0,4-0.8,5.3-2.6
			l2.6,2.5c-2,2.3-4.9,3.4-7.9,3.4c-6.5,0-10.8-4.6-10.8-11c0-6.3,4.4-11,10.8-11c3.1,0,5.9,1,8,3.3L473.7,456.9z"/>
		<path class="st2" d="M498.6,467.6c0,1.9,0.2,3.6,0.2,5h-3.3c0-1.1-0.1-2.3-0.1-3.4h-0.1c-0.9,2.1-3.5,4-7,4c-5.5,0-8-3.5-8-8.5
			v-12.9h3.5v12.6c0,3.5,1.5,5.7,4.8,5.7c4.5,0,6.5-3.3,6.5-8v-10.2h3.5V467.6z"/>
		<path class="st2" d="M523.9,468.8c-2.5,3.2-5.4,4.3-9.3,4.3c-6.6,0-10.6-4.9-10.6-11c0-6.5,4.6-11,10.7-11c5.9,0,9.9,4,9.9,11v1.1
			h-16.9c0.3,3.6,3,6.7,6.8,6.7c3,0,5-1.1,6.7-3.2L523.9,468.8z M520.9,460.3c-0.1-3.5-2.5-5.9-6.3-5.9c-3.8,0-6.4,2.4-6.8,5.9
			H520.9z"/>
		<path class="st2" d="M532.1,440.9c1.4,0,2.5,1.2,2.5,2.5c0,1.5-1.1,2.5-2.5,2.5s-2.5-1.1-2.5-2.5
			C529.5,442.1,530.7,440.9,532.1,440.9z M530.3,451.7h3.5v20.9h-3.5V451.7z"/>
		<path class="st2" d="M541.1,438.8h3.5v33.8h-3.5V438.8z"/>
	</g>
	<g>
		<g>
			<path class="st3" d="M81.3,564.5h17.1v3H84.6v8.5h12.9v3H84.6v9.7h14.5v3H81.3V564.5z M90.7,557h4.2l-5.5,5.5h-2.7L90.7,557z"/>
			<path class="st3" d="M113.4,576.2h-5.3v9c0,2.3,0,4.1,2.7,4.1c0.9,0,1.8-0.2,2.6-0.6l0.1,2.7c-1,0.5-2.4,0.7-3.5,0.7
				c-4.3,0-4.9-2.3-4.9-6v-9.9h-3.9v-2.5h3.9v-5.1h3v5.1h5.3V576.2z"/>
			<path class="st3" d="M116.8,576c1.8-1.9,4.5-2.8,7.1-2.8c5.3,0,7.5,2.5,7.5,7.6v7.7c0,1,0.1,2.2,0.3,3.1h-2.9
				c-0.2-0.8-0.2-1.9-0.2-2.7h-0.1c-1.2,1.8-3.2,3.1-5.9,3.1c-3.6,0-6.7-1.8-6.7-5.3c0-5.9,6.9-6.3,11.3-6.3h1.2v-0.5
				c0-2.6-1.6-3.9-4.4-3.9c-1.9,0-3.9,0.7-5.3,2L116.8,576z M125.5,583c-3.8,0-6.3,1-6.3,3.5c0,2.3,1.7,3.1,3.9,3.1
				c3.5,0,5.2-2.5,5.3-5.4V583H125.5z"/>
			<path class="st3" d="M154.8,590.8c0,6.5-3.5,10-9.8,10c-3.5,0-6.3-0.9-8.8-3.4l2.1-2.5c1.9,2,3.9,3.1,6.7,3.1
				c5.4,0,6.8-3.5,6.8-7.2v-2.3h-0.1c-1.4,2.3-3.9,3.3-6.3,3.3c-5.6,0-9.5-3.9-9.5-9.2c0-5.9,3.8-9.4,9.5-9.4c2.4,0,5.1,1.1,6.3,3.5
				h0.1v-3.1h3V590.8z M145.5,589.1c4.1,0,6.4-3.1,6.4-6.5c0-3.9-2.6-6.6-6.4-6.6c-3.8,0-6.3,2.9-6.3,6.7
				C139.1,586.3,142,589.1,145.5,589.1z"/>
			<path class="st3" d="M176.4,588.4c-2.1,2.7-4.6,3.7-8,3.7c-5.6,0-9.1-4.2-9.1-9.4c0-5.6,3.9-9.4,9.2-9.4c5.1,0,8.5,3.5,8.5,9.4v1
				h-14.5c0.2,3.1,2.6,5.8,5.9,5.8c2.6,0,4.3-0.9,5.7-2.7L176.4,588.4z M173.8,581.1c-0.1-3-2.1-5.1-5.4-5.1c-3.3,0-5.5,2-5.9,5.1
				H173.8z"/>
		</g>
	</g>
	<g>
		<polygon class="st3" points="700.8,356.1 722.2,356.1 727.6,363.2 728.4,368.4 728.4,380.8 715.5,390.1 700.8,390.1 694.4,382.3 
			694.1,369.9 		"/>
		<g>
			<path class="st2" d="M705.9,380.8c-0.6,2.4-0.9,5-0.9,7.9v1.4h4.9C709.1,386.2,707.6,383.2,705.9,380.8z"/>
			<path class="st2" d="M694.4,373.1v5.9c0.9,0.3,1.9,0.8,2.8,1.4c2.5,1.6,4.4,3.7,5.7,6.5v-9.2c-1-0.9-2.1-1.6-3-2.2
				C698,374.3,696.1,373.6,694.4,373.1z"/>
			<path class="st2" d="M705,376.8c1.3-3.3,3.1-6.2,5.6-8.7v-12H705V376.8z"/>
			<path class="st2" d="M706.5,378.4c1.6,1.8,3,4.1,4.1,6.9v-14.3C708.8,373.2,707.5,375.7,706.5,378.4z"/>
			<path class="st2" d="M724.3,356.1h-11.7v10.2c3.5-2.8,7.3-4.3,10.5-5.1c0.5-0.1,1.1,0.2,1.2,0.7c0.1,0.5-0.2,1.1-0.7,1.2
				c-3.4,0.9-7.5,2.6-11,5.8v9.4c0.9-1.9,2-3.5,3.4-4.9c2.8-2.8,6.2-4.2,9-4.9c0.5-0.1,1.1,0.2,1.2,0.7c0.1,0.5-0.2,1.1-0.7,1.2
				c-1.4,0.4-3,0.9-4.5,1.8c-5.6,3.1-8.4,8.4-8.4,16.4v1.4h11.7c2.3,0,4.2-1.9,4.2-4.2v-25.7C728.4,358,726.6,356.1,724.3,356.1z"/>
			<path class="st2" d="M701,373.8c0.7,0.4,1.3,0.8,2,1.4v-19h-4.4c-2.3,0-4.2,1.9-4.2,4.2v10.8C696.4,371.6,698.7,372.4,701,373.8z
				"/>
			<path class="st2" d="M696,382c-0.5-0.3-1.1-0.6-1.6-0.8v4.7c0,2.3,1.9,4.2,4.2,4.2h3.4C701,386.5,699,383.8,696,382z"/>
		</g>
		<g>
			<g>
				<g>
					<g>
						<path class="st3" d="M754.2,388.4c-9.1,0-15.9-6.3-15.9-15.5c0-9.4,6.8-15.3,15.9-15.3c9.2,0,16,5.9,16,15.3
							C770.2,382.1,763.4,388.4,754.2,388.4z M754.2,363.9c-5,0-8.4,3.8-8.4,8.9c0,5.3,3.4,9.1,8.4,9.1s8.4-3.8,8.4-9.1
							C762.6,367.7,759.2,363.9,754.2,363.9z"/>
					</g>
				</g>
			</g>
		</g>
		<g>
			<g>
				<path class="st3" d="M793.5,365.9c-1.2-1.5-3.4-2.5-5.2-2.5c-1.8,0-4.1,0.6-4.1,2.9c0,1.9,1.7,2.6,4.5,3.4c4,1.3,9.1,3,9.1,8.8
					c0,6.7-5.4,9.8-11.2,9.8c-4.2,0-8.4-1.5-11-4.2l4.6-4.7c1.4,1.8,4,3.1,6.3,3.1c2.2,0,4.1-0.8,4.1-3.2c0-2.2-2.2-2.9-6.1-4.2
					c-3.7-1.2-7.5-3.1-7.5-8.4c0-6.5,5.9-9.2,11.3-9.2c3.3,0,7,1.2,9.6,3.6L793.5,365.9z"/>
			</g>
		</g>
		<g>
			<g>
				<path class="st3" d="M822.8,387.6l-6.3-11.6h-2.4v11.6h-6.9v-29.3h11.2c5.6,0,11.2,2.2,11.2,8.8c0,3.9-2.3,6.7-6.1,7.9l7.6,12.5
					H822.8z M817.8,364H814v6.8h3.3c2.3,0,5.1-0.6,5.1-3.6C822.5,364.6,819.9,364,817.8,364z"/>
			</g>
		</g>
		<g>
			<g>
				<g>
					<g>
						<path class="st3" d="M849.2,387.6h-10.9v-29.3h10.6c8.3,0,16.7,3.5,16.7,14.6C865.6,383.2,857.3,387.6,849.2,387.6z
							 M848.7,364.4h-3.5v17.1h3.3c5,0,9.7-2.1,9.7-8.6C858.2,366.3,853.6,364.4,848.7,364.4z"/>
					</g>
				</g>
			</g>
		</g>
	</g>
	<line class="st0" x1="963.3" y1="915.5" x2="963.3" y2="830.6"/>
	<line class="st0" x1="157.5" y1="830.6" x2="157.5" y2="875.5"/>
	<polyline class="st0" points="3.8,830.6 3.8,952 963.3,948.2 963.3,933.2 	"/>
	<line class="st0" x1="157.5" y1="893.2" x2="157.5" y2="948.2"/>
	<g>
		<g>
			<path class="st4" d="M374.1,543.3c21-17.2,47.9-27.5,77.1-27.5h90.6"/>
			<g>
				<polygon class="st3" points="525.3,536.3 521.8,532.6 539.9,515.9 521.8,499.1 525.3,495.4 547.2,515.9 				"/>
			</g>
		</g>
	</g>
	<path class="st5" d="M329.2,671.9v-34c0-28.4,9.7-54.5,25.9-75.2"/>
	<path class="st5" d="M329.2,692.2L329.2,692.2c0,24.3-19.7,44-44,44h-12.3"/>
	<line class="st5" x1="366.3" y1="550.8" x2="363.9" y2="553.2"/>
	<g>
		<g>
			<line class="st4" x1="73.9" y1="639.3" x2="73.9" y2="693.8"/>
			<g>
				<polygon class="st3" points="53.5,677.2 57.1,673.8 73.9,691.9 90.7,673.8 94.4,677.2 73.9,699.2 				"/>
			</g>
		</g>
	</g>
</g>
<g>
	<path class="st3" d="M72.5,534.7c0.2,1.8,1.6,3,3.4,3c1.6,0,2.6-0.7,3.4-1.7l2.2,1.7c-1.5,1.8-3.3,2.5-5.3,2.5
		c-3.8,0-6.8-2.6-6.8-6.5c0-3.9,3-6.5,6.8-6.5c3.5,0,5.8,2.4,5.8,6.8v0.9H72.5z M76.9,525.2h-2.4l-3.7-3.7h3.5L76.9,525.2z
		 M78.9,532.4c0-1.8-1.2-3-3.2-3c-1.8,0-3,1.2-3.2,3H78.9z"/>
	<path class="st3" d="M84.8,527.4h3v1.9h0.1c0.5-1.2,1.7-2.3,3.8-2.3c1.9,0,3.2,0.8,3.9,2.3c0.9-1.6,2.2-2.3,4.1-2.3
		c3.3,0,4.5,2.4,4.5,5.3v7.4H101v-7.1c0-1.6-0.5-2.9-2.3-2.9c-1.9,0-2.7,1.6-2.7,3.2v6.8h-3.1v-7.4c0-1.5-0.6-2.5-2.1-2.5
		c-2.1,0-2.9,1.5-2.9,3.2v6.8h-3.1V527.4z"/>
	<path class="st3" d="M110,534.7c0.2,1.8,1.6,3,3.4,3c1.6,0,2.6-0.7,3.4-1.7l2.2,1.7c-1.5,1.8-3.3,2.5-5.3,2.5
		c-3.8,0-6.8-2.6-6.8-6.5c0-3.9,3-6.5,6.8-6.5c3.5,0,5.8,2.4,5.8,6.8v0.9H110z M116.4,532.4c0-1.8-1.2-3-3.2-3c-1.8,0-3,1.2-3.2,3
		H116.4z"/>
</g>
<polyline class="st0" points="193.3,0.6 1.3,0.6 3.8,639.3 "/>
</svg>
