<?xml version="1.0" encoding="utf-8"?>
<!-- Generator: Adobe Illustrator 22.1.0, SVG Export Plug-In . SVG Version: 6.00 Build 0)  -->
<svg version="1.1" id="Calque_1" xmlns="http://www.w3.org/2000/svg" xmlns:xlink="http://www.w3.org/1999/xlink" x="0px" y="0px"
	 viewBox="0 0 964.6 952.6" style="enable-background:new 0 0 964.6 952.6;" xml:space="preserve">
<style type="text/css">
	.st0{fill:none;stroke:#786ABF;stroke-width:5;stroke-linecap:round;stroke-linejoin:round;stroke-miterlimit:10;}
	.st1{fill:none;stroke:#786ABF;stroke-width:5;stroke-miterlimit:10;}
	.st2{fill:#786ABF;}
	.st3{fill:#FFFFFF;}
	.st4{fill:none;stroke:#FFFFFF;stroke-width:5;stroke-linecap:round;stroke-linejoin:round;}
	.st5{fill:none;stroke:#FFFFFF;stroke-width:5;stroke-linecap:round;stroke-linejoin:round;stroke-miterlimit:10;}
</style>
<g id="fond">
</g>
<g id="images">
</g>
<g id="logo">
</g>
<g id="taille-ecran">
</g>
<g>
	<line class="st0" x1="96" y1="641.2" x2="264" y2="641.2"/>
	<polyline class="st0" points="156.3,832.5 2.5,832.5 2.5,641.2 48.7,641.2 	"/>
	<polyline class="st0" points="192.1,641.2 192.1,2.5 962.1,2.5 962.1,832.5 	"/>
	<polyline class="st1" points="615.2,561.8 615.2,641.2 962.1,641.2 962.1,99.7 615.2,99.7 615.2,485.8 	"/>
	<circle class="st2" cx="474.1" cy="139.2" r="11.5"/>
	<circle class="st2" cx="474.1" cy="266.7" r="11.5"/>
	<circle class="st2" cx="474.1" cy="394.2" r="11.5"/>
	<circle class="st2" cx="474.1" cy="561.7" r="11.5"/>
	<line class="st0" x1="385" y1="641.2" x2="615.2" y2="641.2"/>
	<g>
		<path class="st2" d="M878.5,605.3c-2,1.3-2.9,3.5-2.9,5.8c0,3.3,1.6,6.7,5.3,6.7c2.9,0,4.2-1.6,5.8-6.7c1.6-4.9,3.2-9.5,9.4-9.5
			c6.3,0,9.3,5.4,9.3,11.1c0,3.7-1.2,7.6-4.4,9.7l-2.6-3.2c2.3-1.3,3.5-4,3.5-6.7c0-3.2-1.9-6.9-5.5-6.9c-3.9,0-4.6,2.6-6.4,8.3
			c-1.5,4.5-3.4,7.9-8.7,7.9c-6.1,0-9.1-5.2-9.1-10.8c0-3.5,1-6.5,3.7-8.8L878.5,605.3z"/>
		<path class="st2" d="M886.3,596.4c-2.2-2.1-3.2-5.3-3.2-8.3c0-6.2,2.9-8.8,8.8-8.8h9c1.2,0,2.5-0.1,3.6-0.3v3.4
			c-0.9,0.2-2.2,0.2-3.1,0.2v0.1c2.1,1.4,3.7,3.7,3.7,6.9c0,4.2-2.1,7.8-6.2,7.8c-6.9,0-7.3-8-7.3-13.2v-1.3h-0.6
			c-3,0-4.6,1.9-4.6,5.2c0,2.2,0.8,4.6,2.3,6.2L886.3,596.4z M894.5,586.3c0,4.4,1.2,7.3,4,7.3c2.6,0,3.6-2,3.6-4.6
			c0-4-2.9-6.1-6.3-6.2h-1.3V586.3z"/>
		<path class="st2" d="M870.7,572.6v-3.5h33.8v3.5H870.7z"/>
		<path class="st2" d="M870.7,561.9v-3.5h33.8v3.5H870.7z"/>
		<path class="st2" d="M900.7,532.8c3.2,2.5,4.3,5.4,4.3,9.3c0,6.6-4.9,10.6-11,10.6c-6.5,0-11-4.6-11-10.7c0-5.9,4-9.9,10.9-9.9
			h1.1v16.9c3.6-0.3,6.7-3,6.7-6.8c0-3-1.1-5-3.2-6.7L900.7,532.8z M892.2,535.8c-3.5,0.1-5.9,2.5-5.9,6.3c0,3.8,2.4,6.4,5.9,6.8
			V535.8z"/>
		<path class="st2" d="M944.5,603.6L944.5,603.6c2.4,1.4,4.2,4.4,4.2,8.1c0,5.9-4.7,10.5-11,10.5c-6.3,0-11-4.4-11-11
			c0-3,1.3-5.6,3.6-7.5v-0.1h-15.9v-3.5h33.8v3.5H944.5z M929.9,611c0,4.5,3.4,7.4,7.8,7.4s7.8-2.9,7.8-7.4c0-4.5-3.4-7.4-7.8-7.4
			S929.9,606.5,929.9,611z"/>
		<path class="st2" d="M944.4,575c3.2,2.5,4.3,5.4,4.3,9.3c0,6.6-4.9,10.6-11,10.6c-6.5,0-11-4.6-11-10.7c0-5.9,4-9.9,11-9.9h1.1
			v16.9c3.6-0.3,6.7-3,6.7-6.8c0-3-1.1-5-3.2-6.7L944.4,575z M935.8,578c-3.5,0.1-5.9,2.5-5.9,6.3c0,3.8,2.4,6.4,5.9,6.8V578z"/>
		<path class="st2" d="M932.5,541.5c-1.8,1.5-2.5,3.2-2.5,5.3c0,4.7,3.5,7.1,7.8,7.1c4.3,0,7.8-2.8,7.8-7.1c0-2.3-0.8-4-2.6-5.3
			l2.5-2.6c2.3,2,3.4,4.9,3.4,7.9c0,6.5-4.6,10.8-11,10.8c-6.3,0-11-4.4-11-10.8c0-3.1,1-5.9,3.3-8L932.5,541.5z"/>
		<path class="st2" d="M926.7,524.9c0-6.4,4.5-11.2,11-11.2c6.5,0,11,4.7,11,11.2c0,6.4-4.5,11.2-11,11.2
			C931.2,536.1,926.7,531.3,926.7,524.9z M945.5,524.9c0-4.5-3.4-7.4-7.8-7.4s-7.8,2.9-7.8,7.4c0,4.5,3.4,7.4,7.8,7.4
			S945.5,529.4,945.5,524.9z"/>
		<path class="st2" d="M932.2,508.3c-1.9,0-3.6,0.2-5,0.2v-3.3c1.1,0,2.3-0.1,3.4-0.1V505c-2.1-0.9-4-3.5-4-7c0-5.5,3.5-8,8.5-8
			h12.9v3.5h-12.6c-3.5,0-5.7,1.5-5.7,4.8c0,4.5,3.3,6.5,8,6.5h10.2v3.5H932.2z"/>
		<path class="st2" d="M930.2,481.7v4.6h-3v-4.6h-4.7c-5.1,0-8.7-1.8-8.7-7.4c0-0.9,0.2-2,0.5-2.7l3.1,0.5c-0.3,0.8-0.4,1.6-0.4,2.4
			c0,3.6,2.6,3.8,6.3,3.8h3.9v-5.1h3v5.1h18v3.5H930.2z"/>
		<path class="st2" d="M915.8,458.7v-4.9l6.4,6.4v3.2L915.8,458.7z M944.4,450.7c3.2,2.5,4.3,5.4,4.3,9.3c0,6.6-4.9,10.6-11,10.6
			c-6.5,0-11-4.6-11-10.7c0-5.9,4-9.9,11-9.9h1.1v16.9c3.6-0.3,6.7-3,6.7-6.8c0-3-1.1-5-3.2-6.7L944.4,450.7z M935.8,453.7
			c-3.5,0.1-5.9,2.5-5.9,6.3c0,3.8,2.4,6.4,5.9,6.8V453.7z"/>
		<path class="st2" d="M932.2,444.5c-1.9,0-3.6,0.2-5,0.2v-3.3c1.1,0,2.3-0.1,3.4-0.1v-0.1c-2.1-0.9-4-3.5-4-7c0-0.4,0-0.9,0.2-1.4
			l3.5,0.2c-0.2,0.6-0.3,1.3-0.3,1.9c0,4.2,3,6.1,7.8,6.1h10.2v3.5H932.2z"/>
		<path class="st2" d="M944.4,410.9c3.2,2.5,4.3,5.4,4.3,9.3c0,6.6-4.9,10.6-11,10.6c-6.5,0-11-4.6-11-10.7c0-5.9,4-9.9,11-9.9h1.1
			v16.9c3.6-0.3,6.7-3,6.7-6.8c0-3-1.1-5-3.2-6.7L944.4,410.9z M935.8,413.9c-3.5,0.1-5.9,2.5-5.9,6.3c0,3.8,2.4,6.4,5.9,6.8V413.9z
			"/>
		<path class="st2" d="M932.2,404.8c-1.9,0-3.6,0.2-5,0.2v-3.3c1.1,0,2.3-0.1,3.4-0.1v-0.1c-2.1-0.9-4-3.5-4-7c0-5.5,3.5-8,8.5-8
			h12.9v3.5h-12.6c-3.5,0-5.7,1.5-5.7,4.8c0,4.5,3.3,6.5,8,6.5h10.2v3.5H932.2z"/>
		<path class="st2" d="M932.5,365c-1.8,1.5-2.5,3.2-2.5,5.3c0,4.7,3.5,7.1,7.8,7.1c4.3,0,7.8-2.8,7.8-7.1c0-2.3-0.8-4-2.6-5.3
			l2.5-2.6c2.3,2,3.4,4.9,3.4,7.9c0,6.5-4.6,10.8-11,10.8c-6.3,0-11-4.4-11-10.8c0-3.1,1-5.9,3.3-8L932.5,365z"/>
		<path class="st2" d="M944.4,339.7c3.2,2.5,4.3,5.4,4.3,9.3c0,6.6-4.9,10.6-11,10.6c-6.5,0-11-4.6-11-10.7c0-5.9,4-9.9,11-9.9h1.1
			v16.9c3.6-0.3,6.7-3,6.7-6.8c0-3-1.1-5-3.2-6.7L944.4,339.7z M935.8,342.7c-3.5,0.1-5.9,2.5-5.9,6.3c0,3.8,2.4,6.4,5.9,6.8V342.7z
			"/>
	</g>
	<g>
		<path class="st2" d="M237,595.2c2,3.6,3,7.7,3,11.8c0,9.8-6.7,16.9-16.6,16.9c-10,0-16.6-7.6-16.6-17c0-4.2,1.1-8.2,4.2-11.2
			l2.9,2.8c-2.3,2.1-3.6,5.4-3.6,8.6c0,7.2,5.5,12.7,13.1,12.7c7.6,0,13.1-5.3,13.1-13.1c0-2.5-0.7-5.5-1.8-7.9H225v7.3h-3.5v-11
			H237z"/>
		<path class="st2" d="M223.2,587.9c-1.9,0-3.6,0.2-5,0.2v-3.3c1.1,0,2.3-0.1,3.4-0.1v-0.1c-2.1-0.9-4-3.5-4-7c0-0.4,0-0.9,0.2-1.4
			l3.5,0.2c-0.2,0.6-0.3,1.3-0.3,1.9c0,4.2,3,6.1,7.8,6.1h10.2v3.5H223.2z"/>
		<path class="st2" d="M220.9,572.5c-2.2-2.1-3.2-5.3-3.2-8.3c0-6.2,2.9-8.8,8.8-8.8h9c1.2,0,2.5-0.1,3.6-0.3v3.4
			c-0.9,0.2-2.2,0.2-3.1,0.2v0.1c2.1,1.4,3.7,3.7,3.7,6.9c0,4.2-2.1,7.8-6.2,7.8c-6.9,0-7.3-8-7.3-13.2v-1.3h-0.6
			c-3,0-4.6,1.9-4.6,5.2c0,2.2,0.8,4.6,2.3,6.2L220.9,572.5z M229.1,562.4c0,4.4,1.2,7.3,4,7.3c2.6,0,3.6-2,3.6-4.6
			c0-4-2.9-6.1-6.3-6.2h-1.3V562.4z"/>
		<path class="st2" d="M223.2,549c-1.9,0-3.6,0.2-5,0.2v-3.3c1.1,0,2.3-0.1,3.4-0.1v-0.1c-2.1-0.9-4-3.5-4-7c0-5.5,3.5-8,8.5-8h12.9
			v3.5h-12.6c-3.5,0-5.7,1.5-5.7,4.8c0,4.5,3.3,6.5,8,6.5h10.2v3.5H223.2z"/>
		<path class="st2" d="M235.5,506.8L235.5,506.8c2.4,1.4,4.2,4.4,4.2,8.1c0,5.9-4.7,10.5-11,10.5c-6.3,0-11-4.4-11-11
			c0-3,1.3-5.6,3.6-7.5v-0.1h-15.9v-3.5h33.8v3.5H235.5z M220.9,514.2c0,4.5,3.4,7.4,7.8,7.4s7.8-2.9,7.8-7.4c0-4.5-3.4-7.4-7.8-7.4
			S220.9,509.7,220.9,514.2z"/>
		<path class="st2" d="M207.5,473.5V470l31.6-13.5v4.4l-7.8,3.2V480l7.8,3.3v4.2L207.5,473.5z M212.4,471.8L212.4,471.8l15.6,6.7
			v-12.9L212.4,471.8z"/>
		<path class="st2" d="M221.2,441.5v6.2h10.5c2.7,0,4.8,0,4.8-3.1c0-1-0.2-2.1-0.7-3.1l3.2-0.1c0.5,1.2,0.8,2.8,0.8,4.1
			c0,5-2.7,5.8-7,5.8h-11.5v4.6h-2.9v-4.6h-5.9v-3.5h5.9v-6.2H221.2z"/>
		<path class="st2" d="M223.2,437.2c-1.9,0-3.6,0.2-5,0.2v-3.3c1.1,0,2.3-0.1,3.4-0.1v-0.1c-2.1-0.9-4-3.5-4-7c0-0.4,0-0.9,0.2-1.4
			l3.5,0.2c-0.2,0.6-0.3,1.3-0.3,1.9c0,4.2,3,6.1,7.8,6.1h10.2v3.5H223.2z"/>
		<path class="st2" d="M207.5,419.5c0-1.4,1.2-2.5,2.5-2.5c1.5,0,2.5,1.1,2.5,2.5s-1.1,2.5-2.5,2.5
			C208.7,422,207.5,420.9,207.5,419.5z M218.3,421.2v-3.5h20.9v3.5H218.3z"/>
		<path class="st2" d="M234.2,392.5c1.9,0,3.6-0.2,5-0.2v3.3c-1.1,0-2.3,0.1-3.4,0.1v0.1c2.1,0.9,4,3.5,4,7c0,5.5-3.5,8-8.5,8h-12.9
			v-3.5h12.6c3.5,0,5.7-1.5,5.7-4.8c0-4.5-3.3-6.5-8-6.5h-10.2v-3.5H234.2z"/>
		<path class="st2" d="M223.2,385.9c-1.9,0-3.6,0.2-5,0.2v-3.3c1.1,0,2.3-0.1,3.4-0.1v-0.1c-2.1-0.9-4-3.5-4-7c0-4.5,2.5-5.9,4-6.6
			c-2.5-1.5-4-3.4-4-6.6c0-6,3.4-8,8.8-8h12.7v3.5h-12.5c-2.9,0-5.7,1-5.7,5.1c0,3,2.4,5.4,6.2,5.4h12.1v3.5h-11.8
			c-4.6,0-6.4,1.2-6.4,4c0,4.5,3.3,6.5,8,6.5h10.2v3.5H223.2z"/>
	</g>
	<g>
		<path class="st3" d="M303.5,254.5h19v2.7h-16v11.3h14.9v2.7h-14.9v15h-3V254.5z"/>
		<path class="st3" d="M337.3,265c6.3,0,10.9,4.6,10.9,10.9s-4.5,10.9-10.9,10.9c-6.3,0-10.9-4.6-10.9-10.9S330.9,265,337.3,265z
			 M337.3,284.3c5.1,0,8.2-3.8,8.2-8.4c0-4.6-3.1-8.4-8.2-8.4c-5,0-8.2,3.8-8.2,8.4C329.1,280.5,332.2,284.3,337.3,284.3z"/>
		<path class="st3" d="M354.1,271.3c0-1.5-0.2-4.7-0.2-5.8h2.7c0,1.5,0.1,3.2,0.2,3.6c1.3-2.4,3.5-4.2,6.6-4.2c0.5,0,1,0.1,1.6,0.2
			l-0.3,2.6c-0.4-0.1-0.8-0.2-1-0.2c-4.6,0-6.7,3.2-6.7,7.2v11.3h-2.7V271.3z"/>
		<path class="st3" d="M386.5,280.4c0,1.5,0.2,4.7,0.2,5.8H384c0-1.5-0.1-3.2-0.2-3.6h-0.1c-1.1,2.3-3.7,4.2-7.1,4.2
			c-6.4,0-7.9-4.4-7.9-8.9v-12.3h2.7v12.2c0,3.4,0.9,6.6,5.2,6.6c4,0,7.2-2.8,7.2-8.4v-10.3h2.7V280.4z"/>
		<path class="st3" d="M393.9,271.3c0-1.5-0.2-4.7-0.2-5.8h2.7c0,1.5,0.1,3.2,0.2,3.6h0.1c1.1-2.3,3.7-4.2,7.1-4.2
			c2.7,0,5.2,1.3,6.2,4.5c1.3-3.1,4.2-4.5,7-4.5c6.4,0,7.9,4.4,7.9,8.9v12.3h-2.7V274c0-3.4-0.9-6.6-5.2-6.6c-5,0-6.3,4.2-6.3,7.2
			v11.6H408v-12.4c0-3.8-1.4-6.3-4.3-6.3c-4,0-7.2,2.8-7.2,8.4v10.3h-2.7V271.3z"/>
		<path class="st3" d="M303.1,298.2h9.8c16.4,0,17.1,13.5,17.1,15.8s-0.7,15.8-17.1,15.8h-9.8V298.2z M306.1,327.1h6.1
			c8.4,0,14.9-4.1,14.9-13.1s-6.5-13.1-14.9-13.1h-6.1V327.1z"/>
		<path class="st3" d="M336.6,298.2h3v31.6h-3V298.2z"/>
		<path class="st3" d="M374.3,327.8c-3.7,2.1-7.7,2.9-11.8,2.9c-9.7,0-16.4-7-16.4-16.6s6.7-16.6,16.4-16.6c4.7,0,8.5,1.4,11.4,4.4
			l-2.1,2.2c-1.9-2.3-5.8-3.9-9.3-3.9c-8.3,0-13.4,6.1-13.4,13.9c0,7.9,5.1,13.9,13.4,13.9c3.4,0,6.4-0.4,8.8-1.9v-10.6h-7.6v-2.7
			h10.5V327.8z"/>
		<path class="st3" d="M383,298.2h3v31.6h-3V298.2z"/>
		<path class="st3" d="M401.6,300.9h-10.8v-2.7h24.6v2.7h-10.8v29h-3V300.9z"/>
	</g>
	<g>
		<path class="st2" d="M42.9,717.6h3.5l13.5,31.6h-4.4l-3.2-7.8H36.5l-3.3,7.8h-4.2L42.9,717.6z M44.6,722.5L44.6,722.5L37.9,738
			h12.9L44.6,722.5z"/>
		<path class="st2" d="M63.9,743.8c1.4,1.7,2.9,2.8,5.4,2.8c2.2,0,4.6-0.9,4.6-3.2c0-2.2-2.2-2.8-4.5-3.3c-4-0.9-7.4-1.7-7.4-6.1
			c0-4.1,3.9-6.2,7.8-6.2c3,0,5.7,1.1,7.1,3.8l-2.9,1.9c-0.9-1.5-2.4-2.5-4.4-2.5c-1.9,0-4.1,0.9-4.1,2.9c0,1.7,2.5,2.5,5.3,3
			c3.7,0.7,6.8,2.1,6.8,6.3c0,4.7-4.2,6.6-8.4,6.6c-3.5,0-6.1-0.9-8.1-3.9L63.9,743.8z"/>
		<path class="st2" d="M97.4,733.6c-1.5-1.8-3.2-2.5-5.3-2.5c-4.7,0-7.1,3.5-7.1,7.8c0,4.3,2.8,7.8,7.1,7.8c2.3,0,4-0.8,5.3-2.6
			l2.6,2.5c-2,2.3-4.9,3.4-7.9,3.4c-6.5,0-10.8-4.6-10.8-11c0-6.3,4.4-11,10.8-11c3.1,0,5.9,1,8,3.3L97.4,733.6z"/>
		<path class="st2" d="M122.7,745.5c-2.5,3.2-5.4,4.3-9.3,4.3c-6.6,0-10.6-4.9-10.6-11c0-6.5,4.6-11,10.7-11c5.9,0,9.9,4,9.9,10.9
			v1.1h-16.9c0.3,3.6,3,6.7,6.8,6.7c3,0,5-1.1,6.7-3.2L122.7,745.5z M119.7,736.9c-0.1-3.5-2.5-5.9-6.3-5.9c-3.8,0-6.4,2.4-6.8,5.9
			H119.7z"/>
		<path class="st2" d="M128.9,733.3c0-1.9-0.2-3.6-0.2-5h3.3c0,1.1,0.1,2.3,0.1,3.4h0.1c0.9-2.1,3.5-4,7-4c5.5,0,8,3.5,8,8.5v12.9
			h-3.5v-12.6c0-3.5-1.5-5.7-4.8-5.7c-4.5,0-6.5,3.3-6.5,8v10.2h-3.5V733.3z"/>
		<path class="st2" d="M154.2,743.8c1.4,1.7,2.9,2.8,5.4,2.8c2.2,0,4.6-0.9,4.6-3.2c0-2.2-2.2-2.8-4.5-3.3c-4-0.9-7.4-1.7-7.4-6.1
			c0-4.1,3.9-6.2,7.8-6.2c3,0,5.7,1.1,7.1,3.8l-2.9,1.9c-0.9-1.5-2.4-2.5-4.4-2.5c-1.9,0-4.1,0.9-4.1,2.9c0,1.7,2.5,2.5,5.3,3
			c3.7,0.7,6.8,2.1,6.8,6.3c0,4.7-4.2,6.6-8.4,6.6c-3.5,0-6.1-0.9-8.1-3.9L154.2,743.8z"/>
		<path class="st2" d="M191.4,745.5c-2.5,3.2-5.4,4.3-9.3,4.3c-6.6,0-10.6-4.9-10.6-11c0-6.5,4.6-11,10.7-11c5.9,0,9.9,4,9.9,10.9
			v1.1h-16.9c0.3,3.6,3,6.7,6.8,6.7c3,0,5-1.1,6.7-3.2L191.4,745.5z M188.4,736.9c-0.1-3.5-2.5-5.9-6.3-5.9c-3.8,0-6.4,2.4-6.8,5.9
			H188.4z"/>
		<path class="st2" d="M215.8,744.3c0,1.9,0.2,3.6,0.2,5h-3.3c0-1.1-0.1-2.3-0.1-3.4h-0.1c-0.9,2.1-3.5,4-7,4c-5.5,0-8-3.5-8-8.5
			v-12.9h3.5v12.6c0,3.5,1.5,5.7,4.8,5.7c4.5,0,6.5-3.3,6.5-8v-10.2h3.5V744.3z"/>
		<path class="st2" d="M222.5,733.3c0-1.9-0.2-3.6-0.2-5h3.3c0,1.1,0.1,2.3,0.1,3.4h0.1c0.9-2.1,3.5-4,7-4c0.4,0,0.9,0,1.4,0.2
			l-0.2,3.5c-0.6-0.2-1.3-0.3-1.9-0.3c-4.2,0-6.1,3-6.1,7.8v10.2h-3.5V733.3z"/>
		<path class="st2" d="M238.6,743.8c1.4,1.7,2.9,2.8,5.4,2.8c2.2,0,4.6-0.9,4.6-3.2c0-2.2-2.2-2.8-4.5-3.3c-4-0.9-7.4-1.7-7.4-6.1
			c0-4.1,3.9-6.2,7.8-6.2c3,0,5.7,1.1,7.1,3.8l-2.9,1.9c-0.9-1.5-2.4-2.5-4.4-2.5c-1.9,0-4.1,0.9-4.1,2.9c0,1.7,2.5,2.5,5.3,3
			c3.7,0.7,6.8,2.1,6.8,6.3c0,4.7-4.2,6.6-8.4,6.6c-3.5,0-6.1-0.9-8.1-3.9L238.6,743.8z"/>
	</g>
	<g>
		<path class="st3" d="M23.9,552.7h3c6.6,0,13.3-1,13.3-9.2c0-5.2-4-9-9.7-9c-4.6,0-8.6,2.8-10.2,7.5L8,538.8
			c3-10.1,11.8-14.6,21.9-14.6c11.8,0,21.9,6.2,21.9,18.2c0,7.3-4.4,13.6-11.7,15.4v0.2c8.7,1.3,13.3,8.2,13.3,16.6
			c0,13-10.9,20.1-23,20.1c-11.2,0-20.4-4.6-23.4-16l12.3-3.3c1.4,5.6,4.9,8.9,11.1,8.9s11.5-4.3,11.5-10.7
			c0-8.9-8.1-10.4-15.1-10.4h-2.8V552.7z"/>
	</g>
	<g>
		<path class="st2" d="M912.2,944.3V935c0-5.8,2.1-11.1,8.7-11.1c6.9,0,8.8,5.9,8.8,10.4v6.3h14.2v3.8H912.2z M926.2,940.6v-6.3
			c0-3.8-1.7-6.3-5.2-6.3c-3.5,0-5.2,2.6-5.2,6.3v6.3H926.2z"/>
		<path class="st2" d="M940.1,899.8c3.2,2.5,4.3,5.4,4.3,9.3c0,6.6-4.9,10.6-11,10.6c-6.5,0-11-4.6-11-10.7c0-5.9,4-9.9,10.9-9.9
			h1.1v16.9c3.6-0.3,6.7-3,6.7-6.8c0-3-1.1-5-3.2-6.7L940.1,899.8z M931.5,902.8c-3.5,0.1-5.9,2.5-5.9,6.3c0,3.8,2.4,6.4,5.9,6.8
			V902.8z"/>
		<path class="st2" d="M925.9,882.2v6.2h10.5c2.7,0,4.8,0,4.8-3.1c0-1-0.2-2.1-0.7-3.1l3.2-0.1c0.5,1.2,0.8,2.8,0.8,4.1
			c0,5-2.7,5.8-7,5.8h-11.5v4.6H923v-4.6H917v-3.5h5.9v-6.2H925.9z"/>
		<path class="st2" d="M912.2,875.8c0-1.4,1.2-2.5,2.5-2.5c1.5,0,2.5,1.1,2.5,2.5s-1.1,2.5-2.5,2.5
			C913.4,878.4,912.2,877.3,912.2,875.8z M923,877.6v-3.5h20.9v3.5H923z"/>
		<path class="st2" d="M925.9,855.7v6.2h10.5c2.7,0,4.8,0,4.8-3.1c0-1-0.2-2.1-0.7-3.1l3.2-0.1c0.5,1.2,0.8,2.8,0.8,4.1
			c0,5-2.7,5.8-7,5.8h-11.5v4.6H923v-4.6H917v-3.5h5.9v-6.2H925.9z"/>
		<path class="st2" d="M912.2,828.1v-3.5l31.6-13.5v4.4l-7.8,3.2v15.8l7.8,3.3v4.2L912.2,828.1z M917.1,826.4L917.1,826.4l15.6,6.7
			v-12.9L917.1,826.4z"/>
		<path class="st2" d="M925.9,796.1v6.2h10.5c2.7,0,4.8,0,4.8-3.1c0-1-0.2-2.1-0.7-3.1l3.2-0.1c0.5,1.2,0.8,2.8,0.8,4.1
			c0,5-2.7,5.8-7,5.8h-11.5v4.6H923v-4.6H917v-3.5h5.9v-6.2H925.9z"/>
		<path class="st2" d="M927.9,791.8c-1.9,0-3.6,0.2-5,0.2v-3.3c1.1,0,2.3-0.1,3.4-0.1v-0.1c-2.1-0.9-4-3.5-4-7c0-0.4,0-0.9,0.2-1.4
			l3.5,0.2c-0.2,0.6-0.3,1.3-0.3,1.9c0,4.2,3,6.1,7.8,6.1h10.2v3.5H927.9z"/>
		<path class="st2" d="M912.2,774c0-1.4,1.2-2.5,2.5-2.5c1.5,0,2.5,1.1,2.5,2.5s-1.1,2.5-2.5,2.5C913.4,776.6,912.2,775.4,912.2,774
			z M923,775.8v-3.5h20.9v3.5H923z"/>
		<path class="st2" d="M938.9,747.1c1.9,0,3.6-0.2,5-0.2v3.3c-1.1,0-2.3,0.1-3.4,0.1v0.1c2.1,0.9,4,3.5,4,7c0,5.5-3.5,8-8.5,8H923
			v-3.5h12.6c3.5,0,5.7-1.5,5.7-4.8c0-4.5-3.3-6.5-8-6.5H923v-3.5H938.9z"/>
		<path class="st2" d="M927.9,740.5c-1.9,0-3.6,0.2-5,0.2v-3.3c1.1,0,2.3-0.1,3.4-0.1v-0.1c-2.1-0.9-4-3.5-4-7c0-4.5,2.5-5.9,4-6.6
			c-2.5-1.5-4-3.4-4-6.6c0-6,3.4-8,8.8-8h12.7v3.5h-12.5c-2.9,0-5.7,1-5.7,5.1c0,3,2.4,5.4,6.2,5.4h12.1v3.5H932
			c-4.6,0-6.4,1.2-6.4,4c0,4.5,3.3,6.5,8,6.5h10.2v3.5H927.9z"/>
	</g>
	<g>
		<path class="st2" d="M415.4,442.9h3.5l13.5,31.6H428l-3.2-7.8H409l-3.3,7.8h-4.2L415.4,442.9z M417.1,447.7L417.1,447.7l-6.7,15.6
			h12.9L417.1,447.7z"/>
		<path class="st2" d="M450.9,458.8c-1.5-1.8-3.2-2.5-5.3-2.5c-4.7,0-7.1,3.5-7.1,7.8c0,4.3,2.8,7.8,7.1,7.8c2.3,0,4-0.8,5.3-2.6
			l2.6,2.5c-2,2.3-4.9,3.4-7.9,3.4c-6.5,0-10.8-4.6-10.8-11c0-6.3,4.4-11,10.8-11c3.1,0,5.9,1,8,3.3L450.9,458.8z"/>
		<path class="st2" d="M472.4,458.8c-1.5-1.8-3.2-2.5-5.3-2.5c-4.7,0-7.1,3.5-7.1,7.8c0,4.3,2.8,7.8,7.1,7.8c2.3,0,4-0.8,5.3-2.6
			l2.6,2.5c-2,2.3-4.9,3.4-7.9,3.4c-6.5,0-10.8-4.6-10.8-11c0-6.3,4.4-11,10.8-11c3.1,0,5.9,1,8,3.3L472.4,458.8z"/>
		<path class="st2" d="M497.3,469.6c0,1.9,0.2,3.6,0.2,5h-3.3c0-1.1-0.1-2.3-0.1-3.4H494c-0.9,2.1-3.5,4-7,4c-5.5,0-8-3.5-8-8.5
			v-12.9h3.5v12.6c0,3.5,1.5,5.7,4.8,5.7c4.5,0,6.5-3.3,6.5-8v-10.2h3.5V469.6z"/>
		<path class="st2" d="M522.6,470.7c-2.5,3.2-5.4,4.3-9.3,4.3c-6.6,0-10.6-4.9-10.6-11c0-6.5,4.6-11,10.7-11c5.9,0,9.9,4,9.9,10.9
			v1.1h-16.9c0.3,3.6,3,6.7,6.8,6.7c3,0,5-1.1,6.7-3.2L522.6,470.7z M519.6,462.2c-0.1-3.5-2.5-5.9-6.3-5.9c-3.8,0-6.4,2.4-6.8,5.9
			H519.6z"/>
		<path class="st2" d="M530.8,442.9c1.4,0,2.5,1.2,2.5,2.5c0,1.5-1.1,2.5-2.5,2.5s-2.5-1.1-2.5-2.5
			C528.3,444,529.4,442.9,530.8,442.9z M529.1,453.6h3.5v20.9h-3.5V453.6z"/>
		<path class="st2" d="M539.8,440.7h3.5v33.8h-3.5V440.7z"/>
	</g>
	<g>
		<g>
			<path class="st3" d="M70.1,566.4h17.1v3H73.3v8.5h12.9v3H73.3v9.7h14.5v3H70.1V566.4z M79.4,559h4.2l-5.5,5.5h-2.7L79.4,559z"/>
			<path class="st3" d="M102.1,578.2h-5.3v9c0,2.3,0,4.1,2.7,4.1c0.9,0,1.8-0.2,2.6-0.6l0.1,2.7c-1,0.5-2.4,0.7-3.5,0.7
				c-4.3,0-4.9-2.3-4.9-6v-9.9h-3.9v-2.5h3.9v-5.1h3v5.1h5.3V578.2z"/>
			<path class="st3" d="M105.6,577.9c1.8-1.9,4.5-2.8,7.1-2.8c5.3,0,7.5,2.5,7.5,7.6v7.7c0,1,0.1,2.2,0.3,3.1h-2.9
				c-0.2-0.8-0.2-1.9-0.2-2.7h-0.1c-1.2,1.8-3.2,3.1-5.9,3.1c-3.6,0-6.7-1.8-6.7-5.3c0-5.9,6.9-6.3,11.3-6.3h1.2v-0.5
				c0-2.6-1.6-3.9-4.4-3.9c-1.9,0-3.9,0.7-5.3,2L105.6,577.9z M114.2,584.9c-3.8,0-6.3,1-6.3,3.5c0,2.3,1.7,3.1,3.9,3.1
				c3.5,0,5.2-2.5,5.3-5.4v-1.2H114.2z"/>
			<path class="st3" d="M143.6,592.8c0,6.5-3.5,10-9.8,10c-3.5,0-6.3-0.9-8.8-3.4l2.1-2.5c1.9,2,3.9,3.1,6.7,3.1
				c5.4,0,6.8-3.5,6.8-7.2v-2.3h-0.1c-1.4,2.3-3.9,3.3-6.3,3.3c-5.6,0-9.5-3.9-9.5-9.2c0-5.9,3.8-9.4,9.5-9.4c2.4,0,5.1,1.1,6.3,3.5
				h0.1v-3.1h3V592.8z M134.2,591c4.1,0,6.4-3.1,6.4-6.5c0-3.9-2.6-6.6-6.4-6.6c-3.8,0-6.3,2.9-6.3,6.7
				C127.9,588.2,130.7,591,134.2,591z"/>
			<path class="st3" d="M165.1,590.3c-2.1,2.7-4.6,3.7-8,3.7c-5.6,0-9.1-4.2-9.1-9.4c0-5.6,3.9-9.4,9.2-9.4c5.1,0,8.5,3.5,8.5,9.4v1
				h-14.5c0.2,3.1,2.6,5.8,5.9,5.8c2.6,0,4.3-0.9,5.7-2.7L165.1,590.3z M162.6,583c-0.1-3-2.1-5.1-5.4-5.1c-3.3,0-5.5,2-5.9,5.1
				H162.6z"/>
		</g>
	</g>
	<g>
		<polygon class="st3" points="699.6,358 721,358 726.3,365.1 727.2,370.4 727.2,382.7 714.3,392 699.6,392 693.2,384.2 
			692.9,371.8 		"/>
		<g>
			<path class="st2" d="M704.6,382.7c-0.6,2.4-0.9,5-0.9,7.9v1.4h4.9C707.8,388.1,706.4,385.1,704.6,382.7z"/>
			<path class="st2" d="M693.2,375.1v5.9c0.9,0.3,1.9,0.8,2.8,1.4c2.5,1.6,4.4,3.7,5.7,6.5v-9.2c-1-0.9-2.1-1.6-3-2.2
				C696.8,376.3,694.9,375.5,693.2,375.1z"/>
			<path class="st2" d="M703.7,378.7c1.3-3.3,3.1-6.2,5.6-8.7v-12h-5.6V378.7z"/>
			<path class="st2" d="M705.3,380.4c1.6,1.8,3,4.1,4.1,6.9V373C707.6,375.1,706.2,377.6,705.3,380.4z"/>
			<path class="st2" d="M723,358h-11.7v10.2c3.5-2.8,7.3-4.3,10.5-5.1c0.5-0.1,1.1,0.2,1.2,0.7c0.1,0.5-0.2,1.1-0.7,1.2
				c-3.4,0.9-7.5,2.6-11,5.8v9.4c0.9-1.9,2-3.5,3.4-4.9c2.8-2.8,6.2-4.2,9-4.9c0.5-0.1,1.1,0.2,1.2,0.7c0.1,0.5-0.2,1.1-0.7,1.2
				c-1.4,0.4-3,0.9-4.5,1.8c-5.6,3.1-8.4,8.4-8.4,16.4v1.4H723c2.3,0,4.2-1.9,4.2-4.2v-25.7C727.2,359.9,725.3,358,723,358z"/>
			<path class="st2" d="M699.7,375.7c0.7,0.4,1.3,0.8,2,1.4v-19h-4.4c-2.3,0-4.2,1.9-4.2,4.2V373
				C695.1,373.5,697.4,374.3,699.7,375.7z"/>
			<path class="st2" d="M694.8,384c-0.5-0.3-1.1-0.6-1.6-0.8v4.7c0,2.3,1.9,4.2,4.2,4.2h3.4C699.7,388.4,697.7,385.7,694.8,384z"/>
		</g>
		<g>
			<g>
				<g>
					<g>
						<path class="st3" d="M753,390.3c-9.1,0-15.9-6.3-15.9-15.5c0-9.4,6.8-15.3,15.9-15.3c9.2,0,16,5.9,16,15.3
							C768.9,384,762.1,390.3,753,390.3z M753,365.9c-5,0-8.4,3.8-8.4,8.9c0,5.3,3.4,9.1,8.4,9.1s8.4-3.8,8.4-9.1
							C761.4,369.7,757.9,365.9,753,365.9z"/>
					</g>
				</g>
			</g>
		</g>
		<g>
			<g>
				<path class="st3" d="M792.3,367.9c-1.2-1.5-3.4-2.5-5.2-2.5s-4.1,0.6-4.1,2.9c0,1.9,1.7,2.6,4.5,3.4c4,1.3,9.1,3,9.1,8.8
					c0,6.7-5.4,9.8-11.2,9.8c-4.2,0-8.4-1.5-11-4.2l4.6-4.7c1.4,1.8,4,3.1,6.3,3.1c2.2,0,4.1-0.8,4.1-3.2c0-2.2-2.2-2.9-6.1-4.2
					c-3.7-1.2-7.5-3.1-7.5-8.4c0-6.5,5.9-9.2,11.3-9.2c3.3,0,7,1.2,9.6,3.6L792.3,367.9z"/>
			</g>
		</g>
		<g>
			<g>
				<path class="st3" d="M821.6,389.5l-6.3-11.6h-2.4v11.6h-6.9v-29.3H817c5.6,0,11.2,2.2,11.2,8.8c0,3.9-2.3,6.7-6.1,7.9l7.6,12.5
					H821.6z M816.6,366h-3.8v6.8h3.3c2.3,0,5.1-0.6,5.1-3.6C821.3,366.5,818.7,366,816.6,366z"/>
			</g>
		</g>
		<g>
			<g>
				<g>
					<g>
						<path class="st3" d="M847.9,389.5H837v-29.3h10.6c8.3,0,16.7,3.5,16.7,14.6C864.4,385.1,856,389.5,847.9,389.5z M847.4,366.3
							h-3.5v17.1h3.3c5,0,9.7-2.1,9.7-8.6C857,368.3,852.3,366.3,847.4,366.3z"/>
					</g>
				</g>
			</g>
		</g>
	</g>
	<line class="st0" x1="962.1" y1="917.4" x2="962.1" y2="832.5"/>
	<line class="st0" x1="156.3" y1="832.5" x2="156.3" y2="877.4"/>
	<line class="st0" x1="962.1" y1="950.1" x2="962.1" y2="935.2"/>
	<line class="st0" x1="156.3" y1="895.2" x2="156.3" y2="950.1"/>
	<g>
		<g>
			<path class="st4" d="M372.9,545.3c21-17.2,47.9-27.5,77.1-27.5h90.6"/>
			<g>
				<polygon class="st3" points="524,538.2 520.6,534.6 538.7,517.8 520.6,501 524,497.4 546,517.8 				"/>
			</g>
		</g>
	</g>
	<path class="st5" d="M328,673.8v-34c0-28.4,9.7-54.5,25.9-75.2"/>
	<path class="st5" d="M328,694.1L328,694.1c0,24.3-19.7,44-44,44h-12.3"/>
	<line class="st5" x1="365.1" y1="552.7" x2="362.7" y2="555.1"/>
	<g>
		<g>
			<line class="st4" x1="72.7" y1="641.2" x2="72.7" y2="695.7"/>
			<g>
				<polygon class="st3" points="52.2,679.1 55.9,675.7 72.7,693.8 89.4,675.7 93.1,679.1 72.7,701.1 				"/>
			</g>
		</g>
	</g>
</g>
<g>
	<path class="st3" d="M61.3,536.7c0.2,1.8,1.6,3,3.4,3c1.6,0,2.6-0.7,3.4-1.7l2.2,1.7c-1.5,1.8-3.3,2.5-5.3,2.5
		c-3.8,0-6.8-2.6-6.8-6.5c0-3.9,3-6.5,6.8-6.5c3.5,0,5.8,2.4,5.8,6.8v0.9H61.3z M65.7,527.2h-2.4l-3.7-3.7h3.5L65.7,527.2z
		 M67.7,534.3c0-1.8-1.2-3-3.2-3c-1.8,0-3,1.2-3.2,3H67.7z"/>
	<path class="st3" d="M73.5,529.4h3v1.9h0.1c0.5-1.2,1.7-2.3,3.8-2.3c1.9,0,3.2,0.8,3.9,2.3c0.9-1.6,2.2-2.3,4.1-2.3
		c3.3,0,4.5,2.4,4.5,5.3v7.4h-3.1v-7.1c0-1.6-0.5-2.9-2.3-2.9c-1.9,0-2.7,1.6-2.7,3.2v6.8h-3.1v-7.4c0-1.5-0.6-2.5-2.1-2.5
		c-2.1,0-2.9,1.5-2.9,3.2v6.8h-3.1V529.4z"/>
	<path class="st3" d="M98.8,536.7c0.2,1.8,1.6,3,3.4,3c1.6,0,2.6-0.7,3.4-1.7l2.2,1.7c-1.5,1.8-3.3,2.5-5.3,2.5
		c-3.8,0-6.8-2.6-6.8-6.5c0-3.9,3-6.5,6.8-6.5c3.5,0,5.8,2.4,5.8,6.8v0.9H98.8z M105.2,534.3c0-1.8-1.2-3-3.2-3c-1.8,0-3,1.2-3.2,3
		H105.2z"/>
</g>
</svg>
