<?xml version="1.0" encoding="utf-8"?>
<!-- Generator: Adobe Illustrator 22.1.0, SVG Export Plug-In . SVG Version: 6.00 Build 0)  -->
<svg version="1.1" xmlns="http://www.w3.org/2000/svg" xmlns:xlink="http://www.w3.org/1999/xlink" x="0px" y="0px"
	 viewBox="0 0 88.1 86" style="enable-background:new 0 0 88.1 86;" xml:space="preserve">
<style type="text/css">
	.st0{fill:#FFFFFF;}
</style>
<g id="fond">
</g>
<g id="images">
</g>
<g id="txt">
	<g>
		<path class="st0" d="M27.2,19.9c0.1,0.2,0.2,0.4,0.3,0.6c0.1,0.2,0.3,0.3,0.4,0.5c0.6,0.6,1.5,1,2.3,1c0.2,0,0.4,0,0.6-0.1
			c0.2-0.1,0.4-0.1,0.6-0.2c0.2-0.1,0.4-0.2,0.6-0.3c0.2-0.1,0.4-0.2,0.5-0.4c0.2-0.2,0.3-0.3,0.4-0.5c0.1-0.2,0.2-0.4,0.3-0.6
			c0.1-0.2,0.2-0.4,0.2-0.6c0-0.2,0.1-0.4,0.1-0.7c0-0.9-0.4-1.7-1-2.3c-0.1-0.2-0.3-0.3-0.5-0.4c-0.2-0.1-0.4-0.2-0.6-0.3
			c-0.2-0.1-0.4-0.1-0.6-0.2c-1.1-0.2-2.2,0.1-3,0.9c-0.6,0.6-1,1.5-1,2.3c0,0.2,0,0.5,0,0.7C27,19.5,27.1,19.7,27.2,19.9"/>
		<path class="st0" d="M30.2,28.1c-1.8,0-3.3,1.5-3.3,3.3s1.5,3.3,3.3,3.3c1.8,0,3.3-1.5,3.3-3.3S32.1,28.1,30.2,28.1"/>
		<path class="st0" d="M30.2,40.9c-1.8,0-3.3,1.5-3.3,3.3c0,1.8,1.5,3.3,3.3,3.3c1.8,0,3.3-1.5,3.3-3.3
			C33.6,42.4,32.1,40.9,30.2,40.9"/>
		<path class="st0" d="M29.6,60.3c0.2,0,0.4,0.1,0.6,0.1c0.2,0,0.4,0,0.6-0.1c0.2-0.1,0.4-0.1,0.6-0.2c0.2-0.1,0.4-0.2,0.6-0.3
			c0.2-0.1,0.4-0.3,0.5-0.4c0.2-0.2,0.3-0.4,0.4-0.5c0.1-0.2,0.2-0.4,0.3-0.6c0.1-0.2,0.2-0.4,0.2-0.6c0-0.2,0.1-0.5,0.1-0.7
			c0-0.9-0.4-1.7-1-2.3c-0.1-0.2-0.3-0.3-0.5-0.4c-0.2-0.1-0.4-0.2-0.6-0.3c-0.2-0.1-0.4-0.2-0.6-0.2c-0.4-0.1-0.9-0.1-1.3,0
			c-0.2,0-0.4,0.1-0.6,0.2c-0.2,0.1-0.4,0.2-0.6,0.3c-0.2,0.1-0.4,0.3-0.5,0.4c-0.6,0.6-1,1.5-1,2.3c0,0.2,0,0.5,0,0.7
			c0.1,0.2,0.1,0.4,0.2,0.6c0.1,0.2,0.2,0.4,0.3,0.6c0.1,0.2,0.3,0.4,0.4,0.5c0.1,0.1,0.3,0.3,0.5,0.4c0.2,0.1,0.4,0.2,0.6,0.3
			C29.2,60.2,29.4,60.2,29.6,60.3"/>
		<path class="st0" d="M57.8,71.7c1.8,0,3.3-1.5,3.3-3.3c0-1.8-1.5-3.3-3.3-3.3c-1.8,0-3.3,1.5-3.3,3.3C54.5,70.2,56,71.7,57.8,71.7
			"/>
		<path class="st0" d="M57.8,26.2c2.9,0,5.3-2.4,5.3-5.3c0-2.9-2.4-5.3-5.3-5.3c-2.9,0-5.3,2.4-5.3,5.3
			C52.5,23.9,54.9,26.2,57.8,26.2"/>
		<path class="st0" d="M1.3,85.7C1.7,85.9,2.2,86,2.7,86c0.5,0,0.9-0.1,1.3-0.4l26.3-14.9l26.3,14.9c0.8,0.5,1.8,0.5,2.6,0L86.7,70
			c0.8-0.5,1.4-1.4,1.4-2.3v-65c0-0.9-0.5-1.8-1.3-2.3c-0.8-0.5-1.8-0.5-2.6,0L71.9,7.3c-3.6-3.7-8.6-6-14.1-6
			c-5.5,0-10.5,2.3-14.1,6L31.5,0.3c-0.8-0.5-1.8-0.5-2.6,0L1.4,16C0.5,16.5,0,17.4,0,18.3v65C0,84.3,0.5,85.2,1.3,85.7 M57.8,10.3
			c5.9,0,10.6,4.8,10.6,10.6c0,5.9-4.8,10.6-10.6,10.6c-5.9,0-10.6-4.8-10.6-10.6C47.2,15.1,51.9,10.3,57.8,10.3 M5.3,19.9L30.2,5.7
			l10.3,5.9c-1.5,2.8-2.4,6-2.4,9.4c0,3.9,1.1,7.5,3.1,10.5L57.8,59l16.6-27.6c1.9-3,3.1-6.6,3.1-10.5c0-3.4-0.9-6.6-2.4-9.4
			l7.6-4.3v58.9L57.8,80.3L31.5,65.3c-0.4-0.2-0.9-0.3-1.3-0.3c-0.5,0-0.9,0.1-1.3,0.3L5.3,78.8V19.9z"/>
	</g>
</g>
<g id="logo">
</g>
<g id="taille-ecran">
</g>
</svg>
