<?xml version="1.0" encoding="utf-8"?>
<!-- Generator: Adobe Illustrator 22.1.0, SVG Export Plug-In . SVG Version: 6.00 Build 0)  -->
<svg version="1.1" xmlns="http://www.w3.org/2000/svg" xmlns:xlink="http://www.w3.org/1999/xlink" x="0px" y="0px"
	 viewBox="0 0 88.1 86" style="enable-background:new 0 0 88.1 86;" xml:space="preserve">
<style type="text/css">
	.st0{fill:#1D1D1B;}
</style>
<g id="fond">
</g>
<g id="images">
</g>
<g id="txt">
	<g>
		<path class="st0" d="M30.2,21c0.2,0,0.4,0,0.7-0.1c0.2-0.1,0.4-0.1,0.6-0.2c0.2-0.1,0.4-0.2,0.6-0.3c0.2-0.1,0.4-0.2,0.5-0.4
			c0.6-0.6,1-1.5,1-2.4c0-0.9-0.4-1.7-1-2.3c-0.2-0.2-0.4-0.3-0.5-0.4c-0.2-0.1-0.4-0.2-0.6-0.3c-0.2-0.1-0.4-0.2-0.6-0.2
			c-1.1-0.2-2.2,0.1-3,0.9c-0.6,0.6-1,1.5-1,2.3s0.3,1.8,1,2.4C28.5,20.6,29.4,21,30.2,21"/>
		<path class="st0" d="M30.2,33.8c1.8,0,3.3-1.5,3.3-3.3s-1.5-3.3-3.3-3.3c-1.8,0-3.3,1.5-3.3,3.3S28.4,33.8,30.2,33.8"/>
		<path class="st0" d="M30.2,46.5c1.8,0,3.3-1.5,3.3-3.3s-1.5-3.3-3.3-3.3c-1.8,0-3.3,1.5-3.3,3.3S28.4,46.5,30.2,46.5"/>
		<path class="st0" d="M29.6,59.3c0.2,0,0.4,0.1,0.6,0.1c0.9,0,1.7-0.4,2.4-1c0.6-0.6,1-1.5,1-2.4c0-0.9-0.4-1.7-1-2.3
			c-0.1-0.2-0.3-0.3-0.5-0.4c-0.2-0.1-0.4-0.2-0.6-0.3c-0.2-0.1-0.4-0.2-0.6-0.2c-1.1-0.2-2.2,0.1-3,0.9c-0.6,0.6-1,1.5-1,2.3
			c0,0.2,0,0.4,0.1,0.7c0,0.2,0.1,0.4,0.2,0.6c0.1,0.2,0.2,0.4,0.3,0.6c0.1,0.2,0.3,0.4,0.4,0.5c0.1,0.1,0.3,0.3,0.5,0.4
			c0.2,0.1,0.4,0.2,0.6,0.3C29.2,59.2,29.4,59.3,29.6,59.3"/>
		<path class="st0" d="M57.8,59.4c1.8,0,3.3-1.5,3.3-3.3c0-1.8-1.5-3.3-3.3-3.3c-1.9,0-3.3,1.5-3.3,3.3C54.5,57.9,56,59.4,57.8,59.4
			"/>
		<path class="st0" d="M57.8,46.1c1.8,0,3.3-1.5,3.3-3.3c0-1.8-1.5-3.3-3.3-3.3c-1.9,0-3.3,1.5-3.3,3.3C54.5,44.6,56,46.1,57.8,46.1
			"/>
		<path class="st0" d="M57.8,72.7c1.8,0,3.3-1.5,3.3-3.3c0-1.8-1.5-3.3-3.3-3.3c-1.9,0-3.3,1.5-3.3,3.3C54.5,71.2,56,72.7,57.8,72.7
			"/>
		<path class="st0" d="M57.8,32.8c1.8,0,3.3-1.5,3.3-3.3c0-1.8-1.5-3.3-3.3-3.3c-1.9,0-3.3,1.5-3.3,3.3C54.5,31.3,56,32.8,57.8,32.8
			"/>
		<path class="st0" d="M1.3,85.6C1.7,85.9,2.2,86,2.7,86c0.5,0,0.9-0.1,1.3-0.4l26.3-14.9l26.3,14.9c0.8,0.5,1.8,0.5,2.6,0L86.7,70
			c0.8-0.5,1.4-1.4,1.4-2.3v-65c0-0.9-0.5-1.8-1.3-2.3c-0.8-0.5-1.8-0.5-2.6,0L57.8,15.3L31.5,0.3c-0.8-0.5-1.8-0.5-2.6,0L1.4,16
			C0.5,16.5,0,17.4,0,18.3v65C0,84.3,0.5,85.2,1.3,85.6 M5.3,19.9L30.2,5.7l26.3,14.9c0.8,0.5,1.8,0.5,2.6,0L82.7,7.2v58.9
			L57.8,80.3L31.5,65.3c-0.4-0.2-0.9-0.3-1.3-0.3c-0.5,0-0.9,0.1-1.3,0.3L5.3,78.8V19.9z"/>
	</g>
</g>
<g id="logo">
</g>
<g id="taille-ecran">
</g>
</svg>
