<?xml version="1.0" encoding="utf-8"?>
<!-- Generator: Adobe Illustrator 22.1.0, SVG Export Plug-In . SVG Version: 6.00 Build 0)  -->
<svg version="1.1" xmlns="http://www.w3.org/2000/svg" xmlns:xlink="http://www.w3.org/1999/xlink" x="0px" y="0px"
	 viewBox="0 0 76.2 76.2" style="enable-background:new 0 0 76.2 76.2;" xml:space="preserve">
<style type="text/css">
	.st0{fill:#1D1D1B;}
</style>
<g id="fond">
</g>
<g id="images">
</g>
<g id="txt">
	<g>
		<path class="st0" d="M38.1,76.2c21,0,38.1-17.1,38.1-38.1S59.2,0,38.1,0C17.1,0,0,17.1,0,38.1S17.1,76.2,38.1,76.2 M38.1,8
			c16.6,0,30.1,13.5,30.1,30.1c0,16.6-13.5,30.1-30.1,30.1C21.5,68.3,8,54.7,8,38.1C8,21.5,21.5,8,38.1,8"/>
		<path class="st0" d="M22.6,55.9l23-8.1c1.1-0.4,1.9-1.2,2.3-2.3l8.1-23c0.5-1.5-0.9-2.9-2.4-2.4l-23,8.1c-1,0.4-1.9,1.2-2.2,2.2
			l-8.1,23C19.8,55.1,21.2,56.5,22.6,55.9 M38.1,32.8c2.9,0,5.3,2.4,5.3,5.3c0,2.9-2.4,5.3-5.3,5.3c-2.9,0-5.3-2.4-5.3-5.3
			C32.8,35.2,35.2,32.8,38.1,32.8"/>
	</g>
</g>
<g id="logo">
</g>
<g id="taille-ecran">
</g>
</svg>
