<?xml version="1.0" encoding="utf-8"?>
<!-- Generator: Adobe Illustrator 22.1.0, SVG Export Plug-In . SVG Version: 6.00 Build 0)  -->
<svg version="1.1" xmlns="http://www.w3.org/2000/svg" xmlns:xlink="http://www.w3.org/1999/xlink" x="0px" y="0px"
	 viewBox="0 0 79.4 83.7" style="enable-background:new 0 0 79.4 83.7;" xml:space="preserve">
<style type="text/css">
	.st0{fill:#FFFFFF;}
</style>
<g id="fond">
</g>
<g id="images">
</g>
<g id="txt">
	<g>
		<path class="st0" d="M39,77.7c4.8,0,9.4-0.9,13.9-2.6c1.7,0.6,22.9,8.3,22.9,8.3c1.1,0.4,2.3,0.1,3-0.9c0.4-0.5,0.5-1.1,0.5-1.6
			c0-0.5-0.1-1.1-0.5-1.5c0,0-8.6-12.3-10.6-15.1c6.2-7.1,9.7-16.1,9.7-25.6C78.1,17.4,60.5,0,39,0C17.5,0,0,17.4,0,38.9
			C0,60.3,17.5,77.7,39,77.7 M39,5.3c18.6,0,33.7,15.1,33.7,33.5c0,8.8-3.4,17.2-9.6,23.5c-0.5,0.5-0.8,1.2-0.8,1.9
			c0,0.5,0.2,1.1,0.5,1.5c0,0,3.5,5.1,6.9,9.8c-7-2.6-15.8-5.8-15.8-5.8c-0.6-0.2-1.3-0.2-1.9,0c-4.1,1.7-8.4,2.5-12.9,2.5
			c-18.6,0-33.7-15-33.7-33.5C5.4,20.4,20.5,5.3,39,5.3"/>
		<path class="st0" d="M22.6,32.1c0.3,0.3,0.7,0.5,1.1,0.6c0.4,0.2,0.9,0.2,1.3,0.2c0.5,0,0.9-0.1,1.3-0.2c0.4-0.1,0.8-0.4,1.1-0.6
			c0.3-0.3,0.5-0.6,0.7-0.9c0.2-0.3,0.3-0.7,0.3-1.1c0-0.4-0.1-0.8-0.3-1.1c-0.2-0.3-0.4-0.7-0.7-0.9c-0.3-0.3-0.7-0.5-1.1-0.6
			c-0.4-0.1-0.9-0.2-1.3-0.2c-0.5,0-0.9,0.1-1.3,0.2c-0.4,0.1-0.8,0.4-1.1,0.6c-0.3,0.3-0.5,0.6-0.7,0.9c-0.2,0.3-0.3,0.7-0.3,1.1
			c0,0.4,0.1,0.8,0.3,1.1C22,31.5,22.2,31.8,22.6,32.1"/>
		<rect x="22" y="34.7" class="st0" width="5.9" height="16.5"/>
		<path class="st0" d="M35,49.9c0.9,0.7,2,1.1,3.1,1.4c1.1,0.3,2.3,0.4,3.4,0.4c1.2,0,2.3-0.1,3.3-0.3c1-0.2,2-0.4,3-0.8l-1.4-4
			c-0.6,0.3-1.2,0.5-1.9,0.7c-0.7,0.2-1.4,0.3-2.2,0.3c-0.9,0-1.7-0.1-2.2-0.3c-0.6-0.2-1.1-0.5-1.4-1c-0.3-0.4-0.6-0.9-0.7-1.5
			c-0.1-0.6-0.2-1.2-0.2-1.9c0-0.6,0.1-1.2,0.1-1.8c0.1-0.6,0.3-1.1,0.5-1.6c0.3-0.5,0.6-0.8,1-1.1c0.4-0.3,0.9-0.4,1.5-0.4
			c0.9,0,1.5,0.3,1.9,0.9c0.4,0.6,0.8,1.3,1.1,2.1l4.8-2.2c-0.5-0.9-1-1.7-1.6-2.3c-0.6-0.6-1.3-1-1.9-1.4c-0.7-0.3-1.4-0.6-2.1-0.7
			c-0.7-0.1-1.5-0.2-2.1-0.2c-1.5,0-2.9,0.2-4,0.7c-1.2,0.4-2.1,1.1-2.9,1.9c-0.8,0.8-1.3,1.7-1.7,2.8c-0.4,1.1-0.6,2.3-0.6,3.5
			c0,1.7,0.3,3.1,0.9,4.1C33.3,48.4,34,49.3,35,49.9"/>
		<path class="st0" d="M52.1,32.1c0.3,0.3,0.7,0.5,1.1,0.6c0.4,0.2,0.9,0.2,1.3,0.2c0.5,0,0.9-0.1,1.3-0.2c0.4-0.1,0.8-0.4,1.1-0.6
			c0.3-0.3,0.5-0.6,0.7-0.9c0.2-0.3,0.3-0.7,0.3-1.1c0-0.4-0.1-0.8-0.3-1.1c-0.2-0.3-0.4-0.7-0.7-0.9c-0.3-0.3-0.7-0.5-1.1-0.6
			c-0.4-0.1-0.9-0.2-1.3-0.2c-0.5,0-0.9,0.1-1.3,0.2c-0.4,0.1-0.8,0.4-1.1,0.6c-0.3,0.3-0.5,0.6-0.7,0.9c-0.2,0.3-0.3,0.7-0.3,1.1
			c0,0.4,0.1,0.8,0.3,1.1C51.5,31.5,51.8,31.8,52.1,32.1"/>
		<rect x="51.5" y="34.7" class="st0" width="5.9" height="16.5"/>
	</g>
</g>
<g id="logo">
</g>
<g id="taille-ecran">
</g>
</svg>
