<?xml version="1.0" encoding="utf-8"?>
<!-- Generator: Adobe Illustrator 22.1.0, SVG Export Plug-In . SVG Version: 6.00 Build 0)  -->
<svg version="1.1" xmlns="http://www.w3.org/2000/svg" xmlns:xlink="http://www.w3.org/1999/xlink" x="0px" y="0px"
	 viewBox="0 0 75.6 69.4" style="enable-background:new 0 0 75.6 69.4;" xml:space="preserve">
<style type="text/css">
	.st0{fill:#FFFFFF;}
</style>
<g id="fond">
</g>
<g id="images">
</g>
<g id="txt">
	<path class="st0" d="M23.5,69.4c6.3,0,12.2-2.4,16.6-6.9l29.9-29.9c7.3-7.3,7.3-19.2,0-26.5c-7.3-7.3-19.2-7.3-26.5,0L13.6,36
		c-5.5,5.5-5.5,14.4,0,19.9c2.7,2.7,6.2,4.1,9.9,4.1c3.8,0,7.3-1.5,9.9-4.1l28.5-28.5c1.1-1.1,1.1-2.9,0-4c-1.1-1.1-2.9-1.1-4,0
		L29.4,51.8c-3.1,3.2-8.6,3.2-11.8,0c-3.3-3.2-3.3-8.5,0-11.8l30-29.9c5.1-5.1,13.3-5.1,18.4,0c5.1,5.1,5.1,13.4,0,18.4L36.1,58.5
		c-3.4,3.4-7.8,5.2-12.6,5.2c-4.8,0-9.2-1.9-12.6-5.2c-3.4-3.4-5.2-7.8-5.2-12.6c0-4.7,1.9-9.2,5.2-12.6L39.4,4.9
		c1.1-1.1,1.1-2.9,0-4c-1.1-1.1-2.9-1.1-4,0L6.9,29.3C2.4,33.7,0,39.6,0,45.9s2.4,12.2,6.9,16.6C11.3,67,17.2,69.4,23.5,69.4"/>
</g>
<g id="logo">
</g>
<g id="taille-ecran">
</g>
</svg>
