<svg xmlns="http://www.w3.org/2000/svg" viewBox="0 0 646.2 128.4" style="enable-background:new 0 0 646.2 128.4" xml:space="preserve"><style>.st0{fill:#fff}</style><g id="txt"><path class="st0" d="M43.1 93.3c-2.2 9.1-3.3 19-3.3 29.7v5.4h18.5c-3-14.8-8.6-26.2-15.2-35.1zM0 64.4v22.3c3.4 1.3 7 3 10.6 5.2 9.6 5.9 16.8 14 21.7 24.4V81.6c-3.8-3.4-7.8-6.1-11.5-8.4-7.3-4.3-14.5-7.1-20.8-8.8zM39.8 78.2C44.6 65.6 51.7 54.6 61 45.4V0H39.8v78.2zM45.7 84.4c5.9 6.9 11.3 15.4 15.3 26V56.6c-6.7 8-11.8 17.3-15.3 27.8zM112.6 0h-44v38.6c13.2-10.5 27.7-16.2 39.8-19.3 2-.5 4.1.7 4.6 2.7s-.7 4-2.7 4.6c-12.7 3.3-28.3 9.7-41.7 22v35.5c3.2-7 7.5-13.1 12.7-18.4 10.5-10.5 23.5-15.8 34.1-18.5 2-.5 4.1.7 4.6 2.7s-.7 4.1-2.7 4.6c-5.3 1.4-11.3 3.5-17.2 6.7C78.9 72.7 68.6 92.9 68.6 123v5.4h44c8.7 0 15.8-7.1 15.8-15.8V15.8c0-8.7-7.1-15.8-15.8-15.8zM24.6 66.7c2.5 1.5 5.1 3.2 7.6 5.1V0H15.8C7.1 0 0 7.1 0 15.8v40.7c7.3 1.9 15.9 5 24.6 10.2zM6 97.9c-2-1.2-4.1-2.2-6-3.1v17.8c0 8.7 7.1 15.8 15.8 15.8h13C24.7 114.7 17.1 104.5 6 97.9zM225.6 122c-34.5 0-60.1-23.7-60.1-58.7 0-35.4 25.6-57.8 60.1-57.8 34.7 0 60.3 22.3 60.3 57.8 0 34.9-25.6 58.7-60.3 58.7zm0-92.4c-18.7 0-31.5 14.4-31.5 33.7 0 20 13 34.3 31.5 34.3s31.7-14.4 31.7-34.3c0-19.4-12.9-33.7-31.7-33.7zM374.1 37.2c-4.5-5.8-12.8-9.5-19.7-9.5-6.9 0-15.5 2.3-15.5 11.1 0 7.3 6.6 9.7 17 13 15 4.8 34.3 11.2 34.3 33.3 0 25.4-20.4 36.8-42.3 36.8-15.8 0-31.7-5.8-41.4-15.9L324 88.2c5.3 6.7 15.1 11.7 23.9 11.7 8.1 0 15.3-3.1 15.3-12 0-8.4-8.4-11.1-22.9-15.8-14-4.5-28.3-11.7-28.3-31.7 0-24.5 22.2-34.7 42.8-34.7 12.5 0 26.5 4.7 36.2 13.6l-16.9 17.9zM484.6 119l-23.9-43.9h-9.1V119h-26.2V8.5h42.1c21.2 0 42.3 8.1 42.3 33.4 0 14.8-8.7 25.4-22.9 29.8l28.9 47.3h-31.2zm-18.9-89h-14.2v25.8h12.6c8.6 0 19.4-2.2 19.4-13.4 0-10.3-9.8-12.4-17.8-12.4zM584.2 119H543V8.5h40c31.4 0 63.2 13.1 63.2 54.9 0 38.9-31.5 55.6-62 55.6zm-1.8-87.7h-13.3v64.6h12.6c19 0 36.7-7.8 36.7-32.5 0-24.8-17.6-32.1-36-32.1z"/></g></svg>