<svg xmlns="http://www.w3.org/2000/svg" viewBox="0 0 101.7 99.7" style="enable-background:new 0 0 101.7 99.7" xml:space="preserve"><style>.st0{fill:#fff}</style><g id="logo"><path id="Devise_Républicaine_5_" class="st0" d="M35.9 95.8c.3 0 .6.2.4.8l-1.4.3c.3-.6.7-1.1 1-1.1m.7 2.2h-.3c-.4.4-.7.8-1.1.8s-.6-.2-.6-.8c0-.2 0-.4.1-.6l2.2-.8c.5-1-.1-1.5-.7-1.5-1.1 0-2.3 1.8-2.3 3.3 0 .7.4 1.1.9 1.1.7.1 1.3-.5 1.8-1.5m-.4-3.2 1.6-1.5v-.2h-.9l-1 1.6h.3zm-4.8 1h.8L31 99c-.1.3.1.6.3.6.7 0 1.8-.7 2.1-1.6h-.2c-.3.3-.9.8-1.4.8l1.1-3H34l.2-.5h-1.1l.4-1.2h-.4l-.8 1.2-.9.2v.3zm-1.1-.1c.1-.3-.1-.5-.3-.5-.7 0-1.4.6-1.7 1.4h.2c.2-.3.6-.6.9-.7l-1.2 3.2c-.1.3.1.5.3.5.6 0 1.3-.6 1.6-1.4h-.2c-.2.3-.6.6-.9.7l1.3-3.2zm.3-1.7c.3 0 .6-.3.6-.6s-.3-.6-.6-.6-.6.3-.6.6c0 .4.3.6.6.6m-7.1 5c-.2.4 0 .6.4.6.2 0 .3-.1.4-.3l.9-2.3c.4-.5 1.2-1 1.5-1 .3 0 .2.2.1.5L25.3 99c-.2.3.1.6.3.6.7 0 1.4-.6 1.7-1.4h-.2c-.2.3-.6.6-.9.7l1.1-2.3c.2-.3.2-.6.2-.8 0-.4-.2-.6-.6-.6-.6 0-1.1.6-1.8 1.4V96c0-.4-.2-.8-.5-.8s-.5.2-.7.5v.1c.4 0 .6.6.3 1.3l-.7 1.9zm0-2.8c.2-.5.1-1-.4-1s-.6.4-1.1 1.4V96c0-.4-.2-.8-.5-.8-.5 0-.9.7-1.2 1.4h.2c.2-.3.4-.5.6-.5.2 0 .3.3 0 1l-.8 1.9c-.2.4 0 .6.4.6.2 0 .3-.1.4-.3L22 97c.3-.3.5-.6.8-.9h.7zm-5-.4c.3 0 .6.2.4.8l-1.4.3c.2-.6.6-1.1 1-1.1m.8 2.2H19c-.4.4-.7.8-1.1.8-.4 0-.6-.2-.6-.8 0-.2 0-.4.1-.6l2.2-.8c.5-1-.1-1.5-.7-1.5-1.1 0-2.3 1.8-2.3 3.3 0 .7.4 1.1.9 1.1.6.1 1.2-.5 1.8-1.5M14 95.8h.8L13.6 99c-.1.3.1.6.3.6.7 0 1.8-.7 2.1-1.6h-.2c-.3.3-.9.8-1.4.8l1.1-3h1.1l.2-.5h-1.1l.4-1.2h-.4l-.8 1.2-.9.2v.3zm-4.1 2.5c0-1 1.1-2.3 1.7-2.3.2 0 .3 0 .4.1l-.7 1.7c-.4.5-1 1-1.2 1-.1 0-.2-.2-.2-.5m3.4-3.3h-.4l-.4.4h-.1C10.6 95.4 9 97.5 9 99c0 .4.3.7.7.7.5 0 1-.7 1.5-1.4v.3c-.1.8.2 1.2.6 1.2.5 0 .9-.7 1.2-1.4h-.2c-.2.3-.4.5-.6.5-.2 0-.3-.3 0-1l1.1-2.9zm-3.9 1.2c.2-.5.1-1-.4-1s-.6.4-1.1 1.4V96c0-.4-.2-.8-.5-.8-.5 0-.9.7-1.2 1.4h.2c.2-.3.4-.5.6-.5.2 0 .3.3 0 1L6.2 99c-.2.4 0 .6.4.6.2 0 .3-.1.4-.3l.9-2.3c.3-.3.5-.6.8-.9h.7zm-6.2 3.3.1-.3c-1.1-.2-1.2-.2-.8-1.4l.5-1.2h1.2c.6 0 .6.2.5.8H5l.7-1.9h-.4c-.3.5-.5.8-1.1.8H3l.6-1.7c.2-.6.3-.7 1-.7h.5c.8 0 .9.2.9 1h.3l.3-1.3H2.1l-.1.2c.9.2 1 .3.6 1.4l-1 2.6C1.2 98.9 1 99 0 99.2v.3h3.2zM25 85.7c.3 0 .6.2.4.8l-1.4.3c.3-.6.7-1.1 1-1.1m.8 2.3h-.3c-.4.4-.7.8-1.1.8-.4 0-.6-.2-.6-.8 0-.2 0-.4.1-.6l2.2-.8c.5-1-.1-1.5-.7-1.5-1.1 0-2.3 1.8-2.3 3.3 0 .7.4 1.1.9 1.1.7 0 1.3-.6 1.8-1.5m-.4-3.3 1.6-1.5V83h-.9l-1 1.6h.3zm-4.9 1h.8L20.1 89c-.1.3.1.6.3.6.7 0 1.8-.7 2.1-1.6h-.2c-.3.3-.9.8-1.4.8l1.1-3h1.1l.2-.5h-1.1l.4-1.2h-.4l-.8 1.2-.9.2v.2zm-.9-.1c.1-.3-.1-.5-.3-.5-.7 0-1.4.6-1.7 1.4h.2c.2-.3.6-.6.9-.7L17.4 89c-.1.3.1.5.3.5.6 0 1.3-.6 1.6-1.4h-.2c-.2.3-.6.6-.9.7l1.4-3.2zm.2-1.6c.3 0 .6-.3.6-.6s-.3-.6-.6-.6-.6.3-.6.6c.1.3.3.6.6.6m-4.3 4.8 2.3-5.9-.1-.1-1.4.2.3.2c.3.2.2.4-.1 1l-1.8 4.7c-.2.3.1.6.3.6.7 0 1.3-.6 1.6-1.4h-.2c-.2.3-.6.6-.9.7m-4.3-.5c0-1 1.1-2.3 1.7-2.3.2 0 .3 0 .4.1l-.7 1.7c-.4.5-1 1-1.2 1-.2-.1-.2-.3-.2-.5m3.4-3.4h-.4l-.4.4h-.1c-1.8 0-3.4 2.1-3.4 3.6 0 .4.3.7.7.7.5 0 1-.7 1.5-1.4v.3c-.1.8.2 1.2.6 1.2.5 0 .9-.7 1.2-1.4h-.2c-.2.3-.4.5-.6.5-.2 0-.3-.3 0-1l1.1-2.9zm-8.3 5.4c0-.4.4-.7 1-.9.2.1.5.2.9.4.6.2.9.3.9.5 0 .4-.7.7-1.6.7-.8-.2-1.2-.3-1.2-.7M8 87.7c-.3 0-.4-.2-.4-.5 0-.7.4-1.8 1-1.8.3 0 .4.2.4.5 0 .7-.4 1.8-1 1.8m1.8 2.2c0-.5-.5-.7-1.2-.9-.7-.2-1-.3-1-.5s.2-.4.4-.5c1.1-.1 1.7-1 1.7-1.8 0-.2-.1-.3-.1-.5h.9l.2-.5H9.3c-.2-.1-.4-.2-.6-.2-1.1 0-1.9 1-1.9 1.8 0 .6.4 1 .9 1.1-.5.3-.8.5-.8.8 0 .2.1.3.2.5-1.2.4-1.7.8-1.7 1.3 0 .6.8.8 1.6.8 1.6 0 2.8-.8 2.8-1.4m-5.7-3.5c.6 0 .6.2.5.8h.3l.7-1.9h-.3c-.3.5-.5.8-1.1.8H3l.6-1.6c.2-.6.3-.7 1-.7h.5c.8 0 .9.2.9 1h.3l.3-1.3H2.1l-.1.2c.9.3 1 .3.6 1.4l-1 2.6c-.4 1.1-.6 1.2-1.6 1.4v.3h5l.9-1.4h-.4c-.5.5-1.2 1-2.3 1-1.3 0-1.2 0-.7-1.2l.5-1.3 1.1-.1zm.7-3.4 1.5-1v-.2h-1l-.9 1.3.4-.1zm19.7-7.4c.3 0 .6.2.4.8l-1.4.3c.3-.7.7-1.1 1-1.1m.8 2.2H25c-.4.4-.7.8-1.1.8-.4 0-.6-.2-.6-.8 0-.2 0-.4.1-.6l2.2-.8c.5-1-.1-1.5-.7-1.5-1.1 0-2.3 1.8-2.3 3.3 0 .7.4 1.1.9 1.1.7.1 1.3-.5 1.8-1.5m-.5-3.2 1.6-1.5V73h-.9l-1 1.6h.3zm-4.6 1h.6l-1.2 3.2c-.1.3.1.6.3.6.7 0 1.8-.7 2.1-1.6h-.2c-.3.3-.9.8-1.4.8l1.1-3h1.1l.2-.5h-1.1l.4-1.2h-.4l-.7 1.2-.8.2v.3zm-.5.4c.2-.5.1-1-.4-1s-.6.4-1.1 1.4v-.6c0-.4-.2-.8-.5-.8-.5 0-.9.7-1.2 1.4h.2c.2-.3.4-.5.6-.5.2 0 .3.3 0 1l-.9 1.9c-.2.4 0 .6.4.6.2 0 .3-.1.4-.3l.9-2.3c.3-.3.5-.6.8-.9h.8zm-5-.4c.3 0 .6.2.4.8l-1.4.3c.2-.7.6-1.1 1-1.1m.8 2.2h-.3c-.4.4-.7.8-1.1.8-.4 0-.6-.2-.6-.8 0-.2 0-.4.1-.6l2.2-.8c.5-1-.1-1.5-.7-1.5-1.1 0-2.3 1.8-2.3 3.3 0 .7.4 1.1.9 1.1.6.1 1.2-.5 1.8-1.5m-5.6.9c-.2 0-.6-.2-.6-.4 0-.1.1-.3.2-.6l.4-1c.4-.5 1-1 1.3-1 .2 0 .4.2.4.4.1 1-.8 2.6-1.7 2.6m2.6-2.8c0-.7-.3-.9-.7-.9-.6 0-1.1.6-1.6 1.3l1.4-3.5-.1-.1-1.4.2v.1l.3.2c.3.2.2.4-.1 1l-1.5 3.7c-.1.3-.3.6-.3.7 0 .4.5.8 1 .8 1.1 0 3-2 3-3.5m-4.4-.5c.1-.3-.1-.4-.2-.4-.7 0-1.4.6-1.7 1.4h.2c.2-.3.6-.6.9-.7L6 78.9c-.1.3.1.5.3.5.6 0 1.3-.6 1.6-1.4h-.2c-.2.3-.6.6-.9.7l1.3-3.3zm.2-1.6c.3 0 .6-.3.6-.6s-.3-.6-.6-.6-.5.4-.5.7c0 .3.2.5.5.5m-3.2-.5h-3l-.1.3c.9.2 1 .3.6 1.4l-1 2.6C1.2 78.7 1 78.8 0 79v.2h4.5l1-1.7h-.4c-.6.6-1.2 1.4-2.2 1.4-.8 0-.9-.2-.5-1.3l1-2.6c.4-1.2.6-1.3 1.6-1.4l.1-.3z"/><path class="st0" d="M1.1 32.9V22.2h2.7l2.6 4.4L9 22.2h2.7v10.7H9.5v-7.7l-2.4 4H5.6l-2.4-4v7.7H1.1zM14.7 32.9V22.2h2.2v10.7h-2.2zM19.9 32.9V22.2h2.8l4.8 7.7v-7.7h2.2v10.7h-2.8l-4.8-7.7v7.7h-2.2zM32.7 32.9V22.2h2.2v10.7h-2.2zM36.9 31.5l1.6-1.5c.3.4.7.7 1.1 1 .4.3.9.4 1.3.4s.8-.1 1-.4c.3-.2.4-.5.4-.9 0-.5-.3-.9-.8-1.1-.5-.3-1.1-.5-1.7-.8-.6-.3-1.2-.7-1.7-1.1-.5-.5-.8-1.1-.8-2 0-.4.1-.8.3-1.2.2-.4.4-.7.7-1 .3-.3.7-.5 1.1-.7s.9-.3 1.4-.3c.8 0 1.5.2 2.1.5.6.4 1.2.8 1.6 1.3L43 25.1c-.3-.4-.7-.7-1-1s-.7-.4-1.2-.4c-.4 0-.7.1-.9.3-.3.2-.4.5-.4.8 0 .5.3.9.8 1.1.5.3 1.1.5 1.7.8.6.3 1.2.7 1.7 1.2s.8 1.2.8 2c0 .5-.1 1-.3 1.4-.2.4-.5.8-.8 1-.3.3-.7.5-1.1.7-.4.2-.9.2-1.4.2-.9 0-1.7-.2-2.3-.5-.7-.3-1.3-.7-1.7-1.2zM45.5 24.2v-2h8.8v2H51V33h-2.1v-8.8h-3.4zM56.2 32.9V22.2h6.2v1.9h-4.1v2.5h3.4v1.9h-3.4v2.7h4.1V33l-6.2-.1zm2.2-11.6-2-2.1h2.2l1.7 2.1h-1.9zM65 32.9V22.2h3.3c1.2 0 2.1.3 2.8.9.7.6 1 1.4 1 2.3 0 .7-.2 1.2-.5 1.7s-.7.9-1.3 1.1l3.3 4.8H71l-2.8-4.4h-1.1V33l-2.1-.1zm3.4-8.8h-1.2v2.7h1.2c.5 0 .8-.1 1.1-.4s.4-.6.4-1-.2-.7-.4-1c-.3-.2-.6-.3-1.1-.3zM75.1 32.9V22.2h6.2v1.9h-4.1v2.5h3.4v1.9h-3.4v2.7h4.1V33l-6.2-.1zM5.9 47.4c.6 0 1.2-.2 1.6-.4.5-.3.9-.6 1.2-1.1l1.7 1.3c-.5.7-1.1 1.2-1.9 1.6-.8.4-1.7.6-2.6.6-.9 0-1.6-.2-2.3-.5-.7-.3-1.3-.7-1.8-1.2S.9 46.6.6 45.9c-.3-.7-.4-1.4-.4-2.2s.2-1.5.4-2.2.7-1.3 1.2-1.8 1.1-.9 1.8-1.2c.7-.3 1.4-.5 2.3-.5 1 0 1.8.2 2.6.6.8.4 1.4.9 1.9 1.6l-1.7 1.3c-.3-.5-.7-.8-1.2-1.1-.5-.3-1-.4-1.6-.4-.5 0-1 .1-1.4.3-.4.2-.8.5-1.1.8-.3.3-.6.7-.7 1.2-.2.5-.3.9-.3 1.4s.1 1 .3 1.4c.1.5.3.9.6 1.2.3.3.7.6 1.1.8.5.2 1 .3 1.5.3zM12.3 49.1V38.4h2.2v4.3h5.4v-4.3H22v10.7h-2.2v-4.5h-5.4v4.5h-2.1zM23.7 49.1l4.1-10.7h2.8l4.1 10.7h-2.3l-1-2.8H27l-1 2.8h-2.3zm4-4.6h2.9l-1.5-4-1.4 4zM36.3 49.1V38.4h3.3c1.2 0 2.1.3 2.8.9s1 1.4 1 2.3c0 .7-.2 1.2-.5 1.7s-.7.9-1.3 1.1l3.3 4.8h-2.6l-2.8-4.4h-1.1v4.4l-2.1-.1zm3.4-8.8h-1.2V43h1.2c.5 0 .8-.1 1.1-.4.3-.3.4-.6.4-1s-.2-.7-.4-1c-.3-.2-.7-.3-1.1-.3zM51.2 47.4c.5 0 1-.1 1.4-.3.4-.2.8-.4 1.1-.7v-1.8H51v-2h4.9v4.6c-.5.7-1.2 1.2-2 1.6-.8.4-1.7.6-2.7.6-.9 0-1.7-.2-2.4-.5s-1.3-.7-1.8-1.2-.9-1.1-1.2-1.8c-.3-.7-.4-1.4-.4-2.2s.2-1.5.4-2.2c.3-.7.7-1.3 1.2-1.8s1.1-.9 1.8-1.2c.7-.3 1.5-.5 2.3-.5 1 0 1.8.2 2.6.6.8.4 1.4.9 1.9 1.6L54 41.5c-.3-.5-.7-.8-1.2-1.1-.5-.3-1-.4-1.6-.4-.5 0-1 .1-1.4.3-.4.2-.8.5-1.1.8-.3.3-.6.7-.7 1.2-.2.5-.3.9-.3 1.4s.1 1 .3 1.4c.2.5.4.8.8 1.2.3.3.7.6 1.2.8.2.2.7.3 1.2.3zM58.3 49.1V38.4h6.2v1.9h-4.1v2.5h3.4v1.9h-3.4v2.7h4.1v1.9l-6.2-.2zm4.1-11.6h-2l1.7-2.1h2.2l-1.9 2.1zM71 49.1V38.4h4.2c.9 0 1.6.2 2.3.4.7.3 1.3.7 1.8 1.2s.9 1.1 1.2 1.7c.3.7.4 1.3.4 2.1 0 .7-.2 1.4-.4 2.1-.3.7-.7 1.2-1.2 1.7s-1.1.9-1.8 1.2c-.7.3-1.5.4-2.3.4l-4.2-.1zm4.3-8.7h-2.1v6.8h2.1c.5 0 1-.1 1.4-.3.4-.2.8-.4 1.1-.7.3-.3.6-.7.7-1.1.2-.4.3-.9.3-1.3 0-.5-.1-.9-.3-1.3-.2-.4-.4-.8-.7-1.1s-.7-.6-1.1-.7c-.4-.2-.9-.3-1.4-.3zM83 49.1V38.4h6.2v1.9h-4.1v2.5h3.4v1.9h-3.4v2.7h4.1v1.9l-6.2-.2zM90.9 47.6l1.6-1.5c.3.4.7.7 1.1 1 .4.3.9.4 1.3.4s.8-.1 1-.4c.3-.2.4-.5.4-.9 0-.5-.3-.9-.8-1.1-.5-.3-1.1-.5-1.7-.8s-1.2-.7-1.7-1.1c-.5-.5-.8-1.1-.8-2 0-.4.1-.8.3-1.2.2-.4.4-.7.7-1 .3-.3.7-.5 1.1-.7s.9-.3 1.4-.3c.8 0 1.5.2 2.1.5s1.2.8 1.6 1.3L97 41.2c-.3-.4-.7-.7-1-1-.4-.3-.7-.4-1.2-.4-.4 0-.7.1-.9.3-.2.2-.4.5-.4.8 0 .5.3.9.8 1.1.5.3 1.1.5 1.7.8.6.3 1.2.7 1.7 1.2s.8 1.2.8 2c0 .5-.1 1-.3 1.4-.2.4-.5.8-.8 1-.3.3-.7.5-1.1.7s-.9.2-1.4.2c-.9 0-1.7-.2-2.3-.5-.7-.2-1.3-.6-1.7-1.2zM0 56.6v-2h8.8v2H5.5v8.8H3.3v-8.8H0zM10.7 65.3V54.6H14c1.2 0 2.1.3 2.8.9.7.6 1 1.4 1 2.3 0 .7-.2 1.2-.5 1.7s-.7.9-1.3 1.1l3.3 4.8h-2.6L14 60.9h-1.1v4.4h-2.2zm3.4-8.9h-1.2v2.7h1.2c.5 0 .8-.1 1.1-.4.3-.3.4-.6.4-1s-.2-.7-.4-1c-.3-.1-.7-.3-1.1-.3zM19.9 65.3 24 54.6h2.8l4.1 10.7h-2.3l-1-2.8h-4.3l-1 2.8h-2.4zm4-4.6h2.9l-1.5-4-1.4 4zM32.5 65.3V54.6h2.8l4.8 7.7v-7.7h2.2v10.7h-2.8l-4.8-7.7v7.7h-2.2zM44.3 63.8l1.6-1.5c.3.4.7.7 1.1 1 .4.3.9.4 1.3.4s.8-.1 1-.4c.3-.2.4-.5.4-.9 0-.5-.3-.9-.8-1.1s-1.1-.5-1.7-.8c-.6-.3-1.2-.7-1.7-1.1s-.8-1.1-.8-2c0-.4.1-.8.3-1.2.2-.4.4-.7.7-1 .3-.3.7-.5 1.1-.7s.9-.3 1.4-.3c.8 0 1.5.2 2.1.5s1.2.8 1.6 1.3l-1.6 1.4c-.3-.4-.7-.7-1-1-.4-.3-.7-.4-1.2-.4-.4 0-.7.1-.9.3-.2.2-.4.5-.4.8 0 .5.3.9.8 1.1.5.3 1.1.5 1.7.8.6.3 1.2.7 1.7 1.2s.8 1.2.8 2c0 .5-.1 1-.3 1.4-.2.4-.5.8-.8 1-.3.3-.7.5-1.1.7-.4.2-.9.2-1.4.2-.9 0-1.7-.2-2.3-.5-.6-.1-1.1-.6-1.6-1.2zM54.1 65.3V54.6h3.5c1.2 0 2.1.3 2.8.9.7.6 1 1.4 1 2.3 0 1-.4 1.8-1 2.3-.7.6-1.6.9-2.8.9h-1.4v4.4l-2.1-.1zm3.7-8.9h-1.5v2.7h1.5c.5 0 .8-.1 1.1-.4.3-.3.4-.6.4-1s-.2-.7-.4-1c-.3-.1-.7-.3-1.1-.3zM68.2 54.3c.9 0 1.6.2 2.3.5.7.3 1.3.7 1.8 1.2s.9 1.1 1.2 1.8c.3.7.4 1.4.4 2.2 0 .8-.2 1.5-.4 2.2-.3.7-.7 1.3-1.2 1.8s-1.1.9-1.8 1.2c-.7.3-1.5.5-2.3.5-.9 0-1.6-.2-2.3-.5-.7-.3-1.3-.7-1.8-1.2s-.9-1.1-1.2-1.8c-.3-.7-.4-1.4-.4-2.2 0-.8.2-1.5.4-2.2.3-.7.7-1.3 1.2-1.8s1.1-.9 1.8-1.2 1.5-.5 2.3-.5zm0 9.3c.5 0 1-.1 1.4-.3.4-.2.8-.5 1.1-.8.3-.3.6-.7.7-1.2.2-.5.3-.9.3-1.4s-.1-1-.3-1.4c-.2-.5-.4-.8-.7-1.2-.3-.3-.7-.6-1.1-.8-.4-.2-.9-.3-1.4-.3-.5 0-1 .1-1.4.3-.4.2-.8.5-1.1.8-.3.3-.6.7-.7 1.2-.2.5-.3.9-.3 1.4s.1 1 .3 1.4c.2.5.4.8.7 1.2.3.3.7.6 1.1.8.5.2.9.3 1.4.3zM76 65.3V54.6h3.3c1.2 0 2.1.3 2.8.9.7.6 1 1.4 1 2.3 0 .7-.2 1.2-.5 1.7s-.7.9-1.3 1.1l3.3 4.8H82L79.2 61h-1.1v4.4H76zm3.4-8.9h-1.2v2.7h1.2c.5 0 .8-.1 1.1-.4.3-.3.4-.6.4-1s-.2-.7-.4-1c-.2-.1-.6-.3-1.1-.3zM84.5 56.6v-2h8.8v2H90v8.8h-2.2v-8.8h-3.3zM94 63.8l1.6-1.5c.3.4.7.7 1.1 1 .4.3.9.4 1.3.4s.8-.1 1-.4c.3-.2.4-.5.4-.9 0-.5-.3-.9-.8-1.1-.5-.3-1.1-.5-1.7-.8-.6-.3-1.2-.7-1.7-1.1-.5-.5-.8-1.1-.8-2 0-.4.1-.8.3-1.2.2-.4.4-.7.7-1s.7-.5 1.1-.7.9-.3 1.4-.3c.8 0 1.5.2 2.1.5s1.2.8 1.6 1.3l-1.6 1.4c-.3-.4-.7-.7-1-1-.4-.3-.7-.4-1.2-.4-.4 0-.7.1-.9.3-.2.2-.4.5-.4.8 0 .5.3.9.8 1.1.5.3 1.1.5 1.7.8s1.2.7 1.7 1.2.8 1.2.8 2c0 .5-.1 1-.3 1.4-.2.4-.5.8-.8 1-.3.3-.7.5-1.1.7-.4.2-.9.2-1.4.2-.9 0-1.7-.2-2.3-.5-.6-.1-1.1-.6-1.6-1.2zM16.7 13.1l.5-.5c.3-.4.6-.7.9-1l.3-.3.1-.1c-.2.1-.2.2-.4.2-.1 0-.1-.1-.1-.1.1-.1.2-.2.3-.2-.1 0-.1-.1-.1-.1-.4-.1-.7.2-.9.4-.1.1-.1-.1-.2-.1-.4.2-.7.5-1.2.7v-.1c-.2.1-.3.2-.5.2-.3.1-.5.1-.7.1-.4.1-.7.1-1 .2h-.1c-.2.1-.4.1-.5.2l-.1.1c.2.2.1.3 0 .3-.2.1-.3.3-.5.4h-.1c-.2.2-.3.3-.5.4h-.1v-.1c0-.1.1-.1.1-.1.1-.1.1-.1.1-.2.1-.1.1-.1.1-.2v-.1H12c.2-.2.3-.3.5-.4 0 0-.1 0-.1-.1l.1-.1c-.1.1-.1.1-.2.1-.1.1-.1.2-.2.2h-.2v-.1s0-.1.1-.1v-.1s0-.1.1-.1v-.1l.2-.2c.1-.1.2-.1.3-.2l.1-.1c-.2.1-.3.1-.5.2H12l.2-.2c.1 0 .1 0 .1.1.9-.7 2.1-.5 3.1-.9.1-.1.2-.1.3-.2.2-.1.3-.2.4-.3.2-.2.4-.4.5-.7 0-.1-.1-.1-.1-.1-.4.4-.8.7-1.2.9-.6.3-1.2.3-1.8.4.1-.1.1-.1.2-.1 0-.1.1-.1.1-.2h.1l.1-.1c.1 0 .2-.1.1-.1-.1-.1-.3.1-.4 0 .1-.1.1-.2.1-.2h.1c0-.1.1-.1.1-.1.4-.3.8-.5 1.2-.7-.1 0-.2.1-.2.1.1 0 0-.1.1-.1.3-.1.6-.3.9-.4-.1 0-.2.1-.3 0 .1-.1.1-.1.2-.1v-.1l.1-.1c-.1 0-.1-.1-.1-.1.1-.1.1-.1.2-.1-.1 0-.1 0-.1-.1.1-.1.2-.2.4-.2l.3-.1.1-.1h-.1l-.1-.1c.2-.2.2-.5.3-.7-.1 0-.1 0-.1-.1-.3.3-.7.4-1.2.5h-.2c-.2.1-.4.1-.5-.1-.1-.1-.2-.2-.3-.2-.2-.2-.5-.3-.7-.4-.7-.2-1.4-.4-2.1-.3.2 1.4.6 1.3.9 1.3.5-.2.9-.3 1.4-.3-.1-.1-.2 0-.3 0-.4-.1-.8.1-1.2.2-.3.1-.5.2-.8.2-.2.1-.3.2-.5.2v-.1c.3-.4.6-.7 1.1-.7.5-.1 1 0 1.5.1.4.1.7.1 1.1.2.2 0 .2.2.3.3.2.1.4 0 .5.1 0-.1-.1-.1 0-.2.1-.2.2 0 .3-.1.2-.2-.2-.4-.3-.6 0-.1.1-.1.1-.1.2.2.4.4.7.6.2.1.5.2.4-.1-.2-.3-.4-.6-.7-.8v-.1c-.1 0-.1-.1-.1-.1v-.1c-.1-.1-.1-.2-.2-.3-.1-.1 0-.3-.1-.4s-.1-.3-.1-.5c-.1-.5-.2-.9-.3-1.3-.1-.5.3-1 .6-1.4.2-.4.4-.7.8-.9.1-.4.3-.6.5-.9.2-.3.6-.5.9-.6.3-.1.7-.3.7-.3H0v14.7h13.5c.5-.4 1.1-.6 1.8-.9.4-.1 1.1-.4 1.4-.7zm-4.3-2c-.1 0-.2.1-.2-.1.1-.2.2-.2.4-.2.1-.1.2-.1.2-.1.1.1.2.1.2.1-.1.3-.4.2-.6.3zm-4.2-.6c.3-.5.6-1 .8-1.5.4-.2.7-.5 1-.8.5-.5 1-1 1.6-1.2.2-.1.5-.1.7.1-.1.1-.2.1-.4.2-.1 0-.1 0-.1-.1l.1-.1c-.3.3-.7.5-.9.8-.2.3-.3.7-.7.7-.1.1.1-.1-.1-.1-.7.6-1.3 1.3-2 2zm2.3-1.8-.1.1-.1.1c-.1 0-.1 0-.1-.1.1-.1.1-.2.2-.3.1.1.1.2.1.2zm1.3 4.1c0 .1-.1.1-.1.1.1 0 .1 0 .1.1l-.2.2h-.1l-.1.1c-.1.1-.2 0-.2-.1l.2-.2.1-.1.1-.1h.2zm-.5-.2c-.1.1-.2.2-.3.2-.1.1-.3.1-.4.2h-.1c-.1.1-.2.2-.3.2 0 0-.1 0-.1.1l-.1.1-.1.1s0 .1-.1.1h.2-.1c-.1 0-.1.1-.2.1l-.2.2v.1-.1l.1-.1.1-.1.1-.1.1-.1.1-.1s0-.1.1-.1c0 0 0-.1.1-.1V13c.1-.1.1-.1.1-.2l-.1.1c-.1 0-.1 0-.1-.1l.1-.1.2-.2c.1 0 .1-.1.1-.1 0-.1.1-.1.1-.1.3-.3.7-.3 1.1-.4.2-.1.3.1.5 0 .1 0 .2 0 .3.1-.7.3-1 .5-1.2.6zm.6-1.9c-.1-.1.1 0 .1-.1h-.2l-.1-.1c-.2.1-.3.1-.5.1l-.6.3c-.3.1-.6.4-.9.5-.1 0-.1-.1-.1-.1.1-.1.2-.1.2-.2s0-.1-.1-.1c.2-.3.5-.5.8-.7v-.1l.3-.3.3-.3c0 .1-.1.1-.1 0-.1 0-.2.1-.4-.1.1-.1.1-.1.2-.1 0 0-.1 0-.1-.1-.1-.1.1-.1.2-.2s.3-.1.4-.1c-.2-.1-.4.1-.6-.1.2-.4.4-.7.7-.8.1 0 .1 0 .1.1 0 .2-.1.3-.2.3.2.1.5.1.7.2l-.1.1c.1.1.3.1.4.2-.1.1-.2 0-.3 0 .9.3 1.8.5 2.5 1-.6.3-1.3.5-1.9.6-.1 0-.2 0-.2-.1 0 .1 0 .1-.1.1s-.2 0-.3.1h-.1zM24.6.2s.1 0 .2.1c.2.1.3.2.4.2.2.1.4.3.5.5.1.1.2.3.1.4-.1.2-.1.4-.2.4-.2.1-.4.1-.6.1-.1 0-.2-.1-.4-.1.4 0 .8.2 1 .6.1.1.2.1.3.1.1 0 .1.1.1.1-.1.1-.1.1-.1.2h.1c.2-.1.1-.4.3-.3.2.1.2.3.1.4-.2.1-.3.2-.4.2-.1.1-.1.2 0 .2.1.1.1.2.2.4s.1.4.2.6c.1.4.2.8.2 1.3 0 .2-.1.4-.1.7l.3.6c.1.1.2.2.3.4.2.3.5.6.4.9-.1.2-.4.2-.6.3-.2.2-.1.4.1.5.2.3-.2.4-.4.5.1.1.2.1.2.1.1.2.2.2.1.4s-.5.3-.3.5c.1.2.1.4-.1.6-.1.3-.3.4-.5.4-.2.1-.4.1-.5.1-.1-.1-.1-.1-.2-.1-.5-.1-1-.2-1.4-.2-.2.1-.3.1-.4.1-.1.1-.3.2-.4.3l-.1.1s0 .1-.1.1v.1c.1-.1.1 0 0 .1v.1c-.1.2-.2.4-.2.5-.2.7-.1 1.2.1 1.3.1.1.9.3 1.5.6.3.2.5.2.7.4h15.6V.2h-16z"/><path class="st0" d="M25.5 5.5c.1.1.3.1.3.1-.1.2-.4.3-.6.5h-.1c-.1.1 0 .2-.1.2-.1-.1-.2 0-.3.1.1.1.3.2.4.2.1 0 .1.1.1.1s.1 0 .1-.1c.1 0 .1 0 .1.1v.1c-.1.1-.2.1-.4.1.2.1.5.1.7 0 .2-.1 0-.4.1-.5-.1 0 0-.1-.1-.1.1-.1.1-.2.2-.2 0 0 .1 0 .1-.1s-.1-.1-.1-.2c.2-.1.3-.3.3-.5-.1-.1-.3-.1-.4-.2-.2-.1-.3 0-.5.1-.2 0-.3.1-.4.1-.2.1-.4.2-.5.3.2-.1.4-.1.6-.2.2.1.4.1.5.1z"/></g></svg>