<svg xmlns="http://www.w3.org/2000/svg" xml:space="preserve" style="enable-background:new 0 0 491.9 163.1" viewBox="0 0 491.9 163.1"><g id="txt"><path d="M17.6 91.8H3.7V80.4h15.6l2.9-21.1h-14V47.8h15.6l4.1-29.9h11.6l-4.1 29.9h17l4.1-29.9h11.6L64 47.8h13.9v11.4H62.4l-2.9 21.1h13.9v11.4H57.8l-4.1 29.9H42.1l4.1-29.9h-17l-4.1 29.9H13.5l4.1-29.8zm16.1-32.5-2.9 21.1h17l2.9-21.1h-17zM121.2 34l-19.1 17.6-8.2-9.8 28.9-23.9h12.5v103.9h-14.1V34z" style="fill:#fff"/><path d="M174.7 17.9h34.9c20.1 0 38.3 7 38.3 30.1 0 26.1-19.5 30.8-41.5 30.8h-13.2v43h-18.5V17.9zm29.7 45c10.6 0 24.2-.6 24.2-14.7 0-12.8-12.2-14.5-22.2-14.5h-13.2v29.2h11.2zm102.4 49.2h-.4c-5 7.9-13.2 11.4-22.6 11.4-13.1 0-25.7-7.2-25.7-21.1 0-22.9 26.7-24.5 44.3-24.5h4.4V76c0-8.7-6.7-13.2-16.1-13.2-7.3 0-14.1 2.9-18.8 7.3l-9.2-9.2c7.8-7.9 18.8-11.3 29.9-11.3 30.1 0 30.1 21.7 30.1 31.7v40.5h-15.8v-9.7zm-1.1-21.9H302c-9.7 0-26.4.7-26.4 10.9 0 6.5 6.6 9.2 12.3 9.2 12 0 17.8-6.3 17.8-16.1v-4zm35.8-38.9h17.6v11.2h.3c3.8-8.1 11.6-12.9 20.8-12.9 2.2 0 4.3.4 6.3 1v17c-2.9-.7-5.7-1.3-8.5-1.3-16.6 0-18.9 13.9-18.9 17.8v37.7h-17.6V51.3zm66.1-34.4c6.5 0 11.4 4.5 11.4 10.6 0 6-5 10.6-11.4 10.6-6.5 0-11.2-5-11.2-10.6s4.7-10.6 11.2-10.6zm-8.7 34.4h17.6v70.4h-17.6V51.3zm75.4 19.6c-3.4-4.7-7.8-7.2-13.8-7.2-4.7 0-10.3 2.2-10.3 7.5 0 12.6 38 2.3 38 29.8 0 16.7-16 22.6-30.4 22.6-10.9 0-20.2-2.8-27.4-10.9l11.7-11c4.5 5 9.2 8.7 16.7 8.7 5.1 0 11.7-2.5 11.7-8.1 0-14.5-38-3.1-38-29.9 0-15.7 14.1-22.7 28.3-22.7 9.4 0 19.4 2.9 25.1 10.7l-11.6 10.5z" style="fill:#786abf"/></g></svg>