<svg xmlns="http://www.w3.org/2000/svg" viewBox="0 0 268.8 56.6" style="enable-background:new 0 0 268.8 56.6" xml:space="preserve"><style>.st0{fill:#fff}.st1{font-family:Arial-BoldMT}.st2{font-size:18.7876px}</style><g id="logo"><text transform="translate(93.475 22.892)"><tspan x="0" y="0" class="st0 st1 st2">Cofinancé par</tspan><tspan x="0" y="22.5" class="st0 st1 st2">l’Union européenne</tspan></text><path class="st0" d="M0 0v56.6h82.5V0H0zm56.1 18.8.7-2.1.7 2.1h2.2L57.8 20l.7 2.1-1.7-1.3-1.8 1.3.7-2.1-1.7-1.3h2.1zm-35.5 8.9h2.2l.7-2.1.7 2.1h2.2L24.5 29l.7 2.1-1.7-1.3-1.8 1.2.7-2.1-1.8-1.2zm7 12.2-1.7-1.3-1.7 1.3.7-2.1-1.9-1.2h2.2l.7-2.1.7 2.1h2.2l-1.7 1.3.5 2zM26.9 20l.7 2.1-1.7-1.3-1.7 1.3.7-2.1-1.9-1.2h2.2l.7-2.1.7 2.1h2.2L26.9 20zm7.2 26.5-1.7-1.3-1.7 1.3.7-2.1-1.7-1.3h2.2l.7-2.1.7 2.1h2.2l-1.7 1.3.3 2.1zm-.7-33 .7 2.1-1.7-1.3-1.7 1.3.7-2.1-1.7-1.3h2.2l.7-2.1.7 2.1h2.2l-2.1 1.3zM43 48.8l-1.7-1.3-1.7 1.3.7-2.1-1.7-1.3h2.2l.7-2.1.7 2.1h2.2l-1.7 1.3.3 2.1zm-.6-37.7.7 2.1-1.7-1.3-1.7 1.3.7-2.1-1.7-1.3h2.2l.7-2.1.7 2.1h2.2l-2.1 1.3zm9.5 35.4-1.7-1.3-1.7 1.3.7-2.1-1.7-1.3h2.2l.7-2.1.7 2.1H53l-1.7 1.3.6 2.1zm-.6-33 .7 2.1-1.7-1.3-1.7 1.3.7-2.1-1.7-1.3h2.2l.7-2.1.7 2.1H53l-1.7 1.3zm7.2 26.4-1.7-1.3-1.8 1.3.7-2.1-1.7-1.3h2.2l.7-2.1.7 2.1h2.2l-1.7 1.3.4 2.1zm2.4-8.9-1.7-1.3-1.8 1.3.6-2-1.7-1.3h2.2l.7-2.1.7 2.1h2.2L60.2 29l.7 2z"/></g></svg>