<svg xmlns="http://www.w3.org/2000/svg" viewBox="0 0 92.8 64.3" style="enable-background:new 0 0 92.8 64.3" xml:space="preserve"><style>.st0{fill:#fff}</style><g id="logo"><path class="st0" d="M91.9 19.4C65.5 2.5 25.9 0 8 0 5.4 0 3.3 0 1.7.1.7.2 0 .6 0 1.7v45.5c0 .8.6 1.5 1.4 1.5h81.2c.7 0 1.3-.1 1.7-1 0 0 8.2-25.7 8.4-26.2.2-1.1 0-1.6-.8-2.1zM25.1 37.2c-1.6 3.4-5.6 5-11.9 4.8-3.3 0-7.2-1.2-9-2.1l1.5-3.3c2.6 1.3 5.8 2 8.4 2.1 3 .1 5.1-.6 5.7-1.9.8-1.7-1.5-3-4.4-4.4-3.7-1.7-7.9-3.9-6.4-7.6 1.3-3.2 6.2-4.7 11.6-4.6 1.7 0 2.7.2 4.1.4l-1 3.1c-1.1-.3-2.1-.4-3.5-.5-2.7-.1-5.7.6-6.3 2.3-.5 1.4 1.5 2.2 4.5 3.6 3.9 1.9 8.6 4.1 6.7 8.1zm59.5-13.5H72.8L71.1 29H81l-1 3.2h-9.9l-2.6 8.1c-1 .5-5 1.7-9.4 1.7-6.8 0-11.6-3.3-12.4-8.1 0-.1-.1-.1-.2-.1s-.1 0-.2.1L43 41.7h-5c-1.6-6.1-4.7-11.8-7.7-16.2 0 0-3 9.3-3 9.4 0 .1-.1.1-.1.1-.1 0-.1 0-.2-.1-.5-1.3-1-2.3-2.8-3.6l3.5-10.8h4.6c3.8 4.7 6.9 10.5 8.4 14.9l4.7-14.9h4.3l-1.5 4.6c0 .1 0 .1.1.1s.2 0 .2-.1c3-3.2 7.5-5 12.8-5 1.7 0 3.4.1 4.8.3l-1.2 3.4c-1.1-.1-2.4-.2-3.7-.2-5.9 0-10.3 2.9-11 7.4-.3 1.9.2 3.6 1.3 4.9 1.5 1.8 4.2 2.5 7.5 2.5 1.5 0 3-.1 4.2-.4l5.6-17.6h16.6l-.8 3.3zM4.7 55.5H8c1.8 0 3.2.6 3.2 2.6 0 1.2-.6 2.1-1.9 2.4l2.2 3.6H9.3l-1.8-3.4h-.9v3.4H4.7v-8.6zm1.9 3.6h1.1c.7 0 1.6 0 1.6-1 0-.9-.8-1-1.5-1H6.6v2zM18.3 55.5h5.8v1.7h-3.9v1.6h3.7v1.7h-3.7v1.7h4.2v1.7h-6v-8.4zm2.9-2.3h2.5l-2.1 1.7H20l1.2-1.7zM35.7 57.6c-.3-.4-.9-.6-1.4-.6-.5 0-1.3.2-1.3.9 0 1.6 4 .6 4 3.6 0 1.9-1.5 2.8-3.3 2.8-1.1 0-2.1-.3-2.9-1.1l1.3-1.5c.4.5 1 .8 1.6.8.6 0 1.3-.3 1.3-.9 0-1.6-4-.7-4-3.6 0-1.8 1.6-2.8 3.3-2.8 1 0 1.9.3 2.6.9l-1.2 1.5zM44.2 55.5H50v1.7h-4v1.6h3.7v1.7H46v1.7h4.2v1.7h-6v-8.4zM60.2 55.5h1.6l3.7 8.6h-2.1l-.7-1.8h-3.3l-.7 1.8h-2.1l3.6-8.6zm.7 2.5-1 2.7H62L60.9 58zM79.2 60.8c0 2-1.2 3.5-3.6 3.5-2.4 0-3.6-1.5-3.6-3.5v-5.3h1.9v5.2c0 1.1.7 1.9 1.7 1.9s1.7-.8 1.7-1.9v-5.2h1.9v5.3z"/></g></svg>