<?xml version="1.0" encoding="utf-8"?>
<!-- Generator: Adobe Illustrator 22.1.0, SVG Export Plug-In . SVG Version: 6.00 Build 0)  -->
<svg version="1.1" xmlns="http://www.w3.org/2000/svg" xmlns:xlink="http://www.w3.org/1999/xlink" x="0px" y="0px" viewBox="0 0 351 71.2" style="enable-background: new 0 0 351 71.2" xml:space="preserve">
<style>.st0 {
  fill: #fff;
}

.st1 {
  fill: #c7b2de;
}

</style>
<g id="fond">
</g>
<g id="images">
</g>
<g id="txt">
	<g>
		<path class="st0" d="M17.7,17.1l-8.8,8.1l-4.6-5.5L18.4,8h7.2v46.6h-7.9V17.1z"></path>
		<path class="st0" d="M53.6,26.8h2c4.5,0,9.1-0.7,9.1-6.3c0-3.6-2.8-6.1-6.7-6.1c-3.2,0-5.9,1.9-7,5.1l-8.4-2.2c2-6.9,8.1-10,15-10
			c8,0,15,4.2,15,12.4c0,5-3,9.3-8,10.5v0.1c5.9,0.9,9.1,5.6,9.1,11.3c0,8.9-7.4,13.8-15.7,13.8c-7.6,0-14-3.2-16-10.9l8.4-2.2
			c1,3.8,3.4,6.1,7.6,6.1s7.8-3,7.8-7.3c0-6.1-5.5-7.1-10.3-7.1h-1.9V26.8z"></path>
		<path class="st1" d="M87.8,44.9c2.8,0,5.3,2.2,5.3,5c0,2.8-2.4,5.1-5.3,5.1c-2.8,0-5.3-2.2-5.3-5S84.9,44.9,87.8,44.9z"></path>
		<path class="st0" d="M115.2,17.1l-8.8,8.1l-4.6-5.5L115.9,8h7.2v46.6h-7.9V17.1z"></path>
		<path class="st0" d="M140.4,46.3l18.1-17.5c2.2-2.1,4.8-4.7,4.8-7.9c0-3.8-3.2-6.1-6.8-6.1c-3.9,0-6.7,2.5-7.2,6.3l-8.3-0.7
			c0.8-8.6,7-13.2,15.5-13.2c8.4,0,15.1,4.3,15.1,13.2c0,5.9-3,9.9-7.2,13.7L150,47.6h21.6v7.1h-31.2V46.3z"></path>
		<path class="st1" d="M185.3,44.9c2.8,0,5.3,2.2,5.3,5c0,2.8-2.4,5.1-5.3,5.1c-2.8,0-5.3-2.2-5.3-5S182.4,44.9,185.3,44.9z"></path>
		<path class="st0" d="M198.9,46.3L217,28.8c2.2-2.1,4.8-4.7,4.8-7.9c0-3.8-3.2-6.1-6.8-6.1c-3.9,0-6.7,2.5-7.2,6.3l-8.3-0.7
			c0.8-8.6,7-13.2,15.5-13.2c8.4,0,15.1,4.3,15.1,13.2c0,5.9-3,9.9-7.2,13.7l-14.4,13.4h21.6v7.1h-31.2V46.3z"></path>
		<path class="st0" d="M253.5,7.3c5.2,0,16.9,2,16.9,24.1c0,22.1-11.7,24.1-16.9,24.1s-16.9-2-16.9-24.1
			C236.6,9.3,248.3,7.3,253.5,7.3z M253.5,48c7.9,0,9-10.8,9-16.6c0-5.8-1.1-16.6-9-16.6s-9,10.8-9,16.6
			C244.5,37.2,245.6,48,253.5,48z"></path>
		<path class="st0" d="M276.9,46.3L295,28.8c2.2-2.1,4.8-4.7,4.8-7.9c0-3.8-3.2-6.1-6.8-6.1c-3.9,0-6.7,2.5-7.2,6.3l-8.3-0.7
			c0.8-8.6,7-13.2,15.5-13.2c8.4,0,15.1,4.3,15.1,13.2c0,5.9-3,9.9-7.2,13.7l-14.4,13.4h21.6v7.1h-31.2V46.3z"></path>
		<path class="st0" d="M326.6,26.8h2c4.5,0,9.1-0.7,9.1-6.3c0-3.6-2.8-6.1-6.7-6.1c-3.2,0-5.9,1.9-7,5.1l-8.4-2.2
			c2-6.9,8.1-10,15-10c8,0,15,4.2,15,12.4c0,5-3,9.3-8,10.5v0.1c5.9,0.9,9.1,5.6,9.1,11.3c0,8.9-7.4,13.8-15.7,13.8
			c-7.6,0-14-3.2-16-10.9l8.4-2.2c1,3.8,3.4,6.1,7.6,6.1s7.8-3,7.8-7.3c0-6.1-5.5-7.1-10.3-7.1h-1.9V26.8z"></path>
	</g>
</g>
<g id="logo">
</g>
<g id="taille-ecran">
</g>
</svg>
