<?xml version="1.0" encoding="utf-8"?>
<!-- Generator: Adobe Illustrator 22.1.0, SVG Export Plug-In . SVG Version: 6.00 Build 0)  -->
<svg version="1.1" xmlns="http://www.w3.org/2000/svg" xmlns:xlink="http://www.w3.org/1999/xlink" x="0px" y="0px" viewBox="0 0 646.2 128.4" style="enable-background: new 0 0 646.2 128.4" xml:space="preserve">
<style>.st0 {
  fill: #fff;
}

</style>
<g id="fond">
</g>
<g id="images">
</g>
<g id="txt">
	<g>
		<g>
			<path class="st0" d="M43.1,93.3c-2.2,9.1-3.3,19-3.3,29.7v5.4h18.5C55.3,113.6,49.7,102.2,43.1,93.3z"></path>
			<path class="st0" d="M0,64.4v22.3c3.4,1.3,7,3,10.6,5.2c9.6,5.9,16.8,14,21.7,24.4V81.6c-3.8-3.4-7.8-6.1-11.5-8.4
				C13.5,68.9,6.3,66.1,0,64.4z"></path>
			<path class="st0" d="M39.8,78.2C44.6,65.6,51.7,54.6,61,45.4V0H39.8V78.2z"></path>
			<path class="st0" d="M45.7,84.4C51.6,91.3,57,99.8,61,110.4V56.6C54.3,64.6,49.2,73.9,45.7,84.4z"></path>
			<path class="st0" d="M112.6,0h-44v38.6c13.2-10.5,27.7-16.2,39.8-19.3c2-0.5,4.1,0.7,4.6,2.7c0.5,2-0.7,4-2.7,4.6
				c-12.7,3.3-28.3,9.7-41.7,22v35.5c3.2-7,7.5-13.1,12.7-18.4c10.5-10.5,23.5-15.8,34.1-18.5c2-0.5,4.1,0.7,4.6,2.7
				c0.5,2-0.7,4.1-2.7,4.6c-5.3,1.4-11.3,3.5-17.2,6.7C78.9,72.7,68.6,92.9,68.6,123v5.4h44c8.7,0,15.8-7.1,15.8-15.8V15.8
				C128.4,7.1,121.3,0,112.6,0z"></path>
			<path class="st0" d="M24.6,66.7c2.5,1.5,5.1,3.2,7.6,5.1V0H15.8C7.1,0,0,7.1,0,15.8v40.7C7.3,58.4,15.9,61.5,24.6,66.7z"></path>
			<path class="st0" d="M6,97.9c-2-1.2-4.1-2.2-6-3.1v17.8c0,8.7,7.1,15.8,15.8,15.8h13C24.7,114.7,17.1,104.5,6,97.9z"></path>
		</g>
		<g>
			<path class="st0" d="M225.6,122c-34.5,0-60.1-23.7-60.1-58.7c0-35.4,25.6-57.8,60.1-57.8c34.7,0,60.3,22.3,60.3,57.8
				C285.9,98.2,260.3,122,225.6,122z M225.6,29.6c-18.7,0-31.5,14.4-31.5,33.7c0,20,13,34.3,31.5,34.3s31.7-14.4,31.7-34.3
				C257.3,43.9,244.4,29.6,225.6,29.6z"></path>
		</g>
		<g>
			<g>
				<path class="st0" d="M374.1,37.2c-4.5-5.8-12.8-9.5-19.7-9.5c-6.9,0-15.5,2.3-15.5,11.1c0,7.3,6.6,9.7,17,13
					c15,4.8,34.3,11.2,34.3,33.3c0,25.4-20.4,36.8-42.3,36.8c-15.8,0-31.7-5.8-41.4-15.9l17.5-17.8c5.3,6.7,15.1,11.7,23.9,11.7
					c8.1,0,15.3-3.1,15.3-12c0-8.4-8.4-11.1-22.9-15.8c-14-4.5-28.3-11.7-28.3-31.7c0-24.5,22.2-34.7,42.8-34.7
					c12.5,0,26.5,4.7,36.2,13.6L374.1,37.2z"></path>
			</g>
		</g>
		<g>
			<g>
				<path class="st0" d="M484.6,119l-23.9-43.9h-9.1V119h-26.2V8.5h42.1c21.2,0,42.3,8.1,42.3,33.4c0,14.8-8.7,25.4-22.9,29.8
					l28.9,47.3H484.6z M465.7,30h-14.2v25.8h12.6c8.6,0,19.4-2.2,19.4-13.4C483.5,32.1,473.7,30,465.7,30z"></path>
			</g>
		</g>
		<g>
			<path class="st0" d="M584.2,119H543V8.5h40c31.4,0,63.2,13.1,63.2,54.9C646.2,102.3,614.7,119,584.2,119z M582.4,31.3h-13.3v64.6
				h12.6c19,0,36.7-7.8,36.7-32.5C618.4,38.6,600.8,31.3,582.4,31.3z"></path>
		</g>
	</g>
</g>
<g id="logo">
</g>
<g id="taille-ecran">
</g>
</svg>
