<?xml version="1.0" encoding="utf-8"?>
<!-- Generator: Adobe Illustrator 22.1.0, SVG Export Plug-In . SVG Version: 6.00 Build 0)  -->
<svg version="1.1" xmlns="http://www.w3.org/2000/svg" xmlns:xlink="http://www.w3.org/1999/xlink" x="0px" y="0px" viewBox="0 0 268.8 56.6" style="enable-background: new 0 0 268.8 56.6" xml:space="preserve">
<style>.st0 {
  fill: #fff;
}

.st1 {
  font-family: Arial-BoldMT;
}

.st2 {
  font-size: 18.7876px;
}

</style>
<g id="fond">
</g>
<g id="images">
</g>
<g id="txt">
</g>
<g id="logo">
	<g>
		<text transform="matrix(1 0 0 1 93.4745 22.8917)"><tspan x="0" y="0" class="st0 st1 st2">Cofinancé par</tspan><tspan x="0" y="22.5" class="st0 st1 st2">l’Union européenne</tspan></text>
		<path class="st0" d="M0,0v56.6h82.5V0H0z M56.1,18.8l0.7-2.1l0.7,2.1h2.2L57.8,20l0.7,2.1l-1.7-1.3L55,22.1l0.7-2.1l-1.7-1.3H56.1
			z M20.6,27.7h2.2l0.7-2.1l0.7,2.1h2.2L24.5,29l0.7,2.1l-1.7-1.3L21.7,31l0.7-2.1L20.6,27.7z M27.6,39.9l-1.7-1.3l-1.7,1.3l0.7-2.1
			L23,36.6h2.2l0.7-2.1l0.7,2.1h2.2l-1.7,1.3L27.6,39.9z M26.9,20l0.7,2.1l-1.7-1.3l-1.7,1.3l0.7-2.1L23,18.8h2.2l0.7-2.1l0.7,2.1
			h2.2L26.9,20z M34.1,46.5l-1.7-1.3l-1.7,1.3l0.7-2.1l-1.7-1.3h2.2l0.7-2.1l0.7,2.1h2.2l-1.7,1.3L34.1,46.5z M33.4,13.5l0.7,2.1
			l-1.7-1.3l-1.7,1.3l0.7-2.1l-1.7-1.3h2.2l0.7-2.1l0.7,2.1h2.2L33.4,13.5z M43,48.8l-1.7-1.3l-1.7,1.3l0.7-2.1l-1.7-1.3h2.2
			l0.7-2.1l0.7,2.1h2.2l-1.7,1.3L43,48.8z M42.4,11.1l0.7,2.1l-1.7-1.3l-1.7,1.3l0.7-2.1l-1.7-1.3h2.2l0.7-2.1l0.7,2.1h2.2
			L42.4,11.1z M51.9,46.5l-1.7-1.3l-1.7,1.3l0.7-2.1l-1.7-1.3h2.2l0.7-2.1l0.7,2.1H53l-1.7,1.3L51.9,46.5z M51.3,13.5l0.7,2.1
			l-1.7-1.3l-1.7,1.3l0.7-2.1l-1.7-1.3h2.2l0.7-2.1l0.7,2.1H53L51.3,13.5z M58.5,39.9l-1.7-1.3L55,39.9l0.7-2.1l-1.7-1.3h2.2
			l0.7-2.1l0.7,2.1h2.2l-1.7,1.3L58.5,39.9z M60.9,31l-1.7-1.3L57.4,31L58,29l-1.7-1.3h2.2l0.7-2.1l0.7,2.1h2.2L60.2,29L60.9,31z"></path>
	</g>
</g>
<g id="taille-ecran">
</g>
</svg>
