<?xml version="1.0" encoding="utf-8"?>
<!-- Generator: Adobe Illustrator 22.1.0, SVG Export Plug-In . SVG Version: 6.00 Build 0)  -->
<svg version="1.1" xmlns="http://www.w3.org/2000/svg" xmlns:xlink="http://www.w3.org/1999/xlink" x="0px" y="0px" viewBox="0 0 101.7 99.7" style="enable-background: new 0 0 101.7 99.7" xml:space="preserve">
<style>.st0 {
  fill: #fff;
}

</style>
<g id="fond">
</g>
<g id="images">
</g>
<g id="txt">
</g>
<g id="logo">
	<g>
		<path id="Devise_Républicaine_5_" class="st0" d="M35.9,95.8c0.3,0,0.6,0.2,0.4,0.8l-1.4,0.3C35.2,96.3,35.6,95.8,35.9,95.8
			 M36.6,98h-0.3c-0.4,0.4-0.7,0.8-1.1,0.8s-0.6-0.2-0.6-0.8c0-0.2,0-0.4,0.1-0.6l2.2-0.8c0.5-1-0.1-1.5-0.7-1.5
			c-1.1,0-2.3,1.8-2.3,3.3c0,0.7,0.4,1.1,0.9,1.1C35.5,99.6,36.1,99,36.6,98 M36.2,94.8l1.6-1.5v-0.2h-0.9l-1,1.6H36.2z M31.4,95.8
			h0.8L31,99c-0.1,0.3,0.1,0.6,0.3,0.6c0.7,0,1.8-0.7,2.1-1.6h-0.2c-0.3,0.3-0.9,0.8-1.4,0.8l1.1-3H34l0.2-0.5h-1.1l0.4-1.2h-0.4
			l-0.8,1.2l-0.9,0.2L31.4,95.8L31.4,95.8z M30.3,95.7c0.1-0.3-0.1-0.5-0.3-0.5c-0.7,0-1.4,0.6-1.7,1.4h0.2c0.2-0.3,0.6-0.6,0.9-0.7
			l-1.2,3.2c-0.1,0.3,0.1,0.5,0.3,0.5c0.6,0,1.3-0.6,1.6-1.4h-0.2c-0.2,0.3-0.6,0.6-0.9,0.7L30.3,95.7z M30.6,94
			c0.3,0,0.6-0.3,0.6-0.6s-0.3-0.6-0.6-0.6c-0.3,0-0.6,0.3-0.6,0.6C30,93.8,30.3,94,30.6,94 M23.5,99c-0.2,0.4,0,0.6,0.4,0.6
			c0.2,0,0.3-0.1,0.4-0.3l0.9-2.3c0.4-0.5,1.2-1,1.5-1c0.3,0,0.2,0.2,0.1,0.5L25.3,99c-0.2,0.3,0.1,0.6,0.3,0.6
			c0.7,0,1.4-0.6,1.7-1.4h-0.2c-0.2,0.3-0.6,0.6-0.9,0.7l1.1-2.3c0.2-0.3,0.2-0.6,0.2-0.8c0-0.4-0.2-0.6-0.6-0.6
			c-0.6,0-1.1,0.6-1.8,1.4v-0.6c0-0.4-0.2-0.8-0.5-0.8c-0.3,0-0.5,0.2-0.7,0.5v0.1c0.4,0,0.6,0.6,0.3,1.3L23.5,99z M23.5,96.2
			c0.2-0.5,0.1-1-0.4-1c-0.5,0-0.6,0.4-1.1,1.4v-0.6c0-0.4-0.2-0.8-0.5-0.8c-0.5,0-0.9,0.7-1.2,1.4h0.2c0.2-0.3,0.4-0.5,0.6-0.5
			c0.2,0,0.3,0.3,0,1L20.3,99c-0.2,0.4,0,0.6,0.4,0.6c0.2,0,0.3-0.1,0.4-0.3l0.9-2.3c0.3-0.3,0.5-0.6,0.8-0.9H23.5z M18.5,95.8
			c0.3,0,0.6,0.2,0.4,0.8l-1.4,0.3C17.7,96.3,18.1,95.8,18.5,95.8 M19.3,98H19c-0.4,0.4-0.7,0.8-1.1,0.8c-0.4,0-0.6-0.2-0.6-0.8
			c0-0.2,0-0.4,0.1-0.6l2.2-0.8c0.5-1-0.1-1.5-0.7-1.5c-1.1,0-2.3,1.8-2.3,3.3c0,0.7,0.4,1.1,0.9,1.1C18.1,99.6,18.7,99,19.3,98
			 M14,95.8h0.8L13.6,99c-0.1,0.3,0.1,0.6,0.3,0.6c0.7,0,1.8-0.7,2.1-1.6h-0.2c-0.3,0.3-0.9,0.8-1.4,0.8l1.1-3h1.1l0.2-0.5h-1.1
			l0.4-1.2h-0.4l-0.8,1.2L14,95.5L14,95.8L14,95.8z M9.9,98.3c0-1,1.1-2.3,1.7-2.3c0.2,0,0.3,0,0.4,0.1l-0.7,1.7c-0.4,0.5-1,1-1.2,1
			C10,98.8,9.9,98.6,9.9,98.3 M13.3,95h-0.4l-0.4,0.4h-0.1c-1.8,0-3.4,2.1-3.4,3.6c0,0.4,0.3,0.7,0.7,0.7c0.5,0,1-0.7,1.5-1.4v0.3
			c-0.1,0.8,0.2,1.2,0.6,1.2c0.5,0,0.9-0.7,1.2-1.4h-0.2c-0.2,0.3-0.4,0.5-0.6,0.5c-0.2,0-0.3-0.3,0-1L13.3,95z M9.4,96.2
			c0.2-0.5,0.1-1-0.4-1c-0.5,0-0.6,0.4-1.1,1.4v-0.6c0-0.4-0.2-0.8-0.5-0.8c-0.5,0-0.9,0.7-1.2,1.4h0.2c0.2-0.3,0.4-0.5,0.6-0.5
			c0.2,0,0.3,0.3,0,1L6.2,99c-0.2,0.4,0,0.6,0.4,0.6c0.2,0,0.3-0.1,0.4-0.3l0.9-2.3c0.3-0.3,0.5-0.6,0.8-0.9H9.4z M3.2,99.5l0.1-0.3
			C2.2,99,2.1,99,2.5,97.8L3,96.6h1.2c0.6,0,0.6,0.2,0.5,0.8h0.3l0.7-1.9H5.3C5,96,4.8,96.3,4.2,96.3H3l0.6-1.7
			c0.2-0.6,0.3-0.7,1-0.7h0.5c0.8,0,0.9,0.2,0.9,1h0.3l0.3-1.3H2.1L2,93.8c0.9,0.2,1,0.3,0.6,1.4l-1,2.6c-0.4,1.1-0.6,1.2-1.6,1.4
			L0,99.5H3.2z M25,85.7c0.3,0,0.6,0.2,0.4,0.8l-1.4,0.3C24.3,86.2,24.7,85.7,25,85.7 M25.8,88h-0.3c-0.4,0.4-0.7,0.8-1.1,0.8
			c-0.4,0-0.6-0.2-0.6-0.8c0-0.2,0-0.4,0.1-0.6l2.2-0.8c0.5-1-0.1-1.5-0.7-1.5c-1.1,0-2.3,1.8-2.3,3.3c0,0.7,0.4,1.1,0.9,1.1
			C24.7,89.5,25.3,88.9,25.8,88 M25.4,84.7l1.6-1.5v-0.2h-0.9l-1,1.6H25.4z M20.5,85.7h0.8L20.1,89c-0.1,0.3,0.1,0.6,0.3,0.6
			c0.7,0,1.8-0.7,2.1-1.6h-0.2c-0.3,0.3-0.9,0.8-1.4,0.8l1.1-3h1.1l0.2-0.5h-1.1l0.4-1.2h-0.4l-0.8,1.2l-0.9,0.2L20.5,85.7
			L20.5,85.7z M19.6,85.6c0.1-0.3-0.1-0.5-0.3-0.5c-0.7,0-1.4,0.6-1.7,1.4h0.2c0.2-0.3,0.6-0.6,0.9-0.7L17.4,89
			c-0.1,0.3,0.1,0.5,0.3,0.5c0.6,0,1.3-0.6,1.6-1.4h-0.2c-0.2,0.3-0.6,0.6-0.9,0.7L19.6,85.6z M19.8,84c0.3,0,0.6-0.3,0.6-0.6
			s-0.3-0.6-0.6-0.6c-0.3,0-0.6,0.3-0.6,0.6C19.3,83.7,19.5,84,19.8,84 M15.5,88.8l2.3-5.9l-0.1-0.1l-1.4,0.2V83l0.3,0.2
			c0.3,0.2,0.2,0.4-0.1,1l-1.8,4.7c-0.2,0.3,0.1,0.6,0.3,0.6c0.7,0,1.3-0.6,1.6-1.4h-0.2C16.2,88.4,15.8,88.7,15.5,88.8 M11.2,88.3
			c0-1,1.1-2.3,1.7-2.3c0.2,0,0.3,0,0.4,0.1l-0.7,1.7c-0.4,0.5-1,1-1.2,1C11.2,88.7,11.2,88.5,11.2,88.3 M14.6,84.9h-0.4l-0.4,0.4
			h-0.1c-1.8,0-3.4,2.1-3.4,3.6c0,0.4,0.3,0.7,0.7,0.7c0.5,0,1-0.7,1.5-1.4v0.3c-0.1,0.8,0.2,1.2,0.6,1.2c0.5,0,0.9-0.7,1.2-1.4
			h-0.2c-0.2,0.3-0.4,0.5-0.6,0.5c-0.2,0-0.3-0.3,0-1L14.6,84.9z M6.3,90.3c0-0.4,0.4-0.7,1-0.9c0.2,0.1,0.5,0.2,0.9,0.4
			c0.6,0.2,0.9,0.3,0.9,0.5c0,0.4-0.7,0.7-1.6,0.7C6.7,90.8,6.3,90.7,6.3,90.3 M8,87.7c-0.3,0-0.4-0.2-0.4-0.5c0-0.7,0.4-1.8,1-1.8
			c0.3,0,0.4,0.2,0.4,0.5C9,86.6,8.6,87.7,8,87.7 M9.8,89.9c0-0.5-0.5-0.7-1.2-0.9c-0.7-0.2-1-0.3-1-0.5c0-0.2,0.2-0.4,0.4-0.5
			c1.1-0.1,1.7-1,1.7-1.8c0-0.2-0.1-0.3-0.1-0.5h0.9l0.2-0.5H9.3c-0.2-0.1-0.4-0.2-0.6-0.2c-1.1,0-1.9,1-1.9,1.8
			c0,0.6,0.4,1,0.9,1.1c-0.5,0.3-0.8,0.5-0.8,0.8c0,0.2,0.1,0.3,0.2,0.5c-1.2,0.4-1.7,0.8-1.7,1.3c0,0.6,0.8,0.8,1.6,0.8
			C8.6,91.3,9.8,90.5,9.8,89.9 M4.1,86.4c0.6,0,0.6,0.2,0.5,0.8h0.3l0.7-1.9H5.3c-0.3,0.5-0.5,0.8-1.1,0.8H3l0.6-1.6
			c0.2-0.6,0.3-0.7,1-0.7h0.5c0.8,0,0.9,0.2,0.9,1h0.3l0.3-1.3H2.1L2,83.7C2.9,84,3,84,2.6,85.1l-1,2.6c-0.4,1.1-0.6,1.2-1.6,1.4
			L0,89.4h5L5.9,88H5.5C5,88.5,4.3,89,3.2,89C1.9,89,2,89,2.5,87.8l0.5-1.3L4.1,86.4L4.1,86.4z M4.8,83L6.3,82v-0.2h-1l-0.9,1.3
			L4.8,83L4.8,83z M24.5,75.6c0.3,0,0.6,0.2,0.4,0.8l-1.4,0.3C23.8,76,24.2,75.6,24.5,75.6 M25.3,77.8H25c-0.4,0.4-0.7,0.8-1.1,0.8
			c-0.4,0-0.6-0.2-0.6-0.8c0-0.2,0-0.4,0.1-0.6l2.2-0.8c0.5-1-0.1-1.5-0.7-1.5c-1.1,0-2.3,1.8-2.3,3.3c0,0.7,0.4,1.1,0.9,1.1
			C24.2,79.4,24.8,78.8,25.3,77.8 M24.8,74.6l1.6-1.5V73h-0.9l-1,1.6H24.8z M20.2,75.6h0.6l-1.2,3.2c-0.1,0.3,0.1,0.6,0.3,0.6
			c0.7,0,1.8-0.7,2.1-1.6h-0.2c-0.3,0.3-0.9,0.8-1.4,0.8l1.1-3h1.1l0.2-0.5h-1.1l0.4-1.2h-0.4L21,75.1l-0.8,0.2L20.2,75.6L20.2,75.6
			z M19.7,76c0.2-0.5,0.1-1-0.4-1c-0.5,0-0.6,0.4-1.1,1.4v-0.6c0-0.4-0.2-0.8-0.5-0.8c-0.5,0-0.9,0.7-1.2,1.4h0.2
			c0.2-0.3,0.4-0.5,0.6-0.5c0.2,0,0.3,0.3,0,1l-0.9,1.9c-0.2,0.4,0,0.6,0.4,0.6c0.2,0,0.3-0.1,0.4-0.3l0.9-2.3
			c0.3-0.3,0.5-0.6,0.8-0.9H19.7z M14.7,75.6c0.3,0,0.6,0.2,0.4,0.8l-1.4,0.3C13.9,76,14.3,75.6,14.7,75.6 M15.5,77.8h-0.3
			c-0.4,0.4-0.7,0.8-1.1,0.8c-0.4,0-0.6-0.2-0.6-0.8c0-0.2,0-0.4,0.1-0.6l2.2-0.8c0.5-1-0.1-1.5-0.7-1.5c-1.1,0-2.3,1.8-2.3,3.3
			c0,0.7,0.4,1.1,0.9,1.1C14.3,79.4,14.9,78.8,15.5,77.8 M9.9,78.7c-0.2,0-0.6-0.2-0.6-0.4c0-0.1,0.1-0.3,0.2-0.6l0.4-1
			c0.4-0.5,1-1,1.3-1c0.2,0,0.4,0.2,0.4,0.4C11.7,77.1,10.8,78.7,9.9,78.7 M12.5,75.9c0-0.7-0.3-0.9-0.7-0.9c-0.6,0-1.1,0.6-1.6,1.3
			l1.4-3.5l-0.1-0.1l-1.4,0.2V73l0.3,0.2c0.3,0.2,0.2,0.4-0.1,1l-1.5,3.7c-0.1,0.3-0.3,0.6-0.3,0.7c0,0.4,0.5,0.8,1,0.8
			C10.6,79.4,12.5,77.4,12.5,75.9 M8.1,75.4C8.2,75.1,8,75,7.9,75c-0.7,0-1.4,0.6-1.7,1.4h0.2c0.2-0.3,0.6-0.6,0.9-0.7L6,78.9
			c-0.1,0.3,0.1,0.5,0.3,0.5c0.6,0,1.3-0.6,1.6-1.4H7.7c-0.2,0.3-0.6,0.6-0.9,0.7L8.1,75.4z M8.3,73.8c0.3,0,0.6-0.3,0.6-0.6
			c0-0.3-0.3-0.6-0.6-0.6S7.8,73,7.8,73.3C7.8,73.6,8,73.8,8.3,73.8 M5.1,73.3H2.1L2,73.6c0.9,0.2,1,0.3,0.6,1.4l-1,2.6
			c-0.4,1.1-0.6,1.2-1.6,1.4L0,79.2h4.5l1-1.7H5.1c-0.6,0.6-1.2,1.4-2.2,1.4c-0.8,0-0.9-0.2-0.5-1.3l1-2.6C3.8,73.8,4,73.7,5,73.6
			L5.1,73.3z"></path>
		<g>
			<path class="st0" d="M1.1,32.9V22.2h2.7l2.6,4.4L9,22.2h2.7v10.7H9.5v-7.7l-2.4,4H5.6l-2.4-4v7.7L1.1,32.9z"></path>
			<path class="st0" d="M14.7,32.9V22.2h2.2v10.7H14.7z"></path>
			<path class="st0" d="M19.9,32.9V22.2h2.8l4.8,7.7v-7.7h2.2v10.7h-2.8l-4.8-7.7v7.7H19.9z"></path>
			<path class="st0" d="M32.7,32.9V22.2h2.2v10.7H32.7z"></path>
			<path class="st0" d="M36.9,31.5l1.6-1.5c0.3,0.4,0.7,0.7,1.1,1c0.4,0.3,0.9,0.4,1.3,0.4s0.8-0.1,1-0.4c0.3-0.2,0.4-0.5,0.4-0.9
				c0-0.5-0.3-0.9-0.8-1.1c-0.5-0.3-1.1-0.5-1.7-0.8c-0.6-0.3-1.2-0.7-1.7-1.1c-0.5-0.5-0.8-1.1-0.8-2c0-0.4,0.1-0.8,0.3-1.2
				c0.2-0.4,0.4-0.7,0.7-1c0.3-0.3,0.7-0.5,1.1-0.7s0.9-0.3,1.4-0.3c0.8,0,1.5,0.2,2.1,0.5c0.6,0.4,1.2,0.8,1.6,1.3L43,25.1
				c-0.3-0.4-0.7-0.7-1-1s-0.7-0.4-1.2-0.4c-0.4,0-0.7,0.1-0.9,0.3c-0.3,0.2-0.4,0.5-0.4,0.8c0,0.5,0.3,0.9,0.8,1.1
				c0.5,0.3,1.1,0.5,1.7,0.8c0.6,0.3,1.2,0.7,1.7,1.2c0.5,0.5,0.8,1.2,0.8,2c0,0.5-0.1,1-0.3,1.4c-0.2,0.4-0.5,0.8-0.8,1
				c-0.3,0.3-0.7,0.5-1.1,0.7c-0.4,0.2-0.9,0.2-1.4,0.2c-0.9,0-1.7-0.2-2.3-0.5C37.9,32.4,37.3,32,36.9,31.5z"></path>
			<path class="st0" d="M45.5,24.2v-2h8.8v2H51v8.8h-2.1v-8.8H45.5z"></path>
			<path class="st0" d="M56.2,32.9V22.2h6.2v1.9h-4.1v2.5h3.4v1.9h-3.4v2.7h4.1V33L56.2,32.9L56.2,32.9z M58.4,21.3l-2-2.1h2.2
				l1.7,2.1H58.4z"></path>
			<path class="st0" d="M65,32.9V22.2h3.3c1.2,0,2.1,0.3,2.8,0.9c0.7,0.6,1,1.4,1,2.3c0,0.7-0.2,1.2-0.5,1.7
				c-0.3,0.5-0.7,0.9-1.3,1.1l3.3,4.8h-2.6l-2.8-4.4h-1.1v4.4L65,32.9z M68.4,24.1h-1.2v2.7h1.2c0.5,0,0.8-0.1,1.1-0.4
				s0.4-0.6,0.4-1c0-0.4-0.2-0.7-0.4-1C69.2,24.2,68.9,24.1,68.4,24.1z"></path>
			<path class="st0" d="M75.1,32.9V22.2h6.2v1.9h-4.1v2.5h3.4v1.9h-3.4v2.7h4.1V33L75.1,32.9L75.1,32.9z"></path>
			<path class="st0" d="M5.9,47.4c0.6,0,1.2-0.2,1.6-0.4c0.5-0.3,0.9-0.6,1.2-1.1l1.7,1.3c-0.5,0.7-1.1,1.2-1.9,1.6
				c-0.8,0.4-1.7,0.6-2.6,0.6c-0.9,0-1.6-0.2-2.3-0.5c-0.7-0.3-1.3-0.7-1.8-1.2s-0.9-1.1-1.2-1.8c-0.3-0.7-0.4-1.4-0.4-2.2
				s0.2-1.5,0.4-2.2s0.7-1.3,1.2-1.8c0.5-0.5,1.1-0.9,1.8-1.2C4.3,38.2,5,38,5.9,38c1,0,1.8,0.2,2.6,0.6c0.8,0.4,1.4,0.9,1.9,1.6
				l-1.7,1.3c-0.3-0.5-0.7-0.8-1.2-1.1c-0.5-0.3-1-0.4-1.6-0.4c-0.5,0-1,0.1-1.4,0.3c-0.4,0.2-0.8,0.5-1.1,0.8
				c-0.3,0.3-0.6,0.7-0.7,1.2c-0.2,0.5-0.3,0.9-0.3,1.4s0.1,1,0.3,1.4C2.8,45.6,3,46,3.3,46.3c0.3,0.3,0.7,0.6,1.1,0.8
				C4.9,47.3,5.4,47.4,5.9,47.4z"></path>
			<path class="st0" d="M12.3,49.1V38.4h2.2v4.3h5.4v-4.3H22v10.7h-2.2v-4.5h-5.4v4.5H12.3z"></path>
			<path class="st0" d="M23.7,49.1l4.1-10.7h2.8l4.1,10.7h-2.3l-1-2.8H27l-1,2.8H23.7z M27.7,44.5h2.9l-1.5-4L27.7,44.5z"></path>
			<path class="st0" d="M36.3,49.1V38.4h3.3c1.2,0,2.1,0.3,2.8,0.9s1,1.4,1,2.3c0,0.7-0.2,1.2-0.5,1.7c-0.3,0.5-0.7,0.9-1.3,1.1
				l3.3,4.8h-2.6l-2.8-4.4h-1.1v4.4L36.3,49.1L36.3,49.1z M39.7,40.3h-1.2V43h1.2c0.5,0,0.8-0.1,1.1-0.4c0.3-0.3,0.4-0.6,0.4-1
				c0-0.4-0.2-0.7-0.4-1C40.5,40.4,40.1,40.3,39.7,40.3z"></path>
			<path class="st0" d="M51.2,47.4c0.5,0,1-0.1,1.4-0.3c0.4-0.2,0.8-0.4,1.1-0.7v-1.8H51v-2h4.9v4.6c-0.5,0.7-1.2,1.2-2,1.6
				c-0.8,0.4-1.7,0.6-2.7,0.6c-0.9,0-1.7-0.2-2.4-0.5c-0.7-0.3-1.3-0.7-1.8-1.2c-0.5-0.5-0.9-1.1-1.2-1.8c-0.3-0.7-0.4-1.4-0.4-2.2
				s0.2-1.5,0.4-2.2c0.3-0.7,0.7-1.3,1.2-1.8c0.5-0.5,1.1-0.9,1.8-1.2c0.7-0.3,1.5-0.5,2.3-0.5c1,0,1.8,0.2,2.6,0.6
				c0.8,0.4,1.4,0.9,1.9,1.6L54,41.5c-0.3-0.5-0.7-0.8-1.2-1.1c-0.5-0.3-1-0.4-1.6-0.4c-0.5,0-1,0.1-1.4,0.3
				c-0.4,0.2-0.8,0.5-1.1,0.8c-0.3,0.3-0.6,0.7-0.7,1.2c-0.2,0.5-0.3,0.9-0.3,1.4s0.1,1,0.3,1.4c0.2,0.5,0.4,0.8,0.8,1.2
				c0.3,0.3,0.7,0.6,1.2,0.8C50.2,47.3,50.7,47.4,51.2,47.4z"></path>
			<path class="st0" d="M58.3,49.1V38.4h6.2v1.9h-4.1v2.5h3.4v1.9h-3.4v2.7h4.1v1.9L58.3,49.1L58.3,49.1z M62.4,37.5h-2l1.7-2.1h2.2
				L62.4,37.5z"></path>
			<path class="st0" d="M71,49.1V38.4h4.2c0.9,0,1.6,0.2,2.3,0.4c0.7,0.3,1.3,0.7,1.8,1.2c0.5,0.5,0.9,1.1,1.2,1.7
				c0.3,0.7,0.4,1.3,0.4,2.1c0,0.7-0.2,1.4-0.4,2.1c-0.3,0.7-0.7,1.2-1.2,1.7c-0.5,0.5-1.1,0.9-1.8,1.2c-0.7,0.3-1.5,0.4-2.3,0.4
				L71,49.1L71,49.1z M75.3,40.4h-2.1v6.8h2.1c0.5,0,1-0.1,1.4-0.3c0.4-0.2,0.8-0.4,1.1-0.7c0.3-0.3,0.6-0.7,0.7-1.1
				c0.2-0.4,0.3-0.9,0.3-1.3c0-0.5-0.1-0.9-0.3-1.3c-0.2-0.4-0.4-0.8-0.7-1.1s-0.7-0.6-1.1-0.7C76.3,40.5,75.8,40.4,75.3,40.4z"></path>
			<path class="st0" d="M83,49.1V38.4h6.2v1.9h-4.1v2.5h3.4v1.9h-3.4v2.7h4.1v1.9L83,49.1L83,49.1z"></path>
			<path class="st0" d="M90.9,47.6l1.6-1.5c0.3,0.4,0.7,0.7,1.1,1c0.4,0.3,0.9,0.4,1.3,0.4s0.8-0.1,1-0.4c0.3-0.2,0.4-0.5,0.4-0.9
				c0-0.5-0.3-0.9-0.8-1.1c-0.5-0.3-1.1-0.5-1.7-0.8s-1.2-0.7-1.7-1.1c-0.5-0.5-0.8-1.1-0.8-2c0-0.4,0.1-0.8,0.3-1.2
				c0.2-0.4,0.4-0.7,0.7-1c0.3-0.3,0.7-0.5,1.1-0.7s0.9-0.3,1.4-0.3c0.8,0,1.5,0.2,2.1,0.5s1.2,0.8,1.6,1.3L97,41.2
				c-0.3-0.4-0.7-0.7-1-1c-0.4-0.3-0.7-0.4-1.2-0.4c-0.4,0-0.7,0.1-0.9,0.3c-0.2,0.2-0.4,0.5-0.4,0.8c0,0.5,0.3,0.9,0.8,1.1
				c0.5,0.3,1.1,0.5,1.7,0.8c0.6,0.3,1.2,0.7,1.7,1.2c0.5,0.5,0.8,1.2,0.8,2c0,0.5-0.1,1-0.3,1.4c-0.2,0.4-0.5,0.8-0.8,1
				c-0.3,0.3-0.7,0.5-1.1,0.7s-0.9,0.2-1.4,0.2c-0.9,0-1.7-0.2-2.3-0.5C91.9,48.6,91.3,48.2,90.9,47.6z"></path>
			<path class="st0" d="M0,56.6v-2h8.8v2H5.5v8.8H3.3v-8.8H0z"></path>
			<path class="st0" d="M10.7,65.3V54.6H14c1.2,0,2.1,0.3,2.8,0.9c0.7,0.6,1,1.4,1,2.3c0,0.7-0.2,1.2-0.5,1.7
				c-0.3,0.5-0.7,0.9-1.3,1.1l3.3,4.8h-2.6L14,60.9h-1.1v4.4H10.7z M14.1,56.4h-1.2v2.7h1.2c0.5,0,0.8-0.1,1.1-0.4
				c0.3-0.3,0.4-0.6,0.4-1c0-0.4-0.2-0.7-0.4-1C14.9,56.6,14.5,56.4,14.1,56.4z"></path>
			<path class="st0" d="M19.9,65.3L24,54.6h2.8l4.1,10.7h-2.3l-1-2.8h-4.3l-1,2.8H19.9z M23.9,60.7h2.9l-1.5-4L23.9,60.7z"></path>
			<path class="st0" d="M32.5,65.3V54.6h2.8l4.8,7.7v-7.7h2.2v10.7h-2.8l-4.8-7.7v7.7H32.5z"></path>
			<path class="st0" d="M44.3,63.8l1.6-1.5c0.3,0.4,0.7,0.7,1.1,1c0.4,0.3,0.9,0.4,1.3,0.4c0.4,0,0.8-0.1,1-0.4
				c0.3-0.2,0.4-0.5,0.4-0.9c0-0.5-0.3-0.9-0.8-1.1s-1.1-0.5-1.7-0.8c-0.6-0.3-1.2-0.7-1.7-1.1s-0.8-1.1-0.8-2
				c0-0.4,0.1-0.8,0.3-1.2c0.2-0.4,0.4-0.7,0.7-1c0.3-0.3,0.7-0.5,1.1-0.7s0.9-0.3,1.4-0.3c0.8,0,1.5,0.2,2.1,0.5s1.2,0.8,1.6,1.3
				l-1.6,1.4c-0.3-0.4-0.7-0.7-1-1c-0.4-0.3-0.7-0.4-1.2-0.4c-0.4,0-0.7,0.1-0.9,0.3c-0.2,0.2-0.4,0.5-0.4,0.8
				c0,0.5,0.3,0.9,0.8,1.1c0.5,0.3,1.1,0.5,1.7,0.8c0.6,0.3,1.2,0.7,1.7,1.2c0.5,0.5,0.8,1.2,0.8,2c0,0.5-0.1,1-0.3,1.4
				c-0.2,0.4-0.5,0.8-0.8,1c-0.3,0.3-0.7,0.5-1.1,0.7c-0.4,0.2-0.9,0.2-1.4,0.2c-0.9,0-1.7-0.2-2.3-0.5
				C45.3,64.9,44.8,64.4,44.3,63.8z"></path>
			<path class="st0" d="M54.1,65.3V54.6h3.5c1.2,0,2.1,0.3,2.8,0.9c0.7,0.6,1,1.4,1,2.3c0,1-0.4,1.8-1,2.3c-0.7,0.6-1.6,0.9-2.8,0.9
				h-1.4v4.4L54.1,65.3L54.1,65.3z M57.8,56.4h-1.5v2.7h1.5c0.5,0,0.8-0.1,1.1-0.4c0.3-0.3,0.4-0.6,0.4-1c0-0.4-0.2-0.7-0.4-1
				C58.6,56.6,58.2,56.4,57.8,56.4z"></path>
			<path class="st0" d="M68.2,54.3c0.9,0,1.6,0.2,2.3,0.5c0.7,0.3,1.3,0.7,1.8,1.2c0.5,0.5,0.9,1.1,1.2,1.8c0.3,0.7,0.4,1.4,0.4,2.2
				c0,0.8-0.2,1.5-0.4,2.2c-0.3,0.7-0.7,1.3-1.2,1.8c-0.5,0.5-1.1,0.9-1.8,1.2c-0.7,0.3-1.5,0.5-2.3,0.5c-0.9,0-1.6-0.2-2.3-0.5
				c-0.7-0.3-1.3-0.7-1.8-1.2c-0.5-0.5-0.9-1.1-1.2-1.8c-0.3-0.7-0.4-1.4-0.4-2.2c0-0.8,0.2-1.5,0.4-2.2c0.3-0.7,0.7-1.3,1.2-1.8
				c0.5-0.5,1.1-0.9,1.8-1.2S67.4,54.3,68.2,54.3z M68.2,63.6c0.5,0,1-0.1,1.4-0.3c0.4-0.2,0.8-0.5,1.1-0.8c0.3-0.3,0.6-0.7,0.7-1.2
				c0.2-0.5,0.3-0.9,0.3-1.4s-0.1-1-0.3-1.4c-0.2-0.5-0.4-0.8-0.7-1.2c-0.3-0.3-0.7-0.6-1.1-0.8c-0.4-0.2-0.9-0.3-1.4-0.3
				c-0.5,0-1,0.1-1.4,0.3c-0.4,0.2-0.8,0.5-1.1,0.8c-0.3,0.3-0.6,0.7-0.7,1.2c-0.2,0.5-0.3,0.9-0.3,1.4s0.1,1,0.3,1.4
				c0.2,0.5,0.4,0.8,0.7,1.2c0.3,0.3,0.7,0.6,1.1,0.8C67.3,63.5,67.7,63.6,68.2,63.6z"></path>
			<path class="st0" d="M76,65.3V54.6h3.3c1.2,0,2.1,0.3,2.8,0.9c0.7,0.6,1,1.4,1,2.3c0,0.7-0.2,1.2-0.5,1.7
				c-0.3,0.5-0.7,0.9-1.3,1.1l3.3,4.8h-2.6l-2.8-4.4h-1.1v4.4H76z M79.4,56.4h-1.2v2.7h1.2c0.5,0,0.8-0.1,1.1-0.4
				c0.3-0.3,0.4-0.6,0.4-1c0-0.4-0.2-0.7-0.4-1C80.3,56.6,79.9,56.4,79.4,56.4z"></path>
			<path class="st0" d="M84.5,56.6v-2h8.8v2H90v8.8h-2.2v-8.8H84.5z"></path>
			<path class="st0" d="M94,63.8l1.6-1.5c0.3,0.4,0.7,0.7,1.1,1c0.4,0.3,0.9,0.4,1.3,0.4s0.8-0.1,1-0.4c0.3-0.2,0.4-0.5,0.4-0.9
				c0-0.5-0.3-0.9-0.8-1.1c-0.5-0.3-1.1-0.5-1.7-0.8c-0.6-0.3-1.2-0.7-1.7-1.1c-0.5-0.5-0.8-1.1-0.8-2c0-0.4,0.1-0.8,0.3-1.2
				c0.2-0.4,0.4-0.7,0.7-1s0.7-0.5,1.1-0.7s0.9-0.3,1.4-0.3c0.8,0,1.5,0.2,2.1,0.5s1.2,0.8,1.6,1.3l-1.6,1.4c-0.3-0.4-0.7-0.7-1-1
				c-0.4-0.3-0.7-0.4-1.2-0.4c-0.4,0-0.7,0.1-0.9,0.3c-0.2,0.2-0.4,0.5-0.4,0.8c0,0.5,0.3,0.9,0.8,1.1c0.5,0.3,1.1,0.5,1.7,0.8
				s1.2,0.7,1.7,1.2c0.5,0.5,0.8,1.2,0.8,2c0,0.5-0.1,1-0.3,1.4c-0.2,0.4-0.5,0.8-0.8,1c-0.3,0.3-0.7,0.5-1.1,0.7
				c-0.4,0.2-0.9,0.2-1.4,0.2c-0.9,0-1.7-0.2-2.3-0.5C95,64.9,94.5,64.4,94,63.8z"></path>
		</g>
		<path class="st0" d="M16.7,13.1c0.2-0.2,0.3-0.3,0.5-0.5l0,0c0.3-0.4,0.6-0.7,0.9-1c0.1-0.1,0.2-0.2,0.3-0.3
			c0.1-0.1,0.1-0.1,0.1-0.1c-0.2,0.1-0.2,0.2-0.4,0.2c-0.1,0-0.1-0.1-0.1-0.1c0.1-0.1,0.2-0.2,0.3-0.2l0,0c-0.1,0-0.1-0.1-0.1-0.1
			c-0.4-0.1-0.7,0.2-0.9,0.4c-0.1,0.1-0.1-0.1-0.2-0.1c-0.4,0.2-0.7,0.5-1.2,0.7c0-0.1,0-0.1,0-0.1c-0.2,0.1-0.3,0.2-0.5,0.2
			c-0.3,0.1-0.5,0.1-0.7,0.1c-0.4,0.1-0.7,0.1-1,0.2c0,0,0,0-0.1,0c-0.2,0.1-0.4,0.1-0.5,0.2l0,0l-0.1,0.1C13.2,12.9,13.1,13,13,13
			c-0.2,0.1-0.3,0.3-0.5,0.4h-0.1c-0.2,0.2-0.3,0.3-0.5,0.4c0,0-0.1,0-0.1,0l0,0c0,0,0,0,0-0.1s0.1-0.1,0.1-0.1
			c0.1-0.1,0.1-0.1,0.1-0.2c0.1-0.1,0.1-0.1,0.1-0.2v-0.1c0,0,0,0-0.1,0c0.2-0.2,0.3-0.3,0.5-0.4l0,0c0,0-0.1,0-0.1-0.1l0.1-0.1l0,0
			l0,0c-0.1,0.1-0.1,0.1-0.2,0.1c-0.1,0.1-0.1,0.2-0.2,0.2h-0.1c0,0,0,0-0.1,0l0,0l0,0l0,0l0,0l0,0l0,0c0,0,0,0,0-0.1l0,0
			c0,0,0-0.1,0.1-0.1c0,0,0,0,0-0.1c0,0,0-0.1,0.1-0.1v-0.1c0.1-0.1,0.1-0.1,0.2-0.2l0,0c0.1-0.1,0.2-0.1,0.3-0.2l0.1-0.1
			c-0.2,0.1-0.3,0.1-0.5,0.2h-0.1h-0.1l0,0c0.1-0.1,0.1-0.1,0.2-0.2c0.1,0,0.1,0,0.1,0.1c0.9-0.7,2.1-0.5,3.1-0.9
			c0.1-0.1,0.2-0.1,0.3-0.2c0.2-0.1,0.3-0.2,0.4-0.3c0.2-0.2,0.4-0.4,0.5-0.7c0-0.1-0.1-0.1-0.1-0.1c-0.4,0.4-0.8,0.7-1.2,0.9
			c-0.6,0.3-1.2,0.3-1.8,0.4c0.1-0.1,0.1-0.1,0.2-0.1c0-0.1,0.1-0.1,0.1-0.2c0.1,0,0.1,0,0.1,0s0.1-0.1,0.1-0.1
			c0.1,0,0.2-0.1,0.1-0.1c-0.1-0.1-0.3,0.1-0.4,0c0.1-0.1,0.1-0.2,0.1-0.2c0.1,0,0.1,0,0.1,0c0-0.1,0.1-0.1,0.1-0.1
			c0.4-0.3,0.8-0.5,1.2-0.7c-0.1,0-0.2,0.1-0.2,0.1c0.1,0,0-0.1,0.1-0.1c0.3-0.1,0.6-0.3,0.9-0.4c-0.1,0-0.2,0.1-0.3,0
			c0.1-0.1,0.1-0.1,0.2-0.1c0-0.1,0-0.1,0-0.1s0.1-0.1,0.1-0.1c-0.1,0-0.1-0.1-0.1-0.1c0.1-0.1,0.1-0.1,0.2-0.1
			c-0.1,0-0.1,0-0.1-0.1c0.1-0.1,0.2-0.2,0.4-0.2c0.3-0.1,0.3-0.1,0.3-0.1s0.1-0.1,0.1-0.1c-0.1,0-0.1,0-0.1,0
			c-0.1-0.1-0.1-0.1-0.1-0.1c0.2-0.2,0.2-0.5,0.3-0.7c-0.1,0-0.1,0-0.1-0.1c-0.3,0.3-0.7,0.4-1.2,0.5c-0.1,0-0.1,0-0.2,0
			c-0.2,0.1-0.4,0.1-0.5-0.1c-0.1-0.1-0.2-0.2-0.3-0.2c-0.2-0.2-0.5-0.3-0.7-0.4c-0.7-0.2-1.4-0.4-2.1-0.3C12,8.1,12.4,8,12.7,8
			c0.5-0.2,0.9-0.3,1.4-0.3c-0.1-0.1-0.2,0-0.3,0c-0.4-0.1-0.8,0.1-1.2,0.2c-0.3,0.1-0.5,0.2-0.8,0.2c-0.2,0.1-0.3,0.2-0.5,0.2
			c0,0,0-0.1,0-0.1c0.3-0.4,0.6-0.7,1.1-0.7c0.5-0.1,1,0,1.5,0.1c0.4,0.1,0.7,0.1,1.1,0.2c0.2,0,0.2,0.2,0.3,0.3
			c0.2,0.1,0.4,0,0.5,0.1c0-0.1-0.1-0.1,0-0.2C15.9,7.8,16,8,16.1,7.9c0.2-0.2-0.2-0.4-0.3-0.6c0-0.1,0.1-0.1,0.1-0.1
			c0.2,0.2,0.4,0.4,0.7,0.6c0.2,0.1,0.5,0.2,0.4-0.1c-0.2-0.3-0.4-0.6-0.7-0.8c0-0.1,0-0.1,0-0.1c-0.1,0-0.1-0.1-0.1-0.1
			c0-0.1,0-0.1,0-0.1c-0.1-0.1-0.1-0.2-0.2-0.3C15.9,6.2,16,6,15.9,5.9s-0.1-0.3-0.1-0.5c-0.1-0.5-0.2-0.9-0.3-1.3
			c-0.1-0.5,0.3-1,0.6-1.4c0.2-0.4,0.4-0.7,0.8-0.9c0.1-0.4,0.3-0.6,0.5-0.9c0.2-0.3,0.6-0.5,0.9-0.6C18.6,0.2,19,0,19,0H0v14.7
			h13.5c0.5-0.4,1.1-0.6,1.8-0.9C15.7,13.7,16.4,13.4,16.7,13.1z M12.4,11.1c-0.1,0-0.2,0.1-0.2-0.1c0.1-0.2,0.2-0.2,0.4-0.2
			c0.1-0.1,0.2-0.1,0.2-0.1c0.1,0.1,0.2,0.1,0.2,0.1C12.9,11.1,12.6,11,12.4,11.1z M8.2,10.5L8.2,10.5C8.5,10,8.8,9.5,9,9
			c0.4-0.2,0.7-0.5,1-0.8c0.5-0.5,1-1,1.6-1.2c0.2-0.1,0.5-0.1,0.7,0.1c-0.1,0.1-0.2,0.1-0.4,0.2c-0.1,0-0.1,0-0.1-0.1
			c0.1-0.1,0.1-0.1,0.1-0.1c-0.3,0.3-0.7,0.5-0.9,0.8c-0.2,0.3-0.3,0.7-0.7,0.7c-0.1,0.1,0.1-0.1-0.1-0.1C9.5,9.1,8.9,9.8,8.2,10.5z
			 M10.5,8.7c-0.1,0.1-0.1,0.1-0.1,0.1c-0.1,0.1-0.1,0.1-0.1,0.1c-0.1,0-0.1,0-0.1-0.1c0.1-0.1,0.1-0.2,0.2-0.3
			C10.5,8.6,10.5,8.7,10.5,8.7z M11.8,12.8c0,0.1-0.1,0.1-0.1,0.1c0.1,0,0.1,0,0.1,0.1c-0.1,0.1-0.1,0.1-0.2,0.2c0,0,0,0-0.1,0
			c-0.1,0.1-0.1,0.1-0.1,0.1c-0.1,0.1-0.2,0-0.2-0.1c0.1-0.1,0.2-0.2,0.2-0.2c0.1-0.1,0.1-0.1,0.1-0.1l0.1-0.1
			C11.7,12.8,11.8,12.8,11.8,12.8z M11.3,12.6L11.3,12.6c-0.1,0.1-0.2,0.2-0.3,0.2c-0.1,0.1-0.3,0.1-0.4,0.2l0,0h-0.1
			c-0.1,0.1-0.2,0.2-0.3,0.2c0,0-0.1,0-0.1,0.1l0,0l0,0l-0.1,0.1l0,0l0,0l-0.1,0.1c0,0,0,0.1-0.1,0.1H10l0,0H10H9.9l0,0l0,0
			c-0.1,0-0.1,0.1-0.2,0.1c-0.1,0.1-0.1,0.1-0.2,0.2l0,0l0,0l0,0l0,0l0,0c0,0,0,0,0,0.1l0,0l0,0l0,0l0,0v-0.1l0,0l0,0
			c0.1-0.1,0.1-0.1,0.1-0.1l0,0c0,0,0,0,0.1-0.1l0.1-0.1l0,0c0.1-0.1,0.1-0.1,0.1-0.1l0,0l0,0l0.1-0.1c0,0,0-0.1,0.1-0.1l0,0l0,0
			l0,0c0,0,0-0.1,0.1-0.1l0,0l0,0c0,0,0,0,0-0.1l0,0l0,0v-0.1l0,0c0.1-0.1,0.1-0.1,0.1-0.2l0,0c-0.1,0.1-0.1,0.1-0.1,0.1
			c-0.1,0-0.1,0-0.1-0.1l0.1-0.1l0,0c0.1-0.1,0.1-0.1,0.2-0.2c0.1,0,0.1-0.1,0.1-0.1l0,0c0-0.1,0.1-0.1,0.1-0.1l0,0
			c0.3-0.3,0.7-0.3,1.1-0.4c0.2-0.1,0.3,0.1,0.5,0c0.1,0,0.2,0,0.3,0.1C11.8,12.3,11.5,12.5,11.3,12.6z M11.9,10.7
			c-0.1-0.1,0.1,0,0.1-0.1c-0.1,0-0.2,0-0.2,0s-0.1-0.1-0.1-0.1c-0.2,0.1-0.3,0.1-0.5,0.1c-0.2,0.1-0.4,0.2-0.6,0.3
			c-0.3,0.1-0.6,0.4-0.9,0.5c-0.1,0-0.1-0.1-0.1-0.1c0.1-0.1,0.2-0.1,0.2-0.2c0-0.1,0-0.1-0.1-0.1c0.2-0.3,0.5-0.5,0.8-0.7
			c0-0.1,0-0.1,0-0.1c0.1-0.1,0.2-0.2,0.3-0.3c0.1-0.1,0.2-0.2,0.3-0.3C11.1,9.7,11,9.7,11,9.6c-0.1,0-0.2,0.1-0.4-0.1
			c0.1-0.1,0.1-0.1,0.2-0.1c0,0-0.1,0-0.1-0.1c-0.1-0.1,0.1-0.1,0.2-0.2c0.1-0.1,0.3-0.1,0.4-0.1c-0.2-0.1-0.4,0.1-0.6-0.1
			c0.2-0.4,0.4-0.7,0.7-0.8c0.1,0,0.1,0,0.1,0.1c0,0.2-0.1,0.3-0.2,0.3c0.2,0.1,0.5,0.1,0.7,0.2c-0.1,0.1-0.1,0.1-0.1,0.1
			C12,8.9,12.2,8.9,12.3,9c-0.1,0.1-0.2,0-0.3,0c0.9,0.3,1.8,0.5,2.5,1c-0.6,0.3-1.3,0.5-1.9,0.6c-0.1,0-0.2,0-0.2-0.1
			c0,0.1,0,0.1-0.1,0.1c-0.1,0-0.2,0-0.3,0.1C12.1,10.7,11.9,10.7,11.9,10.7z"></path>
		<path class="st0" d="M24.6,0.2c0,0,0.1,0,0.2,0.1c0.2,0.1,0.3,0.2,0.4,0.2c0.2,0.1,0.4,0.3,0.5,0.5c0.1,0.1,0.2,0.3,0.1,0.4
			c-0.1,0.2-0.1,0.4-0.2,0.4c-0.2,0.1-0.4,0.1-0.6,0.1c-0.1,0-0.2-0.1-0.4-0.1C25,1.8,25.4,2,25.6,2.4c0.1,0.1,0.2,0.1,0.3,0.1
			c0.1,0,0.1,0.1,0.1,0.1c-0.1,0.1-0.1,0.1-0.1,0.2c0.1,0,0.1,0,0.1,0c0.2-0.1,0.1-0.4,0.3-0.3c0.2,0.1,0.2,0.3,0.1,0.4
			C26.2,3,26.1,3.1,26,3.1c-0.1,0.1-0.1,0.2,0,0.2c0.1,0.1,0.1,0.2,0.2,0.4c0.1,0.2,0.1,0.4,0.2,0.6c0.1,0.4,0.2,0.8,0.2,1.3
			c0,0.2-0.1,0.4-0.1,0.7c0.1,0.2,0.2,0.4,0.3,0.6C26.9,7,27,7.1,27.1,7.3c0.2,0.3,0.5,0.6,0.4,0.9c-0.1,0.2-0.4,0.2-0.6,0.3
			c-0.2,0.2-0.1,0.4,0.1,0.5c0.2,0.3-0.2,0.4-0.4,0.5c0.1,0.1,0.2,0.1,0.2,0.1c0.1,0.2,0.2,0.2,0.1,0.4c-0.1,0.2-0.5,0.3-0.3,0.5
			c0.1,0.2,0.1,0.4-0.1,0.6c-0.1,0.3-0.3,0.4-0.5,0.4c-0.2,0.1-0.4,0.1-0.5,0.1c-0.1-0.1-0.1-0.1-0.2-0.1c-0.5-0.1-1-0.2-1.4-0.2
			c-0.2,0.1-0.3,0.1-0.4,0.1c-0.1,0.1-0.3,0.2-0.4,0.3l0,0l-0.1,0.1c0,0,0,0.1-0.1,0.1c0,0,0,0,0,0.1C23,11.9,23,12,22.9,12.1l0,0
			v0.1c-0.1,0.2-0.2,0.4-0.2,0.5c-0.2,0.7-0.1,1.2,0.1,1.3c0.1,0.1,0.9,0.3,1.5,0.6c0.3,0.2,0.5,0.2,0.7,0.4h15.6V0.2L24.6,0.2
			L24.6,0.2z"></path>
		<path class="st0" d="M25.5,5.5c0.1,0.1,0.3,0.1,0.3,0.1c-0.1,0.2-0.4,0.3-0.6,0.5h-0.1C25,6.2,25.1,6.3,25,6.3
			c-0.1-0.1-0.2,0-0.3,0.1c0.1,0.1,0.3,0.2,0.4,0.2c0.1,0,0.1,0.1,0.1,0.1c0,0,0.1,0,0.1-0.1c0.1,0,0.1,0,0.1,0.1v0.1
			c-0.1,0.1-0.2,0.1-0.4,0.1c0.2,0.1,0.5,0.1,0.7,0c0.2-0.1,0-0.4,0.1-0.5c-0.1,0,0-0.1-0.1-0.1c0.1-0.1,0.1-0.2,0.2-0.2
			C25.9,6.1,26,6.1,26,6c0-0.1-0.1-0.1-0.1-0.2c0.2-0.1,0.3-0.3,0.3-0.5c-0.1-0.1-0.3-0.1-0.4-0.2c-0.2-0.1-0.3,0-0.5,0.1
			c-0.2,0-0.3,0.1-0.4,0.1c-0.2,0.1-0.4,0.2-0.5,0.3c0.2-0.1,0.4-0.1,0.6-0.2C25.2,5.5,25.4,5.5,25.5,5.5z"></path>
	</g>
</g>
<g id="taille-ecran">
</g>
</svg>
