<?xml version="1.0" encoding="utf-8"?>
<!-- Generator: Adobe Illustrator 22.1.0, SVG Export Plug-In . SVG Version: 6.00 Build 0)  -->
<svg version="1.1" xmlns="http://www.w3.org/2000/svg" xmlns:xlink="http://www.w3.org/1999/xlink" x="0px" y="0px" viewBox="0 0 964.6 952.6" style="enable-background: new 0 0 964.6 952.6" xml:space="preserve">
<style>.st0 {
  fill: none;
  stroke: #786abf;
  stroke-width: 5px;
  stroke-linecap: round;
  stroke-linejoin: round;
  stroke-miterlimit: 10;
}

.st1 {
  fill: none;
  stroke: #786abf;
  stroke-width: 5px;
  stroke-miterlimit: 10;
}

.st2 {
  fill: #786abf;
}

.st3 {
  fill: #fff;
}

.st4 {
  fill: none;
  stroke: #fff;
  stroke-width: 5px;
  stroke-linecap: round;
  stroke-linejoin: round;
}

.st5 {
  fill: none;
  stroke: #fff;
  stroke-width: 5px;
  stroke-linecap: round;
  stroke-linejoin: round;
  stroke-miterlimit: 10;
}

</style>
<g id="fond">
</g>
<g id="images">
</g>
<g id="txt">
	<g>
		<line class="st0" x1="96" y1="641.2" x2="264" y2="641.2"></line>
		<polyline class="st0" points="156.2,832.5 2.5,832.5 2.5,641.2 48.7,641.2 		"></polyline>
		<polyline class="st0" points="192.1,641.2 192.1,2.5 962.1,2.5 962.1,832.5 		"></polyline>
		<polyline class="st1" points="615.2,561.8 615.2,641.2 962.1,641.2 962.1,99.7 615.2,99.7 615.2,485.8 		"></polyline>
		<circle class="st2" cx="474.1" cy="139.2" r="11.5"></circle>
		<circle class="st2" cx="474.1" cy="266.7" r="11.5"></circle>
		<circle class="st2" cx="474.1" cy="394.2" r="11.5"></circle>
		<circle class="st2" cx="474.1" cy="561.7" r="11.5"></circle>
		<line class="st0" x1="385" y1="641.2" x2="615.2" y2="641.2"></line>
		<g>
			<path class="st2" d="M878.5,605.3c-2,1.3-2.9,3.5-2.9,5.8c0,3.3,1.6,6.7,5.3,6.7c2.9,0,4.2-1.6,5.8-6.7c1.6-4.9,3.2-9.5,9.4-9.5
				c6.3,0,9.3,5.4,9.3,11.1c0,3.7-1.2,7.6-4.4,9.7l-2.6-3.2c2.3-1.3,3.5-4,3.5-6.7c0-3.2-1.9-6.9-5.5-6.9c-3.9,0-4.6,2.6-6.4,8.3
				c-1.5,4.5-3.4,7.9-8.7,7.9c-6.1,0-9.1-5.2-9.1-10.8c0-3.5,1-6.5,3.7-8.8L878.5,605.3z"></path>
			<path class="st2" d="M886.3,596.4c-2.2-2.1-3.2-5.3-3.2-8.3c0-6.2,3-8.8,8.8-8.8h9c1.2,0,2.5-0.1,3.6-0.3v3.4
				c-0.9,0.2-2.2,0.2-3.1,0.2v0.1c2.1,1.4,3.7,3.7,3.7,6.9c0,4.2-2.1,7.8-6.2,7.8c-6.9,0-7.3-8-7.3-13.2v-1.3h-0.6
				c-3,0-4.6,1.9-4.6,5.2c0,2.2,0.8,4.6,2.3,6.2L886.3,596.4z M894.5,586.3c0,4.4,1.2,7.3,4,7.3c2.6,0,3.6-2,3.6-4.6
				c0-4-2.9-6.1-6.3-6.2h-1.3V586.3z"></path>
			<path class="st2" d="M870.7,572.6v-3.5h33.8v3.5H870.7z"></path>
			<path class="st2" d="M870.7,561.9v-3.5h33.8v3.5H870.7z"></path>
			<path class="st2" d="M900.7,532.8c3.2,2.5,4.3,5.4,4.3,9.3c0,6.6-4.9,10.6-11,10.6c-6.5,0-11-4.6-11-10.7c0-5.9,4-9.9,11-9.9h1.1
				v16.9c3.6-0.3,6.7-3,6.7-6.8c0-3-1.1-5-3.2-6.7L900.7,532.8z M892.2,535.8c-3.5,0.1-5.9,2.5-5.9,6.3c0,3.8,2.4,6.4,5.9,6.8V535.8
				z"></path>
			<path class="st2" d="M944.4,603.6L944.4,603.6c2.4,1.4,4.2,4.4,4.2,8.1c0,5.9-4.7,10.5-11,10.5c-6.3,0-11-4.4-11-11
				c0-3,1.3-5.6,3.6-7.5v-0.1h-15.9v-3.5h33.8v3.5H944.4z M929.9,611c0,4.5,3.4,7.4,7.8,7.4c4.4,0,7.8-2.9,7.8-7.4
				c0-4.5-3.4-7.4-7.8-7.4C933.3,603.6,929.9,606.5,929.9,611z"></path>
			<path class="st2" d="M944.4,575c3.2,2.5,4.3,5.4,4.3,9.3c0,6.6-4.9,10.6-11,10.6c-6.5,0-11-4.6-11-10.7c0-5.9,4-9.9,11-9.9h1.1
				v16.9c3.6-0.3,6.7-3,6.7-6.8c0-3-1.1-5-3.2-6.7L944.4,575z M935.8,578c-3.5,0.1-5.9,2.5-5.9,6.3c0,3.8,2.4,6.4,5.9,6.8V578z"></path>
			<path class="st2" d="M932.5,541.5c-1.8,1.5-2.5,3.2-2.5,5.3c0,4.7,3.5,7.1,7.8,7.1c4.3,0,7.8-2.8,7.8-7.1c0-2.3-0.8-4-2.6-5.3
				l2.5-2.6c2.3,2,3.4,4.9,3.4,7.9c0,6.5-4.6,10.8-11,10.8c-6.3,0-11-4.4-11-10.8c0-3.1,1-5.9,3.3-8L932.5,541.5z"></path>
			<path class="st2" d="M926.7,524.9c0-6.4,4.5-11.2,11-11.2c6.5,0,11,4.7,11,11.2c0,6.4-4.5,11.2-11,11.2
				C931.2,536.1,926.7,531.3,926.7,524.9z M945.5,524.9c0-4.5-3.4-7.4-7.8-7.4c-4.4,0-7.8,2.9-7.8,7.4c0,4.5,3.4,7.4,7.8,7.4
				C942.1,532.3,945.5,529.4,945.5,524.9z"></path>
			<path class="st2" d="M932.2,508.3c-1.9,0-3.6,0.2-5,0.2v-3.3c1.1,0,2.3-0.1,3.4-0.1V505c-2.1-0.9-4-3.5-4-7c0-5.5,3.5-8,8.5-8
				h12.9v3.5h-12.6c-3.5,0-5.7,1.5-5.7,4.8c0,4.5,3.3,6.5,8,6.5h10.2v3.5H932.2z"></path>
			<path class="st2" d="M930.2,481.7v4.6h-2.9v-4.6h-4.7c-5.1,0-8.7-1.8-8.7-7.4c0-0.9,0.2-2,0.5-2.7l3.1,0.5
				c-0.3,0.8-0.4,1.6-0.4,2.4c0,3.6,2.6,3.8,6.3,3.8h3.9v-5.1h2.9v5.1h18v3.5H930.2z"></path>
			<path class="st2" d="M915.8,458.7v-4.9l6.4,6.4v3.2L915.8,458.7z M944.4,450.7c3.2,2.5,4.3,5.4,4.3,9.3c0,6.6-4.9,10.6-11,10.6
				c-6.5,0-11-4.6-11-10.7c0-5.9,4-9.9,11-9.9h1.1v16.9c3.6-0.3,6.7-3,6.7-6.8c0-3-1.1-5-3.2-6.7L944.4,450.7z M935.8,453.7
				c-3.5,0.1-5.9,2.5-5.9,6.3c0,3.8,2.4,6.4,5.9,6.8V453.7z"></path>
			<path class="st2" d="M932.2,444.5c-1.9,0-3.6,0.2-5,0.2v-3.3c1.1,0,2.3-0.1,3.4-0.1v-0.1c-2.1-0.9-4-3.5-4-7c0-0.4,0-0.9,0.2-1.4
				l3.5,0.2c-0.2,0.6-0.3,1.3-0.3,1.9c0,4.2,3,6.1,7.8,6.1h10.2v3.5H932.2z"></path>
			<path class="st2" d="M944.4,410.9c3.2,2.5,4.3,5.4,4.3,9.3c0,6.6-4.9,10.6-11,10.6c-6.5,0-11-4.6-11-10.7c0-5.9,4-9.9,11-9.9h1.1
				v16.9c3.6-0.3,6.7-3,6.7-6.8c0-3-1.1-5-3.2-6.7L944.4,410.9z M935.8,413.9c-3.5,0.1-5.9,2.5-5.9,6.3c0,3.8,2.4,6.4,5.9,6.8V413.9
				z"></path>
			<path class="st2" d="M932.2,404.8c-1.9,0-3.6,0.2-5,0.2v-3.3c1.1,0,2.3-0.1,3.4-0.1v-0.1c-2.1-0.9-4-3.5-4-7c0-5.5,3.5-8,8.5-8
				h12.9v3.5h-12.6c-3.5,0-5.7,1.5-5.7,4.8c0,4.5,3.3,6.5,8,6.5h10.2v3.5H932.2z"></path>
			<path class="st2" d="M932.5,365c-1.8,1.5-2.5,3.2-2.5,5.3c0,4.7,3.5,7.1,7.8,7.1c4.3,0,7.8-2.8,7.8-7.1c0-2.3-0.8-4-2.6-5.3
				l2.5-2.6c2.3,2,3.4,4.9,3.4,7.9c0,6.5-4.6,10.8-11,10.8c-6.3,0-11-4.4-11-10.8c0-3.1,1-5.9,3.3-8L932.5,365z"></path>
			<path class="st2" d="M944.4,339.7c3.2,2.5,4.3,5.4,4.3,9.3c0,6.6-4.9,10.6-11,10.6c-6.5,0-11-4.6-11-10.7c0-5.9,4-9.9,11-9.9h1.1
				v16.9c3.6-0.3,6.7-3,6.7-6.8c0-3-1.1-5-3.2-6.7L944.4,339.7z M935.8,342.7c-3.5,0.1-5.9,2.5-5.9,6.3c0,3.8,2.4,6.4,5.9,6.8V342.7
				z"></path>
		</g>
		<g>
			<path class="st2" d="M199.5,610.1v-3.5l31.6-13.5v4.4l-7.8,3.2v15.8l7.8,3.3v4.2L199.5,610.1z M204.3,608.4L204.3,608.4l15.6,6.7
				v-12.9L204.3,608.4z"></path>
			<path class="st2" d="M213.2,578.1v6.2h10.5c2.7,0,4.8,0,4.8-3.1c0-1-0.2-2.1-0.7-3.1l3.2-0.1c0.5,1.2,0.8,2.8,0.8,4.1
				c0,5-2.7,5.8-7,5.8h-11.5v4.6h-2.9v-4.6h-5.9v-3.5h5.9v-6.2H213.2z"></path>
			<path class="st2" d="M215.2,573.8c-1.9,0-3.6,0.2-5,0.2v-3.3c1.1,0,2.3-0.1,3.4-0.1v-0.1c-2.1-0.9-4-3.5-4-7c0-0.4,0-0.9,0.2-1.4
				l3.5,0.2c-0.2,0.6-0.3,1.3-0.3,1.9c0,4.2,3,6.1,7.8,6.1h10.2v3.5H215.2z"></path>
			<path class="st2" d="M199.5,556c0-1.4,1.2-2.5,2.5-2.5c1.5,0,2.5,1.1,2.5,2.5s-1.1,2.5-2.5,2.5
				C200.7,558.6,199.5,557.5,199.5,556z M210.2,557.8v-3.5h20.9v3.5H210.2z"></path>
			<path class="st2" d="M226.2,529.1c1.9,0,3.6-0.2,5-0.2v3.3c-1.1,0-2.3,0.1-3.4,0.1v0.1c2.1,0.9,4,3.5,4,7c0,5.5-3.5,8-8.5,8
				h-12.9v-3.5h12.6c3.5,0,5.7-1.5,5.7-4.8c0-4.5-3.3-6.5-8-6.5h-10.2v-3.5H226.2z"></path>
			<path class="st2" d="M215.2,522.5c-1.9,0-3.6,0.2-5,0.2v-3.3c1.1,0,2.3-0.1,3.4-0.1v-0.1c-2.1-0.9-4-3.5-4-7c0-4.5,2.5-5.9,4-6.6
				c-2.5-1.5-4-3.4-4-6.6c0-6,3.4-8,8.8-8h12.7v3.5h-12.5c-2.9,0-5.7,1-5.7,5.1c0,3,2.4,5.4,6.2,5.4h12.1v3.5h-11.8
				c-4.6,0-6.4,1.2-6.4,4c0,4.5,3.3,6.5,8,6.5h10.2v3.5H215.2z"></path>
		</g>
		<g>
			<path class="st3" d="M273.5,334.5h19v2.7h-16v11.3h14.9v2.7h-14.9v15h-3V334.5z"></path>
			<path class="st3" d="M307.3,345c6.3,0,10.9,4.6,10.9,10.9s-4.5,10.9-10.9,10.9c-6.3,0-10.9-4.6-10.9-10.9S300.9,345,307.3,345z
				 M307.3,364.3c5.1,0,8.2-3.8,8.2-8.4c0-4.6-3.1-8.4-8.2-8.4c-5,0-8.2,3.8-8.2,8.4C299.1,360.5,302.2,364.3,307.3,364.3z"></path>
			<path class="st3" d="M324.1,351.3c0-1.5-0.2-4.7-0.2-5.8h2.7c0,1.5,0.1,3.2,0.2,3.6c1.3-2.4,3.5-4.2,6.6-4.2c0.5,0,1,0.1,1.6,0.2
				l-0.3,2.6c-0.4-0.1-0.8-0.2-1-0.2c-4.6,0-6.7,3.2-6.7,7.2v11.3h-2.7V351.3z"></path>
			<path class="st3" d="M356.5,360.4c0,1.5,0.2,4.7,0.2,5.8H354c0-1.5-0.1-3.2-0.2-3.6h-0.1c-1.1,2.3-3.7,4.2-7.1,4.2
				c-6.4,0-7.9-4.4-7.9-8.9v-12.3h2.7v12.2c0,3.4,0.9,6.6,5.2,6.6c4,0,7.2-2.8,7.2-8.4v-10.3h2.7V360.4z"></path>
			<path class="st3" d="M363.9,351.3c0-1.5-0.2-4.7-0.2-5.8h2.7c0,1.5,0.1,3.2,0.2,3.6h0.1c1.1-2.3,3.7-4.2,7.1-4.2
				c2.7,0,5.2,1.3,6.2,4.5c1.3-3.1,4.2-4.5,7-4.5c6.4,0,7.9,4.4,7.9,8.9v12.3h-2.7V354c0-3.4-0.9-6.6-5.2-6.6c-5,0-6.3,4.2-6.3,7.2
				v11.6H378v-12.4c0-3.8-1.4-6.3-4.3-6.3c-4,0-7.2,2.8-7.2,8.4v10.3h-2.7V351.3z"></path>
			<path class="st3" d="M273.1,378.2h9.8c16.4,0,17.1,13.5,17.1,15.8s-0.7,15.8-17.1,15.8h-9.8V378.2z M276,407.1h6.1
				c8.4,0,14.9-4.1,14.9-13.1s-6.5-13.1-14.9-13.1H276V407.1z"></path>
			<path class="st3" d="M306.6,378.2h3v31.6h-3V378.2z"></path>
			<path class="st3" d="M344.3,407.8c-3.7,2.1-7.7,2.9-11.8,2.9c-9.7,0-16.4-7-16.4-16.6s6.7-16.6,16.4-16.6c4.7,0,8.5,1.4,11.4,4.4
				l-2.1,2.2c-1.9-2.3-5.8-3.9-9.3-3.9c-8.3,0-13.4,6.1-13.4,13.9c0,7.9,5.1,13.9,13.4,13.9c3.4,0,6.4-0.4,8.8-1.9v-10.6h-7.6v-2.7
				h10.5V407.8z"></path>
			<path class="st3" d="M353,378.2h3v31.6h-3V378.2z"></path>
			<path class="st3" d="M371.6,380.9h-10.8v-2.7h24.6v2.7h-10.8v29h-3V380.9z"></path>
		</g>
		<g>
			<path class="st2" d="M42.9,717.6h3.5l13.5,31.6h-4.4l-3.2-7.8H36.4l-3.3,7.8h-4.2L42.9,717.6z M44.6,722.5L44.6,722.5L37.9,738
				h12.9L44.6,722.5z"></path>
			<path class="st2" d="M63.9,743.8c1.4,1.7,2.9,2.8,5.4,2.8c2.2,0,4.6-0.9,4.6-3.2c0-2.2-2.2-2.8-4.5-3.3c-4-0.9-7.4-1.7-7.4-6.1
				c0-4.1,3.9-6.2,7.8-6.2c3,0,5.7,1.1,7.1,3.8l-2.9,1.9c-0.9-1.5-2.4-2.5-4.4-2.5c-1.9,0-4.1,0.9-4.1,2.9c0,1.7,2.5,2.5,5.3,3
				c3.7,0.7,6.8,2.1,6.8,6.3c0,4.7-4.2,6.6-8.4,6.6c-3.5,0-6.1-0.9-8.1-3.9L63.9,743.8z"></path>
			<path class="st2" d="M97.4,733.6c-1.5-1.8-3.2-2.5-5.3-2.5c-4.7,0-7.1,3.5-7.1,7.8s2.8,7.8,7.1,7.8c2.3,0,4-0.8,5.3-2.6l2.6,2.5
				c-2,2.3-4.9,3.4-7.9,3.4c-6.5,0-10.8-4.6-10.8-11c0-6.3,4.4-11,10.8-11c3.1,0,5.9,1,8,3.3L97.4,733.6z"></path>
			<path class="st2" d="M122.7,745.5c-2.5,3.2-5.4,4.3-9.3,4.3c-6.6,0-10.6-4.9-10.6-11c0-6.5,4.6-11,10.7-11c5.9,0,9.9,4,9.9,10.9
				v1.1h-16.9c0.3,3.6,3,6.7,6.8,6.7c3,0,5-1.1,6.7-3.2L122.7,745.5z M119.7,737c-0.1-3.5-2.5-5.9-6.3-5.9c-3.8,0-6.4,2.4-6.8,5.9
				H119.7z"></path>
			<path class="st2" d="M128.9,733.3c0-1.9-0.2-3.6-0.2-5h3.3c0,1.1,0.1,2.3,0.1,3.4h0.1c0.9-2.1,3.5-4,7-4c5.5,0,8,3.5,8,8.5v12.9
				h-3.5v-12.6c0-3.5-1.5-5.7-4.8-5.7c-4.5,0-6.5,3.3-6.5,8v10.2h-3.5V733.3z"></path>
			<path class="st2" d="M154.2,743.8c1.4,1.7,2.9,2.8,5.4,2.8c2.2,0,4.6-0.9,4.6-3.2c0-2.2-2.2-2.8-4.5-3.3c-4-0.9-7.4-1.7-7.4-6.1
				c0-4.1,3.9-6.2,7.8-6.2c3,0,5.7,1.1,7.1,3.8l-2.9,1.9c-0.9-1.5-2.4-2.5-4.4-2.5c-1.9,0-4.1,0.9-4.1,2.9c0,1.7,2.5,2.5,5.3,3
				c3.7,0.7,6.8,2.1,6.8,6.3c0,4.7-4.2,6.6-8.4,6.6c-3.5,0-6.1-0.9-8.1-3.9L154.2,743.8z"></path>
			<path class="st2" d="M191.4,745.5c-2.5,3.2-5.4,4.3-9.3,4.3c-6.6,0-10.6-4.9-10.6-11c0-6.5,4.6-11,10.7-11c5.9,0,9.9,4,9.9,10.9
				v1.1h-16.9c0.3,3.6,3,6.7,6.8,6.7c3,0,5-1.1,6.7-3.2L191.4,745.5z M188.4,737c-0.1-3.5-2.5-5.9-6.3-5.9c-3.8,0-6.4,2.4-6.8,5.9
				H188.4z"></path>
			<path class="st2" d="M215.8,744.3c0,1.9,0.2,3.6,0.2,5h-3.3c0-1.1-0.1-2.3-0.1-3.4h-0.1c-0.9,2.1-3.5,4-7,4c-5.5,0-8-3.5-8-8.5
				v-12.9h3.5v12.6c0,3.5,1.5,5.7,4.8,5.7c4.5,0,6.5-3.3,6.5-8v-10.2h3.5V744.3z"></path>
			<path class="st2" d="M222.4,733.3c0-1.9-0.2-3.6-0.2-5h3.3c0,1.1,0.1,2.3,0.1,3.4h0.1c0.9-2.1,3.5-4,7-4c0.4,0,0.9,0,1.4,0.2
				l-0.2,3.5c-0.6-0.2-1.3-0.3-1.9-0.3c-4.2,0-6.1,3-6.1,7.8v10.2h-3.5V733.3z"></path>
			<path class="st2" d="M238.6,743.8c1.4,1.7,2.9,2.8,5.4,2.8c2.2,0,4.6-0.9,4.6-3.2c0-2.2-2.2-2.8-4.5-3.3c-4-0.9-7.4-1.7-7.4-6.1
				c0-4.1,3.9-6.2,7.8-6.2c3,0,5.7,1.1,7.1,3.8l-2.9,1.9c-0.9-1.5-2.4-2.5-4.4-2.5c-1.9,0-4.1,0.9-4.1,2.9c0,1.7,2.5,2.5,5.3,3
				c3.7,0.7,6.8,2.1,6.8,6.3c0,4.7-4.2,6.6-8.4,6.6c-3.5,0-6.1-0.9-8.1-3.9L238.6,743.8z"></path>
		</g>
		<g>
			<path class="st2" d="M740.3,807.4c-1.9-2.5-4.9-3.8-7.9-3.8c-7.1,0-12.1,6.2-12.1,13.1c0,7.3,5,13.1,12.1,13.1
				c3.8,0,6.9-1.6,9.2-4.4l2.8,2.4c-2.8,3.8-6.9,5.5-12,5.5c-9.1,0-16.1-7-16.1-16.6c0-9.3,6.7-16.6,16.1-16.6c4.3,0,8.5,1.5,11.2,5
				L740.3,807.4z"></path>
			<path class="st2" d="M748.7,814.3c2.1-2.2,5.3-3.2,8.3-3.2c6.2,0,8.8,2.9,8.8,8.8v9c0,1.2,0.1,2.5,0.3,3.6h-3.4
				c-0.2-0.9-0.2-2.2-0.2-3.1h-0.1c-1.4,2.1-3.7,3.7-6.9,3.7c-4.2,0-7.8-2.1-7.8-6.2c0-6.9,8-7.3,13.2-7.3h1.3v-0.6
				c0-3-1.9-4.6-5.2-4.6c-2.2,0-4.6,0.8-6.2,2.3L748.7,814.3z M758.8,822.4c-4.4,0-7.3,1.2-7.3,4c0,2.6,2,3.6,4.6,3.6
				c4,0,6.1-2.9,6.2-6.3v-1.3H758.8z"></path>
			<path class="st2" d="M774,814.5h-4.6v-2.9h4.6v-4.7c0-5.1,1.8-8.7,7.4-8.7c0.9,0,2,0.2,2.7,0.5l-0.5,3.1
				c-0.8-0.3-1.6-0.4-2.4-0.4c-3.6,0-3.8,2.6-3.8,6.3v3.9h5.1v2.9h-5.1v18H774V814.5z"></path>
			<path class="st2" d="M805,828.7c-2.5,3.2-5.4,4.3-9.3,4.3c-6.6,0-10.6-4.9-10.6-11c0-6.5,4.6-11,10.7-11c5.9,0,9.9,4,9.9,10.9
				v1.1h-16.9c0.3,3.6,3,6.7,6.8,6.7c3,0,5-1.1,6.7-3.2L805,828.7z M802,820.2c-0.1-3.5-2.5-5.9-6.3-5.9c-3.8,0-6.4,2.4-6.8,5.9H802
				z"></path>
			<path class="st2" d="M822.6,814.5h-6.2V825c0,2.7,0,4.8,3.1,4.8c1,0,2.1-0.2,3.1-0.7l0.1,3.2c-1.2,0.5-2.8,0.8-4.1,0.8
				c-5,0-5.8-2.7-5.8-7v-11.5h-4.6v-2.9h4.6v-5.9h3.5v5.9h6.2V814.5z"></path>
		</g>
		<g>
			<path class="st2" d="M415.4,442.9h3.5l13.5,31.6H428l-3.2-7.8H409l-3.3,7.8h-4.2L415.4,442.9z M417.1,447.7L417.1,447.7
				l-6.7,15.6h12.9L417.1,447.7z"></path>
			<path class="st2" d="M450.9,458.8c-1.5-1.8-3.2-2.5-5.3-2.5c-4.7,0-7.1,3.5-7.1,7.8s2.8,7.8,7.1,7.8c2.3,0,4-0.8,5.3-2.6l2.6,2.5
				c-2,2.3-4.9,3.4-7.9,3.4c-6.5,0-10.8-4.6-10.8-11c0-6.3,4.4-11,10.8-11c3.1,0,5.9,1,8,3.3L450.9,458.8z"></path>
			<path class="st2" d="M472.4,458.8c-1.5-1.8-3.2-2.5-5.3-2.5c-4.7,0-7.1,3.5-7.1,7.8s2.8,7.8,7.1,7.8c2.3,0,4-0.8,5.3-2.6l2.6,2.5
				c-2,2.3-4.9,3.4-7.9,3.4c-6.5,0-10.8-4.6-10.8-11c0-6.3,4.4-11,10.8-11c3.1,0,5.9,1,8,3.3L472.4,458.8z"></path>
			<path class="st2" d="M497.7,470.7c-2.5,3.2-5.4,4.3-9.3,4.3c-6.6,0-10.6-4.9-10.6-11c0-6.5,4.6-11,10.7-11c5.9,0,9.9,4,9.9,10.9
				v1.1h-16.9c0.3,3.6,3,6.7,6.8,6.7c3,0,5-1.1,6.7-3.2L497.7,470.7z M494.8,462.2c-0.1-3.5-2.5-5.9-6.3-5.9c-3.8,0-6.4,2.4-6.8,5.9
				H494.8z"></path>
			<path class="st2" d="M522.2,469.6c0,1.9,0.2,3.6,0.2,5H519c0-1.1-0.1-2.3-0.1-3.4h-0.1c-0.9,2.1-3.5,4-7,4c-5.5,0-8-3.5-8-8.5
				v-12.9h3.5v12.6c0,3.5,1.5,5.7,4.8,5.7c4.5,0,6.5-3.3,6.5-8v-10.2h3.5V469.6z"></path>
			<path class="st2" d="M530.8,442.9c1.4,0,2.5,1.2,2.5,2.5c0,1.5-1.1,2.5-2.5,2.5s-2.5-1.1-2.5-2.5
				C528.3,444.1,529.4,442.9,530.8,442.9z M529.1,453.6h3.5v20.9h-3.5V453.6z"></path>
			<path class="st2" d="M539.8,440.7h3.5v33.8h-3.5V440.7z"></path>
		</g>
		<g>
			<polygon class="st3" points="699.6,358 721,358 726.3,365.1 727.2,370.4 727.2,382.8 714.3,392 699.6,392 693.2,384.3 
				692.9,371.8 			"></polygon>
			<g>
				<path class="st2" d="M704.6,382.8c-0.6,2.4-0.9,5-0.9,7.9v1.4h4.9C707.8,388.1,706.3,385.1,704.6,382.8z"></path>
				<path class="st2" d="M693.2,375.1v5.9c0.9,0.3,1.9,0.8,2.8,1.4c2.5,1.6,4.4,3.7,5.7,6.5v-9.2c-1-0.9-2.1-1.6-3-2.2
					C696.8,376.3,694.8,375.6,693.2,375.1z"></path>
				<path class="st2" d="M703.7,378.7c1.3-3.3,3.1-6.2,5.6-8.7v-12h-5.6V378.7z"></path>
				<path class="st2" d="M705.3,380.4c1.6,1.8,3,4.1,4.1,6.9V373C707.6,375.2,706.2,377.6,705.3,380.4z"></path>
				<path class="st2" d="M723,358h-11.7v10.2c3.5-2.8,7.3-4.3,10.5-5.1c0.5-0.1,1.1,0.2,1.2,0.7c0.1,0.5-0.2,1.1-0.7,1.2
					c-3.4,0.9-7.5,2.6-11,5.8v9.4c0.9-1.9,2-3.5,3.4-4.9c2.8-2.8,6.2-4.2,9-4.9c0.5-0.1,1.1,0.2,1.2,0.7c0.1,0.5-0.2,1.1-0.7,1.2
					c-1.4,0.4-3,0.9-4.5,1.8c-5.6,3.1-8.4,8.4-8.4,16.4v1.4H723c2.3,0,4.2-1.9,4.2-4.2v-25.7C727.2,359.9,725.3,358,723,358z"></path>
				<path class="st2" d="M699.7,375.7c0.7,0.4,1.3,0.8,2,1.4v-19h-4.4c-2.3,0-4.2,1.9-4.2,4.2V373
					C695.1,373.5,697.4,374.3,699.7,375.7z"></path>
				<path class="st2" d="M694.8,384c-0.5-0.3-1.1-0.6-1.6-0.8v4.7c0,2.3,1.9,4.2,4.2,4.2h3.4C699.7,388.4,697.7,385.7,694.8,384z"></path>
			</g>
			<g>
				<g>
					<g>
						<g>
							<path class="st3" d="M752.9,390.3c-9.1,0-15.9-6.3-15.9-15.5c0-9.4,6.8-15.3,15.9-15.3c9.2,0,16,5.9,16,15.3
								C768.9,384.1,762.1,390.3,752.9,390.3z M752.9,365.9c-5,0-8.4,3.8-8.4,8.9c0,5.3,3.4,9.1,8.4,9.1s8.4-3.8,8.4-9.1
								C761.3,369.7,757.9,365.9,752.9,365.9z"></path>
						</g>
					</g>
				</g>
			</g>
			<g>
				<g>
					<path class="st3" d="M792.3,367.9c-1.2-1.5-3.4-2.5-5.2-2.5c-1.8,0-4.1,0.6-4.1,2.9c0,1.9,1.7,2.6,4.5,3.4c4,1.3,9.1,3,9.1,8.8
						c0,6.7-5.4,9.8-11.2,9.8c-4.2,0-8.4-1.5-11-4.2l4.6-4.7c1.4,1.8,4,3.1,6.3,3.1c2.2,0,4.1-0.8,4.1-3.2c0-2.2-2.2-2.9-6.1-4.2
						c-3.7-1.2-7.5-3.1-7.5-8.4c0-6.5,5.9-9.2,11.3-9.2c3.3,0,7,1.2,9.6,3.6L792.3,367.9z"></path>
				</g>
			</g>
			<g>
				<g>
					<path class="st3" d="M821.5,389.6l-6.3-11.6h-2.4v11.6h-6.9v-29.3H817c5.6,0,11.2,2.2,11.2,8.8c0,3.9-2.3,6.7-6.1,7.9l7.6,12.5
						H821.5z M816.5,366h-3.8v6.8h3.3c2.3,0,5.1-0.6,5.1-3.6C821.2,366.5,818.6,366,816.5,366z"></path>
				</g>
			</g>
			<g>
				<g>
					<g>
						<g>
							<path class="st3" d="M847.9,389.6H837v-29.3h10.6c8.3,0,16.7,3.5,16.7,14.6C864.3,385.1,856,389.6,847.9,389.6z M847.4,366.3
								h-3.5v17.1h3.3c5,0,9.7-2.1,9.7-8.6C857,368.3,852.3,366.3,847.4,366.3z"></path>
						</g>
					</g>
				</g>
			</g>
		</g>
		<line class="st0" x1="962.1" y1="917.5" x2="962.1" y2="832.5"></line>
		<line class="st0" x1="156.2" y1="832.5" x2="156.2" y2="877.5"></line>
		<line class="st0" x1="962.1" y1="950.1" x2="962.1" y2="935.2"></line>
		<line class="st0" x1="156.2" y1="895.2" x2="156.2" y2="950.1"></line>
		<g>
			<g>
				<path class="st4" d="M372.8,545.3c21-17.2,47.9-27.5,77.1-27.5h90.6"></path>
				<g>
					<polygon class="st3" points="524,538.3 520.6,534.6 538.6,517.8 520.6,501 524,497.4 546,517.8 					"></polygon>
				</g>
			</g>
		</g>
		<path class="st5" d="M328,673.8v-34c0-28.4,9.7-54.5,25.9-75.2"></path>
		<path class="st5" d="M328,694.1L328,694.1c0,24.3-19.7,44-44,44h-12.3"></path>
		<line class="st5" x1="365.1" y1="552.7" x2="362.6" y2="555.1"></line>
		<g>
			<g>
				<line class="st4" x1="72.6" y1="641.2" x2="72.6" y2="695.7"></line>
				<g>
					<polygon class="st3" points="52.2,679.2 55.9,675.7 72.6,693.8 89.4,675.7 93.1,679.2 72.6,701.1 					"></polygon>
				</g>
			</g>
		</g>
	</g>
</g>
<g id="logo">
</g>
<g id="taille-ecran">
</g>
</svg>
