<?xml version="1.0" encoding="utf-8"?>
<!-- Generator: Adobe Illustrator 22.1.0, SVG Export Plug-In . SVG Version: 6.00 Build 0)  -->
<svg version="1.1" xmlns="http://www.w3.org/2000/svg" xmlns:xlink="http://www.w3.org/1999/xlink" x="0px" y="0px" viewBox="0 0 567.3 475.8" style="enable-background: new 0 0 567.3 475.8" xml:space="preserve" class="lines">
<style>.st0 {
  fill: #c7b2de;
}

.st1 {
  fill: #fff;
}

.st2 {
  fill: #786abf;
}

</style>
<g id="fond">
</g>
<g id="images">
</g>
<g id="txt">
</g>
<g id="logo">
	<g>
		<circle class="st0" cx="285" cy="196.9" r="12.2"></circle>
		<g>
			<path class="st1" d="M251,475.8v-38.1h-19.6c0.6,8.6,1,17.5,1,26.5v11.6H251z"></path>
			<path class="st1" d="M146.5,172.4c-6.5-2-13.2-3.8-19.9-5.4v19.3c4.9,1.2,9.7,2.6,14.4,4c4.8,1.5,9.9-1.1,11.5-5.9
				c0.8-2.4,0.7-5-0.5-7.3C151,174.8,149,173.1,146.5,172.4z"></path>
			<path class="st1" d="M426.1,168.5c-0.8,2.4-0.6,5,0.6,7.2c2.4,4.5,7.8,6.3,12.4,4.1c14-6.8,33.2-14,46.6-17.4
				c2.5-0.7,4.6-2.3,5.8-4.5c1.2-2.3,1.5-4.9,0.7-7.3c-1.2-3.9-4.9-6.4-9-6.4c-0.8,0-1.7,0.1-2.5,0.3c-17.8,4.6-34.6,10.9-49.9,18.6
				C428.5,164.2,426.9,166.1,426.1,168.5z"></path>
			<path class="st1" d="M337.6,475.8v-38.1h-19.4c0.5,8.7,0.8,17.6,0.8,26.5v11.6H337.6z"></path>
			<path class="st1" d="M471.2,67.1c-0.6-2.4-2.1-4.4-4.3-5.7c-2.1-1.3-4.7-1.6-7.1-1c-45.5,11.7-85.6,31.2-118.9,57.7l-3.4,2.7V0
				h-18.7v339.5l-4-10.5c-10.9-28.7-26-54.5-44.8-76.4l-0.8-0.9l0.4-1.1c2.4-6.8,4.9-13.2,7.4-19.1c2-4.6-0.1-10.1-4.7-12.2
				c-2.3-1-4.8-1.1-7.2-0.2c-2.4,0.9-4.2,2.7-5.3,5.1c-1.2,2.8-2.5,5.9-3.9,9.4l-1.1,2.9l-4-3.8V0h-18.7v216.7l-3.3-2.5
				c-6.9-5.1-14.2-10-21.7-14.6c-2.1-1.3-4.6-1.7-7.1-1.1c-2.4,0.6-4.5,2.2-5.7,4.3c-2.5,4.3-1,10,3.4,12.6
				c11.8,7,23.1,15.4,33.7,24.9l0.7,0.6v114.6l-3.9-8.4c-14.5-30.9-36.2-55.3-64.4-72.7c-11.4-7-24-12.9-37.4-17.5v19.8
				c9.1,3.5,17.8,7.7,25.7,12.4c39.4,23.5,64.6,62.4,74.8,115.6H251v-34.4c0-32.9,3.5-64,10.5-92.2l1.1-4.3l2.6,3.6
				c26,35.7,42.7,78.5,49.7,127.3h22.7v-34.4c0-68.3,17.3-119.3,53-155.7c3.4-3.5,3.5-9.1,0.2-12.6c-1.7-1.9-4.1-3-6.7-3
				c-2.6,0-4.9,1-6.7,2.8c-15.1,15.9-26.9,32.8-35.9,51.7l-3.9,8.2V145.6l0.7-0.6c34-31.4,76.5-53.8,126.3-66.7
				C469.5,77.1,472.5,72,471.2,67.1z"></path>
		</g>
		<rect y="418.6" class="st2" width="567.3" height="4.1"></rect>
	</g>
</g>
<g id="taille-ecran">
</g>
</svg>
