<?xml version="1.0" encoding="utf-8"?>
<!-- Generator: Adobe Illustrator 22.1.0, SVG Export Plug-In . SVG Version: 6.00 Build 0)  -->
<svg version="1.1" xmlns="http://www.w3.org/2000/svg" xmlns:xlink="http://www.w3.org/1999/xlink" x="0px" y="0px" viewBox="0 0 491.9 163.1" style="enable-background: new 0 0 491.9 163.1" xml:space="preserve">
<style>.st0 {
  fill: #fff;
}

.st1 {
  fill: #786abf;
}

</style>
<g id="fond">
</g>
<g id="images">
</g>
<g id="txt">
	<g>
		<g>
			<path class="st0" d="M17.6,91.8H3.7V80.4h15.6l2.9-21.1H8.2V47.8h15.6l4.1-29.9h11.6l-4.1,29.9h17l4.1-29.9h11.6L64,47.8h13.9
				v11.4H62.4l-2.9,21.1h13.9v11.4H57.8l-4.1,29.9H42.1l4.1-29.9h-17l-4.1,29.9H13.5L17.6,91.8z M33.7,59.3l-2.9,21.1h17l2.9-21.1
				H33.7z"></path>
			<path class="st0" d="M121.2,34l-19.1,17.6l-8.2-9.8l28.9-23.9h12.5v103.9h-14.1V34z"></path>
			<path class="st1" d="M174.7,17.9h34.9c20.1,0,38.3,7,38.3,30.1c0,26.1-19.5,30.8-41.5,30.8h-13.2v43h-18.5V17.9z M204.4,62.9
				c10.6,0,24.2-0.6,24.2-14.7c0-12.8-12.2-14.5-22.2-14.5h-13.2v29.2H204.4z"></path>
			<path class="st1" d="M306.8,112.1h-0.4c-5,7.9-13.2,11.4-22.6,11.4c-13.1,0-25.7-7.2-25.7-21.1c0-22.9,26.7-24.5,44.3-24.5h4.4
				V76c0-8.7-6.7-13.2-16.1-13.2c-7.3,0-14.1,2.9-18.8,7.3l-9.2-9.2c7.8-7.9,18.8-11.3,29.9-11.3c30.1,0,30.1,21.7,30.1,31.7v40.5
				h-15.8V112.1z M305.7,90.2h-3.7c-9.7,0-26.4,0.7-26.4,10.9c0,6.5,6.6,9.2,12.3,9.2c12,0,17.8-6.3,17.8-16.1V90.2z"></path>
			<path class="st1" d="M341.5,51.3h17.6v11.2h0.3c3.8-8.1,11.6-12.9,20.8-12.9c2.2,0,4.3,0.4,6.3,1v17c-2.9-0.7-5.7-1.3-8.5-1.3
				c-16.6,0-18.9,13.9-18.9,17.8v37.7h-17.6V51.3z"></path>
			<path class="st1" d="M407.6,16.9c6.5,0,11.4,4.5,11.4,10.6c0,6-5,10.6-11.4,10.6c-6.5,0-11.2-5-11.2-10.6
				C396.4,21.9,401.1,16.9,407.6,16.9z M398.9,51.3h17.6v70.4h-17.6V51.3z"></path>
			<path class="st1" d="M474.3,70.9c-3.4-4.7-7.8-7.2-13.8-7.2c-4.7,0-10.3,2.2-10.3,7.5c0,12.6,38,2.3,38,29.8
				c0,16.7-16,22.6-30.4,22.6c-10.9,0-20.2-2.8-27.4-10.9l11.7-11c4.5,5,9.2,8.7,16.7,8.7c5.1,0,11.7-2.5,11.7-8.1
				c0-14.5-38-3.1-38-29.9c0-15.7,14.1-22.7,28.3-22.7c9.4,0,19.4,2.9,25.1,10.7L474.3,70.9z"></path>
		</g>
	</g>
</g>
<g id="logo">
</g>
<g id="taille-ecran">
</g>
</svg>
