<svg xmlns="http://www.w3.org/2000/svg" xml:space="preserve" style="enable-background: new 0 0 351 71.2" viewBox="0 0 351 71.2"><style>.st0 {
  fill: #fff;
}

.st1 {
  fill: #c7b2de;
}

</style><g id="txt"><path d="m17.7 17.1-8.8 8.1-4.6-5.5L18.4 8h7.2v46.6h-7.9V17.1zM53.6 26.8h2c4.5 0 9.1-.7 9.1-6.3 0-3.6-2.8-6.1-6.7-6.1-3.2 0-5.9 1.9-7 5.1l-8.4-2.2c2-6.9 8.1-10 15-10 8 0 15 4.2 15 12.4 0 5-3 9.3-8 10.5v.1c5.9.9 9.1 5.6 9.1 11.3 0 8.9-7.4 13.8-15.7 13.8-7.6 0-14-3.2-16-10.9l8.4-2.2c1 3.8 3.4 6.1 7.6 6.1s7.8-3 7.8-7.3c0-6.1-5.5-7.1-10.3-7.1h-1.9v-7.2z" class="st0"></path><path d="M87.8 44.9c2.8 0 5.3 2.2 5.3 5S90.7 55 87.8 55c-2.8 0-5.3-2.2-5.3-5s2.4-5.1 5.3-5.1z" class="st1"></path><path d="m115.2 17.1-8.8 8.1-4.6-5.5L115.9 8h7.2v46.6h-7.9V17.1zM140.4 46.3l18.1-17.5c2.2-2.1 4.8-4.7 4.8-7.9 0-3.8-3.2-6.1-6.8-6.1-3.9 0-6.7 2.5-7.2 6.3l-8.3-.7c.8-8.6 7-13.2 15.5-13.2 8.4 0 15.1 4.3 15.1 13.2 0 5.9-3 9.9-7.2 13.7L150 47.6h21.6v7.1h-31.2v-8.4z" class="st0"></path><path d="M185.3 44.9c2.8 0 5.3 2.2 5.3 5s-2.4 5.1-5.3 5.1c-2.8 0-5.3-2.2-5.3-5s2.4-5.1 5.3-5.1z" class="st1"></path><path d="M198.9 46.3 217 28.8c2.2-2.1 4.8-4.7 4.8-7.9 0-3.8-3.2-6.1-6.8-6.1-3.9 0-6.7 2.5-7.2 6.3l-8.3-.7c.8-8.6 7-13.2 15.5-13.2 8.4 0 15.1 4.3 15.1 13.2 0 5.9-3 9.9-7.2 13.7l-14.4 13.4h21.6v7.1h-31.2v-8.3zM253.5 7.3c5.2 0 16.9 2 16.9 24.1s-11.7 24.1-16.9 24.1-16.9-2-16.9-24.1 11.7-24.1 16.9-24.1zm0 40.7c7.9 0 9-10.8 9-16.6 0-5.8-1.1-16.6-9-16.6s-9 10.8-9 16.6c0 5.8 1.1 16.6 9 16.6zM276.9 46.3 295 28.8c2.2-2.1 4.8-4.7 4.8-7.9 0-3.8-3.2-6.1-6.8-6.1-3.9 0-6.7 2.5-7.2 6.3l-8.3-.7c.8-8.6 7-13.2 15.5-13.2 8.4 0 15.1 4.3 15.1 13.2 0 5.9-3 9.9-7.2 13.7l-14.4 13.4h21.6v7.1h-31.2v-8.3zM326.6 26.8h2c4.5 0 9.1-.7 9.1-6.3 0-3.6-2.8-6.1-6.7-6.1-3.2 0-5.9 1.9-7 5.1l-8.4-2.2c2-6.9 8.1-10 15-10 8 0 15 4.2 15 12.4 0 5-3 9.3-8 10.5v.1c5.9.9 9.1 5.6 9.1 11.3 0 8.9-7.4 13.8-15.7 13.8-7.6 0-14-3.2-16-10.9l8.4-2.2c1 3.8 3.4 6.1 7.6 6.1s7.8-3 7.8-7.3c0-6.1-5.5-7.1-10.3-7.1h-1.9v-7.2z" class="st0"></path></g></svg>