<?xml version="1.0" encoding="utf-8"?>
<!-- Generator: Adobe Illustrator 22.1.0, SVG Export Plug-In . SVG Version: 6.00 Build 0)  -->
<svg version="1.1" xmlns="http://www.w3.org/2000/svg" xmlns:xlink="http://www.w3.org/1999/xlink" x="0px" y="0px"
	 viewBox="0 0 92.8 64.3" style="enable-background:new 0 0 92.8 64.3;" xml:space="preserve">
<style type="text/css">
	.st0{fill:#FFFFFF;}
</style>
<g id="fond">
</g>
<g id="images">
</g>
<g id="txt">
</g>
<g id="logo">
	<g>
		<path class="st0" d="M91.9,19.4C65.5,2.5,25.9,0,8,0C5.4,0,3.3,0,1.7,0.1C0.7,0.2,0,0.6,0,1.7v45.5c0,0.8,0.6,1.5,1.4,1.5h81.2
			c0.7,0,1.3-0.1,1.7-1c0,0,8.2-25.7,8.4-26.2C92.9,20.4,92.7,19.9,91.9,19.4z M25.1,37.2c-1.6,3.4-5.6,5-11.9,4.8
			C9.9,42,6,40.8,4.2,39.9l1.5-3.3c2.6,1.3,5.8,2,8.4,2.1c3,0.1,5.1-0.6,5.7-1.9c0.8-1.7-1.5-3-4.4-4.4c-3.7-1.7-7.9-3.9-6.4-7.6
			c1.3-3.2,6.2-4.7,11.6-4.6c1.7,0,2.7,0.2,4.1,0.4l-1,3.1c-1.1-0.3-2.1-0.4-3.5-0.5c-2.7-0.1-5.7,0.6-6.3,2.3
			c-0.5,1.4,1.5,2.2,4.5,3.6C22.3,31,27,33.2,25.1,37.2z M84.6,23.7H72.8l-1.7,5.3H81l-1,3.2h-9.9l-2.6,8.1c-1,0.5-5,1.7-9.4,1.7
			c-6.8,0-11.6-3.3-12.4-8.1c0-0.1-0.1-0.1-0.2-0.1c-0.1,0-0.1,0-0.2,0.1L43,41.7h-5c-1.6-6.1-4.7-11.8-7.7-16.2c0,0-3,9.3-3,9.4
			c0,0.1-0.1,0.1-0.1,0.1c-0.1,0-0.1,0-0.2-0.1c-0.5-1.3-1-2.3-2.8-3.6l3.5-10.8h4.6c3.8,4.7,6.9,10.5,8.4,14.9l4.7-14.9h4.3
			l-1.5,4.6c0,0.1,0,0.1,0.1,0.1c0.1,0,0.2,0,0.2-0.1c3-3.2,7.5-5,12.8-5c1.7,0,3.4,0.1,4.8,0.3l-1.2,3.4c-1.1-0.1-2.4-0.2-3.7-0.2
			c-5.9,0-10.3,2.9-11,7.4c-0.3,1.9,0.2,3.6,1.3,4.9c1.5,1.8,4.2,2.5,7.5,2.5c1.5,0,3-0.1,4.2-0.4l5.6-17.6h16.6L84.6,23.7z"/>
		<g>
			<path class="st0" d="M4.7,55.5H8c1.8,0,3.2,0.6,3.2,2.6c0,1.2-0.6,2.1-1.9,2.4l2.2,3.6H9.3l-1.8-3.4H6.6v3.4H4.7V55.5z M6.6,59.1
				h1.1c0.7,0,1.6,0,1.6-1c0-0.9-0.8-1-1.5-1H6.6V59.1z"/>
			<path class="st0" d="M18.3,55.5h5.8v1.7h-3.9v1.6h3.7v1.7h-3.7v1.7h4.2v1.7h-6V55.5z M21.2,53.2h2.5l-2.1,1.7h-1.6L21.2,53.2z"/>
			<path class="st0" d="M35.7,57.6c-0.3-0.4-0.9-0.6-1.4-0.6c-0.5,0-1.3,0.2-1.3,0.9c0,1.6,4,0.6,4,3.6c0,1.9-1.5,2.8-3.3,2.8
				c-1.1,0-2.1-0.3-2.9-1.1l1.3-1.5c0.4,0.5,1,0.8,1.6,0.8c0.6,0,1.3-0.3,1.3-0.9c0-1.6-4-0.7-4-3.6c0-1.8,1.6-2.8,3.3-2.8
				c1,0,1.9,0.3,2.6,0.9L35.7,57.6z"/>
			<path class="st0" d="M44.2,55.5H50v1.7H46v1.6h3.7v1.7H46v1.7h4.2v1.7h-6V55.5z"/>
			<path class="st0" d="M60.2,55.5h1.6l3.7,8.6h-2.1l-0.7-1.8h-3.3l-0.7,1.8h-2.1L60.2,55.5z M60.9,58l-1,2.7H62L60.9,58z"/>
			<path class="st0" d="M79.2,60.8c0,2-1.2,3.5-3.6,3.5c-2.4,0-3.6-1.5-3.6-3.5v-5.3h1.9v5.2c0,1.1,0.7,1.9,1.7,1.9
				c1,0,1.7-0.8,1.7-1.9v-5.2h1.9V60.8z"/>
		</g>
	</g>
</g>
<g id="taille-ecran">
</g>
</svg>
