<svg viewBox="0 0 567.3 475.8"><style>.st1{fill:#0000}</style><g id="logo"><circle id="circle" cx="285" cy="196.9" r="12.2" style="fill:#c7b2de"/><g id="logo"><path id="logo-path" class="st1" stroke="#fff" stroke-width="2" d="M251 475.8v-38.1h-19.6c.6 8.6 1 17.5 1 26.5v11.6H251zM146.5 172.4c-6.5-2-13.2-3.8-19.9-5.4v19.3c4.9 1.2 9.7 2.6 14.4 4 4.8 1.5 9.9-1.1 11.5-5.9.8-2.4.7-5-.5-7.3-1-2.3-3-4-5.5-4.7zM426.1 168.5c-.8 2.4-.6 5 .6 7.2 2.4 4.5 7.8 6.3 12.4 4.1 14-6.8 33.2-14 46.6-17.4 2.5-.7 4.6-2.3 5.8-4.5 1.2-2.3 1.5-4.9.7-7.3-1.2-3.9-4.9-6.4-9-6.4-.8 0-1.7.1-2.5.3-17.8 4.6-34.6 10.9-49.9 18.6-2.3 1.1-3.9 3-4.7 5.4zM337.6 475.8v-38.1h-19.4c.5 8.7.8 17.6.8 26.5v11.6h18.6z"/><path id="logo-path" class="st1" stroke="#fff" stroke-width="2" d="M471.2 67.1c-.6-2.4-2.1-4.4-4.3-5.7-2.1-1.3-4.7-1.6-7.1-1-45.5 11.7-85.6 31.2-118.9 57.7l-3.4 2.7V0h-18.7v339.5l-4-10.5c-10.9-28.7-26-54.5-44.8-76.4l-.8-.9.4-1.1c2.4-6.8 4.9-13.2 7.4-19.1 2-4.6-.1-10.1-4.7-12.2-2.3-1-4.8-1.1-7.2-.2-2.4.9-4.2 2.7-5.3 5.1-1.2 2.8-2.5 5.9-3.9 9.4l-1.1 2.9-4-3.8V0h-18.7v216.7l-3.3-2.5c-6.9-5.1-14.2-10-21.7-14.6-2.1-1.3-4.6-1.7-7.1-1.1-2.4.6-4.5 2.2-5.7 4.3-2.5 4.3-1 10 3.4 12.6 11.8 7 23.1 15.4 33.7 24.9l.7.6v114.6l-3.9-8.4c-14.5-30.9-36.2-55.3-64.4-72.7-11.4-7-24-12.9-37.4-17.5v19.8c9.1 3.5 17.8 7.7 25.7 12.4 39.4 23.5 64.6 62.4 74.8 115.6H251v-34.4c0-32.9 3.5-64 10.5-92.2l1.1-4.3 2.6 3.6c26 35.7 42.7 78.5 49.7 127.3h22.7v-34.4c0-68.3 17.3-119.3 53-155.7 3.4-3.5 3.5-9.1.2-12.6-1.7-1.9-4.1-3-6.7-3-2.6 0-4.9 1-6.7 2.8-15.1 15.9-26.9 32.8-35.9 51.7l-3.9 8.2V145.6l.7-.6c34-31.4 76.5-53.8 126.3-66.7 4.9-1.2 7.9-6.3 6.6-11.2z"/></g></g></svg>