<svg xmlns="http://www.w3.org/2000/svg" viewBox="0 0 289.4 289.4" style="enable-background:new 0 0 289.4 289.4" xml:space="preserve"><style>.st0{fill:#fff}</style><g id="txt"><path class="st0" d="M84.7 84.7C32.1 137.2 2.3 206.4 0 280.3c-.2 4.9 3.8 9.1 8.7 9.1 4.7 0 8.6-3.8 8.7-8.5C19.6 211.4 47.7 146.4 97 97c49.4-49.4 114.3-77.4 183.8-79.5 4.7-.1 8.5-4 8.5-8.7 0-5-4.1-8.9-9.1-8.7-73.8 2.2-143 32-195.5 84.6zM279.9 72.6c-4.5.2-9 .5-13.5 1-4.8.5-8.3 4.8-7.8 9.6.5 4.8 4.8 8.3 9.6 7.8 4.2-.4 8.5-.8 12.8-.9 5-.2 8.8-4.6 8.3-9.7-.5-4.7-4.7-8-9.4-7.8z"/><path class="st0" d="M235.1 79.2C144.6 102.6 76.7 183.1 72.6 279.9c-.2 4.7 3.2 8.9 7.8 9.4 5.1.5 9.4-3.3 9.6-8.3 3.7-89.1 66.1-163.3 149.5-184.8 4.5-1.2 7.3-5.6 6.4-10.2-1-4.9-5.9-8-10.8-6.8z"/></g></svg>