<svg version="1.1" id="Calque_1" xmlns="http://www.w3.org/2000/svg" x="0" y="0" viewBox="0 0 964.6 952.6" style="enable-background:new 0 0 964.6 952.6" xml:space="preserve"><style>.st0{fill:none;stroke:#786abf;stroke-width:5px;stroke-linecap:round;stroke-linejoin:round;stroke-miterlimit:10}.st2{fill:#786abf}.st3{fill:#fff}.st4{fill:none;stroke:#fff;stroke-width:5px;stroke-linecap:round;stroke-linejoin:round}.st5{fill:none;stroke:#fff;stroke-width:5px;stroke-linecap:round;stroke-linejoin:round;stroke-miterlimit:10}</style><path class="st0" d="M96 641.2h168M156.3 832.5H2.5V641.2h46.2M192.1 641.2V2.5h770v830"/><path style="fill:none;stroke:#786abf;stroke-width:5px;stroke-miterlimit:10" d="M615.2 561.8v79.4h346.9V99.7H615.2v386.1"/><circle class="st2" cx="474.1" cy="139.2" r="11.5"/><circle class="st2" cx="474.1" cy="266.7" r="11.5"/><circle class="st2" cx="474.1" cy="394.2" r="11.5"/><circle class="st2" cx="474.1" cy="561.7" r="11.5"/><path class="st0" d="M385 641.2h230.2"/><path class="st2" d="M878.5 605.3c-2 1.3-2.9 3.5-2.9 5.8 0 3.3 1.6 6.7 5.3 6.7 2.9 0 4.2-1.6 5.8-6.7 1.6-4.9 3.2-9.5 9.4-9.5 6.3 0 9.3 5.4 9.3 11.1 0 3.7-1.2 7.6-4.4 9.7l-2.6-3.2c2.3-1.3 3.5-4 3.5-6.7 0-3.2-1.9-6.9-5.5-6.9-3.9 0-4.6 2.6-6.4 8.3-1.5 4.5-3.4 7.9-8.7 7.9-6.1 0-9.1-5.2-9.1-10.8 0-3.5 1-6.5 3.7-8.8l2.6 3.1zM886.3 596.4c-2.2-2.1-3.2-5.3-3.2-8.3 0-6.2 2.9-8.8 8.8-8.8h9c1.2 0 2.5-.1 3.6-.3v3.4c-.9.2-2.2.2-3.1.2v.1c2.1 1.4 3.7 3.7 3.7 6.9 0 4.2-2.1 7.8-6.2 7.8-6.9 0-7.3-8-7.3-13.2v-1.3h-.6c-3 0-4.6 1.9-4.6 5.2 0 2.2.8 4.6 2.3 6.2l-2.4 2.1zm8.2-10.1c0 4.4 1.2 7.3 4 7.3 2.6 0 3.6-2 3.6-4.6 0-4-2.9-6.1-6.3-6.2h-1.3v3.5zM870.7 572.6v-3.5h33.8v3.5h-33.8zM870.7 561.9v-3.5h33.8v3.5h-33.8zM900.7 532.8c3.2 2.5 4.3 5.4 4.3 9.3 0 6.6-4.9 10.6-11 10.6-6.5 0-11-4.6-11-10.7 0-5.9 4-9.9 10.9-9.9h1.1V549c3.6-.3 6.7-3 6.7-6.8 0-3-1.1-5-3.2-6.7l2.2-2.7zm-8.5 3c-3.5.1-5.9 2.5-5.9 6.3s2.4 6.4 5.9 6.8v-13.1zM944.5 603.6c2.4 1.4 4.2 4.4 4.2 8.1 0 5.9-4.7 10.5-11 10.5s-11-4.4-11-11c0-3 1.3-5.6 3.6-7.5v-.1h-15.9v-3.5h33.8v3.5h-3.7zm-14.6 7.4c0 4.5 3.4 7.4 7.8 7.4s7.8-2.9 7.8-7.4-3.4-7.4-7.8-7.4-7.8 2.9-7.8 7.4zM944.4 575c3.2 2.5 4.3 5.4 4.3 9.3 0 6.6-4.9 10.6-11 10.6-6.5 0-11-4.6-11-10.7 0-5.9 4-9.9 11-9.9h1.1v16.9c3.6-.3 6.7-3 6.7-6.8 0-3-1.1-5-3.2-6.7l2.1-2.7zm-8.6 3c-3.5.1-5.9 2.5-5.9 6.3s2.4 6.4 5.9 6.8V578zM932.5 541.5c-1.8 1.5-2.5 3.2-2.5 5.3 0 4.7 3.5 7.1 7.8 7.1s7.8-2.8 7.8-7.1c0-2.3-.8-4-2.6-5.3l2.5-2.6c2.3 2 3.4 4.9 3.4 7.9 0 6.5-4.6 10.8-11 10.8-6.3 0-11-4.4-11-10.8 0-3.1 1-5.9 3.3-8l2.3 2.7zM926.7 524.9c0-6.4 4.5-11.2 11-11.2s11 4.7 11 11.2c0 6.4-4.5 11.2-11 11.2s-11-4.8-11-11.2zm18.8 0c0-4.5-3.4-7.4-7.8-7.4s-7.8 2.9-7.8 7.4 3.4 7.4 7.8 7.4 7.8-2.9 7.8-7.4zM932.2 508.3c-1.9 0-3.6.2-5 .2v-3.3c1.1 0 2.3-.1 3.4-.1v-.1c-2.1-.9-4-3.5-4-7 0-5.5 3.5-8 8.5-8H948v3.5h-12.6c-3.5 0-5.7 1.5-5.7 4.8 0 4.5 3.3 6.5 8 6.5h10.2v3.5h-15.7zM930.2 481.7v4.6h-3v-4.6h-4.7c-5.1 0-8.7-1.8-8.7-7.4 0-.9.2-2 .5-2.7l3.1.5c-.3.8-.4 1.6-.4 2.4 0 3.6 2.6 3.8 6.3 3.8h3.9v-5.1h3v5.1h18v3.5h-18zM915.8 458.7v-4.9l6.4 6.4v3.2l-6.4-4.7zm28.6-8c3.2 2.5 4.3 5.4 4.3 9.3 0 6.6-4.9 10.6-11 10.6-6.5 0-11-4.6-11-10.7 0-5.9 4-9.9 11-9.9h1.1v16.9c3.6-.3 6.7-3 6.7-6.8 0-3-1.1-5-3.2-6.7l2.1-2.7zm-8.6 3c-3.5.1-5.9 2.5-5.9 6.3s2.4 6.4 5.9 6.8v-13.1zM932.2 444.5c-1.9 0-3.6.2-5 .2v-3.3c1.1 0 2.3-.1 3.4-.1v-.1c-2.1-.9-4-3.5-4-7 0-.4 0-.9.2-1.4l3.5.2c-.2.6-.3 1.3-.3 1.9 0 4.2 3 6.1 7.8 6.1H948v3.5h-15.8zM944.4 410.9c3.2 2.5 4.3 5.4 4.3 9.3 0 6.6-4.9 10.6-11 10.6-6.5 0-11-4.6-11-10.7 0-5.9 4-9.9 11-9.9h1.1v16.9c3.6-.3 6.7-3 6.7-6.8 0-3-1.1-5-3.2-6.7l2.1-2.7zm-8.6 3c-3.5.1-5.9 2.5-5.9 6.3s2.4 6.4 5.9 6.8v-13.1zM932.2 404.8c-1.9 0-3.6.2-5 .2v-3.3c1.1 0 2.3-.1 3.4-.1v-.1c-2.1-.9-4-3.5-4-7 0-5.5 3.5-8 8.5-8H948v3.5h-12.6c-3.5 0-5.7 1.5-5.7 4.8 0 4.5 3.3 6.5 8 6.5h10.2v3.5h-15.7zM932.5 365c-1.8 1.5-2.5 3.2-2.5 5.3 0 4.7 3.5 7.1 7.8 7.1s7.8-2.8 7.8-7.1c0-2.3-.8-4-2.6-5.3l2.5-2.6c2.3 2 3.4 4.9 3.4 7.9 0 6.5-4.6 10.8-11 10.8-6.3 0-11-4.4-11-10.8 0-3.1 1-5.9 3.3-8l2.3 2.7zM944.4 339.7c3.2 2.5 4.3 5.4 4.3 9.3 0 6.6-4.9 10.6-11 10.6-6.5 0-11-4.6-11-10.7 0-5.9 4-9.9 11-9.9h1.1v16.9c3.6-.3 6.7-3 6.7-6.8 0-3-1.1-5-3.2-6.7l2.1-2.7zm-8.6 3c-3.5.1-5.9 2.5-5.9 6.3s2.4 6.4 5.9 6.8v-13.1zM237 595.2c2 3.6 3 7.7 3 11.8 0 9.8-6.7 16.9-16.6 16.9-10 0-16.6-7.6-16.6-17 0-4.2 1.1-8.2 4.2-11.2l2.9 2.8c-2.3 2.1-3.6 5.4-3.6 8.6 0 7.2 5.5 12.7 13.1 12.7s13.1-5.3 13.1-13.1c0-2.5-.7-5.5-1.8-7.9H225v7.3h-3.5v-11H237zM223.2 587.9c-1.9 0-3.6.2-5 .2v-3.3c1.1 0 2.3-.1 3.4-.1v-.1c-2.1-.9-4-3.5-4-7 0-.4 0-.9.2-1.4l3.5.2c-.2.6-.3 1.3-.3 1.9 0 4.2 3 6.1 7.8 6.1H239v3.5h-15.8zM220.9 572.5c-2.2-2.1-3.2-5.3-3.2-8.3 0-6.2 2.9-8.8 8.8-8.8h9c1.2 0 2.5-.1 3.6-.3v3.4c-.9.2-2.2.2-3.1.2v.1c2.1 1.4 3.7 3.7 3.7 6.9 0 4.2-2.1 7.8-6.2 7.8-6.9 0-7.3-8-7.3-13.2V559h-.6c-3 0-4.6 1.9-4.6 5.2 0 2.2.8 4.6 2.3 6.2l-2.4 2.1zm8.2-10.1c0 4.4 1.2 7.3 4 7.3 2.6 0 3.6-2 3.6-4.6 0-4-2.9-6.1-6.3-6.2h-1.3v3.5zM223.2 549c-1.9 0-3.6.2-5 .2v-3.3c1.1 0 2.3-.1 3.4-.1v-.1c-2.1-.9-4-3.5-4-7 0-5.5 3.5-8 8.5-8H239v3.5h-12.6c-3.5 0-5.7 1.5-5.7 4.8 0 4.5 3.3 6.5 8 6.5h10.2v3.5h-15.7zM235.5 506.8c2.4 1.4 4.2 4.4 4.2 8.1 0 5.9-4.7 10.5-11 10.5s-11-4.4-11-11c0-3 1.3-5.6 3.6-7.5v-.1h-15.9v-3.5h33.8v3.5h-3.7zm-14.6 7.4c0 4.5 3.4 7.4 7.8 7.4s7.8-2.9 7.8-7.4-3.4-7.4-7.8-7.4-7.8 2.9-7.8 7.4zM207.5 473.5V470l31.6-13.5v4.4l-7.8 3.2V480l7.8 3.3v4.2l-31.6-14zm4.9-1.7 15.6 6.7v-12.9l-15.6 6.2zM221.2 441.5v6.2h10.5c2.7 0 4.8 0 4.8-3.1 0-1-.2-2.1-.7-3.1l3.2-.1c.5 1.2.8 2.8.8 4.1 0 5-2.7 5.8-7 5.8h-11.5v4.6h-2.9v-4.6h-5.9v-3.5h5.9v-6.2h2.8zM223.2 437.2c-1.9 0-3.6.2-5 .2v-3.3c1.1 0 2.3-.1 3.4-.1v-.1c-2.1-.9-4-3.5-4-7 0-.4 0-.9.2-1.4l3.5.2c-.2.6-.3 1.3-.3 1.9 0 4.2 3 6.1 7.8 6.1H239v3.5h-15.8zM207.5 419.5c0-1.4 1.2-2.5 2.5-2.5 1.5 0 2.5 1.1 2.5 2.5s-1.1 2.5-2.5 2.5c-1.3 0-2.5-1.1-2.5-2.5zm10.8 1.7v-3.5h20.9v3.5h-20.9zM234.2 392.5c1.9 0 3.6-.2 5-.2v3.3c-1.1 0-2.3.1-3.4.1v.1c2.1.9 4 3.5 4 7 0 5.5-3.5 8-8.5 8h-12.9v-3.5H231c3.5 0 5.7-1.5 5.7-4.8 0-4.5-3.3-6.5-8-6.5h-10.2v-3.5h15.7zM223.2 385.9c-1.9 0-3.6.2-5 .2v-3.3c1.1 0 2.3-.1 3.4-.1v-.1c-2.1-.9-4-3.5-4-7 0-4.5 2.5-5.9 4-6.6-2.5-1.5-4-3.4-4-6.6 0-6 3.4-8 8.8-8h12.7v3.5h-12.5c-2.9 0-5.7 1-5.7 5.1 0 3 2.4 5.4 6.2 5.4h12.1v3.5h-11.8c-4.6 0-6.4 1.2-6.4 4 0 4.5 3.3 6.5 8 6.5h10.2v3.5h-16z"/><path class="st3" d="M303.5 254.5h19v2.7h-16v11.3h14.9v2.7h-14.9v15h-3v-31.7zM337.3 265c6.3 0 10.9 4.6 10.9 10.9s-4.5 10.9-10.9 10.9c-6.3 0-10.9-4.6-10.9-10.9s4.5-10.9 10.9-10.9zm0 19.3c5.1 0 8.2-3.8 8.2-8.4 0-4.6-3.1-8.4-8.2-8.4-5 0-8.2 3.8-8.2 8.4 0 4.6 3.1 8.4 8.2 8.4zM354.1 271.3c0-1.5-.2-4.7-.2-5.8h2.7c0 1.5.1 3.2.2 3.6 1.3-2.4 3.5-4.2 6.6-4.2.5 0 1 .1 1.6.2l-.3 2.6c-.4-.1-.8-.2-1-.2-4.6 0-6.7 3.2-6.7 7.2V286h-2.7v-14.7zM386.5 280.4c0 1.5.2 4.7.2 5.8H384c0-1.5-.1-3.2-.2-3.6h-.1c-1.1 2.3-3.7 4.2-7.1 4.2-6.4 0-7.9-4.4-7.9-8.9v-12.3h2.7v12.2c0 3.4.9 6.6 5.2 6.6 4 0 7.2-2.8 7.2-8.4v-10.3h2.7v14.7zM393.9 271.3c0-1.5-.2-4.7-.2-5.8h2.7c0 1.5.1 3.2.2 3.6h.1c1.1-2.3 3.7-4.2 7.1-4.2 2.7 0 5.2 1.3 6.2 4.5 1.3-3.1 4.2-4.5 7-4.5 6.4 0 7.9 4.4 7.9 8.9v12.3h-2.7V274c0-3.4-.9-6.6-5.2-6.6-5 0-6.3 4.2-6.3 7.2v11.6H408v-12.4c0-3.8-1.4-6.3-4.3-6.3-4 0-7.2 2.8-7.2 8.4v10.3h-2.7v-14.9zM303.1 298.2h9.8c16.4 0 17.1 13.5 17.1 15.8s-.7 15.8-17.1 15.8h-9.8v-31.6zm3 28.9h6.1c8.4 0 14.9-4.1 14.9-13.1s-6.5-13.1-14.9-13.1h-6.1v26.2zM336.6 298.2h3v31.6h-3v-31.6zM374.3 327.8c-3.7 2.1-7.7 2.9-11.8 2.9-9.7 0-16.4-7-16.4-16.6s6.7-16.6 16.4-16.6c4.7 0 8.5 1.4 11.4 4.4l-2.1 2.2c-1.9-2.3-5.8-3.9-9.3-3.9-8.3 0-13.4 6.1-13.4 13.9 0 7.9 5.1 13.9 13.4 13.9 3.4 0 6.4-.4 8.8-1.9v-10.6h-7.6v-2.7h10.5v15zM383 298.2h3v31.6h-3v-31.6zM401.6 300.9h-10.8v-2.7h24.6v2.7h-10.8v29h-3v-29z"/><path class="st2" d="M42.9 717.6h3.5l13.5 31.6h-4.4l-3.2-7.8H36.5l-3.3 7.8H29l13.9-31.6zm1.7 4.9L37.9 738h12.9l-6.2-15.5zM63.9 743.8c1.4 1.7 2.9 2.8 5.4 2.8 2.2 0 4.6-.9 4.6-3.2 0-2.2-2.2-2.8-4.5-3.3-4-.9-7.4-1.7-7.4-6.1 0-4.1 3.9-6.2 7.8-6.2 3 0 5.7 1.1 7.1 3.8l-2.9 1.9c-.9-1.5-2.4-2.5-4.4-2.5-1.9 0-4.1.9-4.1 2.9 0 1.7 2.5 2.5 5.3 3 3.7.7 6.8 2.1 6.8 6.3 0 4.7-4.2 6.6-8.4 6.6-3.5 0-6.1-.9-8.1-3.9l2.8-2.1zM97.4 733.6c-1.5-1.8-3.2-2.5-5.3-2.5-4.7 0-7.1 3.5-7.1 7.8s2.8 7.8 7.1 7.8c2.3 0 4-.8 5.3-2.6l2.6 2.5c-2 2.3-4.9 3.4-7.9 3.4-6.5 0-10.8-4.6-10.8-11 0-6.3 4.4-11 10.8-11 3.1 0 5.9 1 8 3.3l-2.7 2.3zM122.7 745.5c-2.5 3.2-5.4 4.3-9.3 4.3-6.6 0-10.6-4.9-10.6-11 0-6.5 4.6-11 10.7-11 5.9 0 9.9 4 9.9 10.9v1.1h-16.9c.3 3.6 3 6.7 6.8 6.7 3 0 5-1.1 6.7-3.2l2.7 2.2zm-3-8.6c-.1-3.5-2.5-5.9-6.3-5.9s-6.4 2.4-6.8 5.9h13.1zM128.9 733.3c0-1.9-.2-3.6-.2-5h3.3c0 1.1.1 2.3.1 3.4h.1c.9-2.1 3.5-4 7-4 5.5 0 8 3.5 8 8.5v12.9h-3.5v-12.6c0-3.5-1.5-5.7-4.8-5.7-4.5 0-6.5 3.3-6.5 8V749h-3.5v-15.7zM154.2 743.8c1.4 1.7 2.9 2.8 5.4 2.8 2.2 0 4.6-.9 4.6-3.2 0-2.2-2.2-2.8-4.5-3.3-4-.9-7.4-1.7-7.4-6.1 0-4.1 3.9-6.2 7.8-6.2 3 0 5.7 1.1 7.1 3.8l-2.9 1.9c-.9-1.5-2.4-2.5-4.4-2.5-1.9 0-4.1.9-4.1 2.9 0 1.7 2.5 2.5 5.3 3 3.7.7 6.8 2.1 6.8 6.3 0 4.7-4.2 6.6-8.4 6.6-3.5 0-6.1-.9-8.1-3.9l2.8-2.1zM191.4 745.5c-2.5 3.2-5.4 4.3-9.3 4.3-6.6 0-10.6-4.9-10.6-11 0-6.5 4.6-11 10.7-11 5.9 0 9.9 4 9.9 10.9v1.1h-16.9c.3 3.6 3 6.7 6.8 6.7 3 0 5-1.1 6.7-3.2l2.7 2.2zm-3-8.6c-.1-3.5-2.5-5.9-6.3-5.9s-6.4 2.4-6.8 5.9h13.1zM215.8 744.3c0 1.9.2 3.6.2 5h-3.3c0-1.1-.1-2.3-.1-3.4h-.1c-.9 2.1-3.5 4-7 4-5.5 0-8-3.5-8-8.5v-12.9h3.5v12.6c0 3.5 1.5 5.7 4.8 5.7 4.5 0 6.5-3.3 6.5-8v-10.2h3.5v15.7zM222.5 733.3c0-1.9-.2-3.6-.2-5h3.3c0 1.1.1 2.3.1 3.4h.1c.9-2.1 3.5-4 7-4 .4 0 .9 0 1.4.2l-.2 3.5c-.6-.2-1.3-.3-1.9-.3-4.2 0-6.1 3-6.1 7.8v10.2h-3.5v-15.8zM238.6 743.8c1.4 1.7 2.9 2.8 5.4 2.8 2.2 0 4.6-.9 4.6-3.2 0-2.2-2.2-2.8-4.5-3.3-4-.9-7.4-1.7-7.4-6.1 0-4.1 3.9-6.2 7.8-6.2 3 0 5.7 1.1 7.1 3.8l-2.9 1.9c-.9-1.5-2.4-2.5-4.4-2.5-1.9 0-4.1.9-4.1 2.9 0 1.7 2.5 2.5 5.3 3 3.7.7 6.8 2.1 6.8 6.3 0 4.7-4.2 6.6-8.4 6.6-3.5 0-6.1-.9-8.1-3.9l2.8-2.1z"/><path class="st3" d="M23.9 552.7h3c6.6 0 13.3-1 13.3-9.2 0-5.2-4-9-9.7-9-4.6 0-8.6 2.8-10.2 7.5L8 538.8c3-10.1 11.8-14.6 21.9-14.6 11.8 0 21.9 6.2 21.9 18.2 0 7.3-4.4 13.6-11.7 15.4v.2c8.7 1.3 13.3 8.2 13.3 16.6 0 13-10.9 20.1-23 20.1-11.2 0-20.4-4.6-23.4-16l12.3-3.3c1.4 5.6 4.9 8.9 11.1 8.9s11.5-4.3 11.5-10.7c0-8.9-8.1-10.4-15.1-10.4H24v-10.5z"/><path class="st2" d="M912.2 944.3V935c0-5.8 2.1-11.1 8.7-11.1 6.9 0 8.8 5.9 8.8 10.4v6.3h14.2v3.8h-31.7zm14-3.7v-6.3c0-3.8-1.7-6.3-5.2-6.3s-5.2 2.6-5.2 6.3v6.3h10.4zM940.1 899.8c3.2 2.5 4.3 5.4 4.3 9.3 0 6.6-4.9 10.6-11 10.6-6.5 0-11-4.6-11-10.7 0-5.9 4-9.9 10.9-9.9h1.1V916c3.6-.3 6.7-3 6.7-6.8 0-3-1.1-5-3.2-6.7l2.2-2.7zm-8.6 3c-3.5.1-5.9 2.5-5.9 6.3s2.4 6.4 5.9 6.8v-13.1zM925.9 882.2v6.2h10.5c2.7 0 4.8 0 4.8-3.1 0-1-.2-2.1-.7-3.1l3.2-.1c.5 1.2.8 2.8.8 4.1 0 5-2.7 5.8-7 5.8H926v4.6h-3V892h-6v-3.5h5.9v-6.2h3zM912.2 875.8c0-1.4 1.2-2.5 2.5-2.5 1.5 0 2.5 1.1 2.5 2.5s-1.1 2.5-2.5 2.5c-1.3.1-2.5-1-2.5-2.5zm10.8 1.8v-3.5h20.9v3.5H923zM925.9 855.7v6.2h10.5c2.7 0 4.8 0 4.8-3.1 0-1-.2-2.1-.7-3.1l3.2-.1c.5 1.2.8 2.8.8 4.1 0 5-2.7 5.8-7 5.8H926v4.6h-3v-4.6h-6V862h5.9v-6.2h3zM912.2 828.1v-3.5l31.6-13.5v4.4l-7.8 3.2v15.8l7.8 3.3v4.2l-31.6-13.9zm4.9-1.7 15.6 6.7v-12.9l-15.6 6.2zM925.9 796.1v6.2h10.5c2.7 0 4.8 0 4.8-3.1 0-1-.2-2.1-.7-3.1l3.2-.1c.5 1.2.8 2.8.8 4.1 0 5-2.7 5.8-7 5.8H926v4.6h-3v-4.6h-6v-3.5h5.9v-6.2h3zM927.9 791.8c-1.9 0-3.6.2-5 .2v-3.3c1.1 0 2.3-.1 3.4-.1v-.1c-2.1-.9-4-3.5-4-7 0-.4 0-.9.2-1.4l3.5.2c-.2.6-.3 1.3-.3 1.9 0 4.2 3 6.1 7.8 6.1h10.2v3.5h-15.8zM912.2 774c0-1.4 1.2-2.5 2.5-2.5 1.5 0 2.5 1.1 2.5 2.5s-1.1 2.5-2.5 2.5c-1.3.1-2.5-1.1-2.5-2.5zm10.8 1.8v-3.5h20.9v3.5H923zM938.9 747.1c1.9 0 3.6-.2 5-.2v3.3c-1.1 0-2.3.1-3.4.1v.1c2.1.9 4 3.5 4 7 0 5.5-3.5 8-8.5 8h-13v-3.5h12.6c3.5 0 5.7-1.5 5.7-4.8 0-4.5-3.3-6.5-8-6.5H923v-3.5h15.9zM927.9 740.5c-1.9 0-3.6.2-5 .2v-3.3c1.1 0 2.3-.1 3.4-.1v-.1c-2.1-.9-4-3.5-4-7 0-4.5 2.5-5.9 4-6.6-2.5-1.5-4-3.4-4-6.6 0-6 3.4-8 8.8-8h12.7v3.5h-12.5c-2.9 0-5.7 1-5.7 5.1 0 3 2.4 5.4 6.2 5.4h12.1v3.5H932c-4.6 0-6.4 1.2-6.4 4 0 4.5 3.3 6.5 8 6.5h10.2v3.5h-15.9zM415.4 442.9h3.5l13.5 31.6H428l-3.2-7.8H409l-3.3 7.8h-4.2l13.9-31.6zm1.7 4.8-6.7 15.6h12.9l-6.2-15.6zM450.9 458.8c-1.5-1.8-3.2-2.5-5.3-2.5-4.7 0-7.1 3.5-7.1 7.8s2.8 7.8 7.1 7.8c2.3 0 4-.8 5.3-2.6l2.6 2.5c-2 2.3-4.9 3.4-7.9 3.4-6.5 0-10.8-4.6-10.8-11 0-6.3 4.4-11 10.8-11 3.1 0 5.9 1 8 3.3l-2.7 2.3zM472.4 458.8c-1.5-1.8-3.2-2.5-5.3-2.5-4.7 0-7.1 3.5-7.1 7.8s2.8 7.8 7.1 7.8c2.3 0 4-.8 5.3-2.6l2.6 2.5c-2 2.3-4.9 3.4-7.9 3.4-6.5 0-10.8-4.6-10.8-11 0-6.3 4.4-11 10.8-11 3.1 0 5.9 1 8 3.3l-2.7 2.3zM497.3 469.6c0 1.9.2 3.6.2 5h-3.3c0-1.1-.1-2.3-.1-3.4h-.1c-.9 2.1-3.5 4-7 4-5.5 0-8-3.5-8-8.5v-12.9h3.5v12.6c0 3.5 1.5 5.7 4.8 5.7 4.5 0 6.5-3.3 6.5-8v-10.2h3.5v15.7zM522.6 470.7c-2.5 3.2-5.4 4.3-9.3 4.3-6.6 0-10.6-4.9-10.6-11 0-6.5 4.6-11 10.7-11 5.9 0 9.9 4 9.9 10.9v1.1h-16.9c.3 3.6 3 6.7 6.8 6.7 3 0 5-1.1 6.7-3.2l2.7 2.2zm-3-8.5c-.1-3.5-2.5-5.9-6.3-5.9s-6.4 2.4-6.8 5.9h13.1zM530.8 442.9c1.4 0 2.5 1.2 2.5 2.5 0 1.5-1.1 2.5-2.5 2.5s-2.5-1.1-2.5-2.5 1.1-2.5 2.5-2.5zm-1.7 10.7h3.5v20.9h-3.5v-20.9zM539.8 440.7h3.5v33.8h-3.5v-33.8z"/><path class="st3" d="M70.1 566.4h17.1v3H73.3v8.5h12.9v3H73.3v9.7h14.5v3H70.1v-27.2zm9.3-7.4h4.2l-5.5 5.5h-2.7l4-5.5zM102.1 578.2h-5.3v9c0 2.3 0 4.1 2.7 4.1.9 0 1.8-.2 2.6-.6l.1 2.7c-1 .5-2.4.7-3.5.7-4.3 0-4.9-2.3-4.9-6v-9.9h-3.9v-2.5h3.9v-5.1h3v5.1h5.3v2.5zM105.6 577.9c1.8-1.9 4.5-2.8 7.1-2.8 5.3 0 7.5 2.5 7.5 7.6v7.7c0 1 .1 2.2.3 3.1h-2.9c-.2-.8-.2-1.9-.2-2.7h-.1c-1.2 1.8-3.2 3.1-5.9 3.1-3.6 0-6.7-1.8-6.7-5.3 0-5.9 6.9-6.3 11.3-6.3h1.2v-.5c0-2.6-1.6-3.9-4.4-3.9-1.9 0-3.9.7-5.3 2l-1.9-2zm8.6 7c-3.8 0-6.3 1-6.3 3.5 0 2.3 1.7 3.1 3.9 3.1 3.5 0 5.2-2.5 5.3-5.4v-1.2h-2.9zM143.6 592.8c0 6.5-3.5 10-9.8 10-3.5 0-6.3-.9-8.8-3.4l2.1-2.5c1.9 2 3.9 3.1 6.7 3.1 5.4 0 6.8-3.5 6.8-7.2v-2.3h-.1c-1.4 2.3-3.9 3.3-6.3 3.3-5.6 0-9.5-3.9-9.5-9.2 0-5.9 3.8-9.4 9.5-9.4 2.4 0 5.1 1.1 6.3 3.5h.1v-3.1h3v17.2zm-9.4-1.8c4.1 0 6.4-3.1 6.4-6.5 0-3.9-2.6-6.6-6.4-6.6-3.8 0-6.3 2.9-6.3 6.7 0 3.6 2.8 6.4 6.3 6.4zM165.1 590.3c-2.1 2.7-4.6 3.7-8 3.7-5.6 0-9.1-4.2-9.1-9.4 0-5.6 3.9-9.4 9.2-9.4 5.1 0 8.5 3.5 8.5 9.4v1h-14.5c.2 3.1 2.6 5.8 5.9 5.8 2.6 0 4.3-.9 5.7-2.7l2.3 1.6zm-2.5-7.3c-.1-3-2.1-5.1-5.4-5.1-3.3 0-5.5 2-5.9 5.1h11.3zM699.6 358H721l5.3 7.1.9 5.3v12.3l-12.9 9.3h-14.7l-6.4-7.8-.3-12.4z"/><path class="st2" d="M704.6 382.7c-.6 2.4-.9 5-.9 7.9v1.4h4.9c-.8-3.9-2.2-6.9-4-9.3zM693.2 375.1v5.9c.9.3 1.9.8 2.8 1.4 2.5 1.6 4.4 3.7 5.7 6.5v-9.2c-1-.9-2.1-1.6-3-2.2-1.9-1.2-3.8-2-5.5-2.4zM703.7 378.7c1.3-3.3 3.1-6.2 5.6-8.7v-12h-5.6v20.7zM705.3 380.4c1.6 1.8 3 4.1 4.1 6.9V373c-1.8 2.1-3.2 4.6-4.1 7.4zM723 358h-11.7v10.2c3.5-2.8 7.3-4.3 10.5-5.1.5-.1 1.1.2 1.2.7.1.5-.2 1.1-.7 1.2-3.4.9-7.5 2.6-11 5.8v9.4c.9-1.9 2-3.5 3.4-4.9 2.8-2.8 6.2-4.2 9-4.9.5-.1 1.1.2 1.2.7.1.5-.2 1.1-.7 1.2-1.4.4-3 .9-4.5 1.8-5.6 3.1-8.4 8.4-8.4 16.4v1.4H723c2.3 0 4.2-1.9 4.2-4.2V362c0-2.1-1.9-4-4.2-4zM699.7 375.7c.7.4 1.3.8 2 1.4v-19h-4.4c-2.3 0-4.2 1.9-4.2 4.2V373c2 .5 4.3 1.3 6.6 2.7zM694.8 384c-.5-.3-1.1-.6-1.6-.8v4.7c0 2.3 1.9 4.2 4.2 4.2h3.4c-1.1-3.7-3.1-6.4-6-8.1z"/><path class="st3" d="M753 390.3c-9.1 0-15.9-6.3-15.9-15.5 0-9.4 6.8-15.3 15.9-15.3 9.2 0 16 5.9 16 15.3-.1 9.2-6.9 15.5-16 15.5zm0-24.4c-5 0-8.4 3.8-8.4 8.9 0 5.3 3.4 9.1 8.4 9.1s8.4-3.8 8.4-9.1c0-5.1-3.5-8.9-8.4-8.9zM792.3 367.9c-1.2-1.5-3.4-2.5-5.2-2.5s-4.1.6-4.1 2.9c0 1.9 1.7 2.6 4.5 3.4 4 1.3 9.1 3 9.1 8.8 0 6.7-5.4 9.8-11.2 9.8-4.2 0-8.4-1.5-11-4.2l4.6-4.7c1.4 1.8 4 3.1 6.3 3.1 2.2 0 4.1-.8 4.1-3.2 0-2.2-2.2-2.9-6.1-4.2-3.7-1.2-7.5-3.1-7.5-8.4 0-6.5 5.9-9.2 11.3-9.2 3.3 0 7 1.2 9.6 3.6l-4.4 4.8zM821.6 389.5l-6.3-11.6h-2.4v11.6H806v-29.3h11c5.6 0 11.2 2.2 11.2 8.8 0 3.9-2.3 6.7-6.1 7.9l7.6 12.5h-8.1zm-5-23.5h-3.8v6.8h3.3c2.3 0 5.1-.6 5.1-3.6.1-2.7-2.5-3.2-4.6-3.2zM847.9 389.5H837v-29.3h10.6c8.3 0 16.7 3.5 16.7 14.6.1 10.3-8.3 14.7-16.4 14.7zm-.5-23.2h-3.5v17.1h3.3c5 0 9.7-2.1 9.7-8.6.1-6.5-4.6-8.5-9.5-8.5z"/><path class="st0" d="M962.1 917.4v-84.9M156.3 832.5v44.9M962.1 950.1v-14.9M156.3 895.2v54.9"/><path class="st4" d="M372.9 545.3c21-17.2 47.9-27.5 77.1-27.5h90.6"/><path class="st3" d="m524 538.2-3.4-3.6 18.1-16.8-18.1-16.8 3.4-3.6 22 20.4z"/><path class="st5" d="M328 673.8v-34c0-28.4 9.7-54.5 25.9-75.2M328 694.1h0c0 24.3-19.7 44-44 44h-12.3M365.1 552.7l-2.4 2.4"/><path class="st4" d="M72.7 641.2v54.5"/><path class="st3" d="m52.2 679.1 3.7-3.4 16.8 18.1 16.7-18.1 3.7 3.4-20.4 22zM61.3 536.7c.2 1.8 1.6 3 3.4 3 1.6 0 2.6-.7 3.4-1.7l2.2 1.7c-1.5 1.8-3.3 2.5-5.3 2.5-3.8 0-6.8-2.6-6.8-6.5s3-6.5 6.8-6.5c3.5 0 5.8 2.4 5.8 6.8v.9h-9.5zm4.4-9.5h-2.4l-3.7-3.7h3.5l2.6 3.7zm2 7.1c0-1.8-1.2-3-3.2-3-1.8 0-3 1.2-3.2 3h6.4zM73.5 529.4h3v1.9h.1c.5-1.2 1.7-2.3 3.8-2.3 1.9 0 3.2.8 3.9 2.3.9-1.6 2.2-2.3 4.1-2.3 3.3 0 4.5 2.4 4.5 5.3v7.4h-3.1v-7.1c0-1.6-.5-2.9-2.3-2.9-1.9 0-2.7 1.6-2.7 3.2v6.8h-3.1v-7.4c0-1.5-.6-2.5-2.1-2.5-2.1 0-2.9 1.5-2.9 3.2v6.8h-3.1v-12.4zM98.8 536.7c.2 1.8 1.6 3 3.4 3 1.6 0 2.6-.7 3.4-1.7l2.2 1.7c-1.5 1.8-3.3 2.5-5.3 2.5-3.8 0-6.8-2.6-6.8-6.5s3-6.5 6.8-6.5c3.5 0 5.8 2.4 5.8 6.8v.9h-9.5zm6.4-2.4c0-1.8-1.2-3-3.2-3-1.8 0-3 1.2-3.2 3h6.4z"/></svg>