<svg version="1.1" id="Calque_1" xmlns="http://www.w3.org/2000/svg" x="0" y="0" viewBox="0 0 964.6 952.6" style="enable-background:new 0 0 964.6 952.6" xml:space="preserve"><style>.st0{fill:none;stroke:#786abf;stroke-width:5px;stroke-linecap:round;stroke-linejoin:round;stroke-miterlimit:10}.st2{fill:#786abf}.st3{fill:#fff}.st4{fill:none;stroke:#fff;stroke-width:5px;stroke-linecap:round;stroke-linejoin:round}.st5{fill:none;stroke:#fff;stroke-width:5px;stroke-linecap:round;stroke-linejoin:round;stroke-miterlimit:10}</style><path class="st0" d="M97.2 639.3h168M157.5 830.6H3.8V639.3h46.1M193.3 639.3V.6h770v830"/><path style="fill:none;stroke:#786abf;stroke-width:5px;stroke-miterlimit:10" d="M616.4 559.9v79.4h346.9V97.8H616.4v386.1"/><circle class="st2" cx="475.3" cy="137.3" r="11.5"/><circle class="st2" cx="475.3" cy="264.8" r="11.5"/><circle class="st2" cx="475.3" cy="392.3" r="11.5"/><circle class="st2" cx="475.3" cy="559.8" r="11.5"/><path class="st0" d="M386.2 639.3h230.2"/><path class="st2" d="M879.7 603.4c-2 1.3-2.9 3.5-2.9 5.8 0 3.3 1.6 6.7 5.3 6.7 2.9 0 4.2-1.6 5.8-6.7 1.6-4.9 3.2-9.5 9.4-9.5 6.3 0 9.3 5.4 9.3 11.1 0 3.7-1.2 7.6-4.4 9.7l-2.6-3.2c2.3-1.3 3.5-4 3.5-6.7 0-3.2-1.9-6.9-5.5-6.9-3.9 0-4.6 2.6-6.4 8.3-1.5 4.5-3.4 7.9-8.7 7.9-6.1 0-9.1-5.2-9.1-10.8 0-3.5 1-6.5 3.7-8.8l2.6 3.1zM887.5 594.5c-2.2-2.1-3.2-5.3-3.2-8.3 0-6.2 3-8.8 8.8-8.8h9c1.2 0 2.5-.1 3.6-.3v3.4c-.9.2-2.2.2-3.1.2v.1c2.1 1.4 3.7 3.7 3.7 6.9 0 4.2-2.1 7.8-6.2 7.8-6.9 0-7.3-8-7.3-13.2V581h-.6c-3 0-4.6 1.9-4.6 5.2 0 2.2.8 4.6 2.3 6.2l-2.4 2.1zm8.2-10.1c0 4.4 1.2 7.3 4 7.3 2.6 0 3.6-2 3.6-4.6 0-4-2.9-6.1-6.3-6.2h-1.3v3.5zM872 570.7v-3.5h33.8v3.5H872zM872 560v-3.5h33.8v3.5H872zM902 530.9c3.2 2.5 4.3 5.4 4.3 9.3 0 6.6-4.9 10.6-11 10.6-6.5 0-11-4.6-11-10.7 0-5.9 4-9.9 11-9.9h1.1V547c3.6-.3 6.7-3 6.7-6.8 0-3-1.1-5-3.2-6.7l2.1-2.6zm-8.6 3c-3.5.1-5.9 2.5-5.9 6.3s2.4 6.4 5.9 6.8v-13.1zM945.7 601.7c2.4 1.4 4.2 4.4 4.2 8.1 0 5.9-4.7 10.5-11 10.5s-11-4.4-11-11c0-3 1.3-5.6 3.6-7.5v-.1h-15.9v-3.5h33.8v3.5h-3.7zm-14.5 7.4c0 4.5 3.4 7.4 7.8 7.4s7.8-2.9 7.8-7.4-3.4-7.4-7.8-7.4-7.8 2.9-7.8 7.4zM945.6 573c3.2 2.5 4.3 5.4 4.3 9.3 0 6.6-4.9 10.6-11 10.6-6.5 0-11-4.6-11-10.7 0-5.9 4-9.9 10.9-9.9h1.1v16.9c3.6-.3 6.7-3 6.7-6.8 0-3-1.1-5-3.2-6.7l2.2-2.7zm-8.5 3c-3.5.1-5.9 2.5-5.9 6.3s2.4 6.4 5.9 6.8V576zM933.7 539.6c-1.8 1.5-2.5 3.2-2.5 5.3 0 4.7 3.5 7.1 7.8 7.1s7.8-2.8 7.8-7.1c0-2.3-.8-4-2.6-5.3l2.5-2.6c2.3 2 3.4 4.9 3.4 7.9 0 6.5-4.6 10.8-11 10.8-6.3 0-11-4.4-11-10.8 0-3.1 1-5.9 3.3-8l2.3 2.7zM928 522.9c0-6.4 4.5-11.2 11-11.2s11 4.7 11 11.2c0 6.4-4.5 11.2-11 11.2s-11-4.7-11-11.2zm18.7 0c0-4.5-3.4-7.4-7.8-7.4s-7.8 2.9-7.8 7.4 3.4 7.4 7.8 7.4 7.8-2.8 7.8-7.4zM933.5 506.4c-1.9 0-3.6.2-5 .2v-3.3c1.1 0 2.3-.1 3.4-.1v-.1c-2.1-.9-4-3.5-4-7 0-5.5 3.5-8 8.5-8h12.9v3.5h-12.6c-3.5 0-5.7 1.5-5.7 4.8 0 4.5 3.3 6.5 8 6.5h10.2v3.5h-15.7zM931.5 479.7v4.6h-2.9v-4.6h-4.7c-5.1 0-8.7-1.8-8.7-7.4 0-.9.2-2 .5-2.7l3.1.5c-.3.8-.4 1.6-.4 2.4 0 3.6 2.6 3.8 6.3 3.8h3.9v-5.1h2.9v5.1h18v3.5h-18zM917.1 456.8v-4.9l6.4 6.4v3.2l-6.4-4.7zm28.5-8c3.2 2.5 4.3 5.4 4.3 9.3 0 6.6-4.9 10.6-11 10.6-6.5 0-11-4.6-11-10.7 0-5.9 4-9.9 10.9-9.9h1.1V465c3.6-.3 6.7-3 6.7-6.8 0-3-1.1-5-3.2-6.7l2.2-2.7zm-8.5 3c-3.5.1-5.9 2.5-5.9 6.3s2.4 6.4 5.9 6.8v-13.1zM933.5 442.6c-1.9 0-3.6.2-5 .2v-3.3c1.1 0 2.3-.1 3.4-.1v-.1c-2.1-.9-4-3.5-4-7 0-.4 0-.9.2-1.4l3.5.2c-.2.6-.3 1.3-.3 1.9 0 4.2 3 6.1 7.8 6.1h10.2v3.5h-15.8zM945.6 409c3.2 2.5 4.3 5.4 4.3 9.3 0 6.6-4.9 10.6-11 10.6-6.5 0-11-4.6-11-10.7 0-5.9 4-9.9 10.9-9.9h1.1v16.9c3.6-.3 6.7-3 6.7-6.8 0-3-1.1-5-3.2-6.7l2.2-2.7zm-8.5 3c-3.5.1-5.9 2.5-5.9 6.3s2.4 6.4 5.9 6.8V412zM933.5 402.8c-1.9 0-3.6.2-5 .2v-3.3c1.1 0 2.3-.1 3.4-.1v-.1c-2.1-.9-4-3.5-4-7 0-5.5 3.5-8 8.5-8h12.9v3.5h-12.6c-3.5 0-5.7 1.5-5.7 4.8 0 4.5 3.3 6.5 8 6.5h10.2v3.5h-15.7zM933.7 363.1c-1.8 1.5-2.5 3.2-2.5 5.3 0 4.7 3.5 7.1 7.8 7.1s7.8-2.8 7.8-7.1c0-2.3-.8-4-2.6-5.3l2.5-2.6c2.3 2 3.4 4.9 3.4 7.9 0 6.5-4.6 10.8-11 10.8-6.3 0-11-4.4-11-10.8 0-3.1 1-5.9 3.3-8l2.3 2.7zM945.6 337.7c3.2 2.5 4.3 5.4 4.3 9.3 0 6.6-4.9 10.6-11 10.6-6.5 0-11-4.6-11-10.7 0-5.9 4-9.9 10.9-9.9h1.1v16.9c3.6-.3 6.7-3 6.7-6.8 0-3-1.1-5-3.2-6.7l2.2-2.7zm-8.5 3c-3.5.1-5.9 2.5-5.9 6.3s2.4 6.4 5.9 6.8v-13.1zM238.3 593.2c2 3.6 3 7.7 3 11.8 0 9.8-6.7 16.9-16.6 16.9-10 0-16.6-7.6-16.6-17 0-4.2 1.1-8.2 4.2-11.2l2.9 2.8c-2.3 2.1-3.6 5.4-3.6 8.6 0 7.2 5.5 12.7 13.1 12.7s13.1-5.3 13.1-13.1c0-2.5-.7-5.5-1.8-7.9h-9.7v7.3h-3.5v-11h15.5zM224.5 586c-1.9 0-3.6.2-5 .2v-3.3c1.1 0 2.3-.1 3.4-.1v-.1c-2.1-.9-4-3.5-4-7 0-.4 0-.9.2-1.4l3.5.2c-.2.6-.3 1.3-.3 1.9 0 4.2 3 6.1 7.8 6.1h10.2v3.5h-15.8zM222.2 570.5c-2.2-2.1-3.2-5.3-3.2-8.3 0-6.2 2.9-8.8 8.8-8.8h9c1.2 0 2.5-.1 3.6-.3v3.4c-.9.2-2.2.2-3.1.2v.1c2.1 1.4 3.7 3.7 3.7 6.9 0 4.2-2.1 7.8-6.2 7.8-6.9 0-7.3-8-7.3-13.2V557h-.6c-3 0-4.6 1.9-4.6 5.2 0 2.2.8 4.6 2.3 6.2l-2.4 2.1zm8.2-10.1c0 4.4 1.2 7.3 4 7.3 2.6 0 3.6-2 3.6-4.6 0-4-2.9-6.1-6.3-6.2h-1.3v3.5zM224.5 547.1c-1.9 0-3.6.2-5 .2V544c1.1 0 2.3-.1 3.4-.1v-.1c-2.1-.9-4-3.5-4-7 0-5.5 3.5-8 8.5-8h12.9v3.5h-12.6c-3.5 0-5.7 1.5-5.7 4.8 0 4.5 3.3 6.5 8 6.5h10.2v3.5h-15.7zM236.7 504.8c2.4 1.4 4.2 4.4 4.2 8.1 0 5.9-4.7 10.5-11 10.5s-11-4.4-11-11c0-3 1.3-5.6 3.6-7.5v-.1h-15.9v-3.5h33.8v3.5h-3.7zm-14.5 7.5c0 4.5 3.4 7.4 7.8 7.4s7.8-2.9 7.8-7.4-3.4-7.4-7.8-7.4-7.8 2.8-7.8 7.4zM208.8 471.6v-3.5l31.6-13.5v4.4l-7.8 3.2V478l7.8 3.3v4.2l-31.6-13.9zm4.8-1.7 15.6 6.7v-12.9l-15.6 6.2zM222.5 439.6v6.2H233c2.7 0 4.8 0 4.8-3.1 0-1-.2-2.1-.7-3.1l3.2-.1c.5 1.2.8 2.8.8 4.1 0 5-2.7 5.8-7 5.8h-11.5v4.6h-2.9v-4.6h-5.9v-3.5h5.9v-6.2h2.8zM224.5 435.3c-1.9 0-3.6.2-5 .2v-3.3c1.1 0 2.3-.1 3.4-.1v-.1c-2.1-.9-4-3.5-4-7 0-.4 0-.9.2-1.4l3.5.2c-.2.6-.3 1.3-.3 1.9 0 4.2 3 6.1 7.8 6.1h10.2v3.5h-15.8zM208.8 417.5c0-1.4 1.2-2.5 2.5-2.5 1.5 0 2.5 1.1 2.5 2.5s-1.1 2.5-2.5 2.5c-1.4.1-2.5-1.1-2.5-2.5zm10.7 1.8v-3.5h20.9v3.5h-20.9zM235.5 390.6c1.9 0 3.6-.2 5-.2v3.3c-1.1 0-2.3.1-3.4.1v.1c2.1.9 4 3.5 4 7 0 5.5-3.5 8-8.5 8h-12.9v-3.5h12.6c3.5 0 5.7-1.5 5.7-4.8 0-4.5-3.3-6.5-8-6.5h-10.2v-3.5h15.7zM224.5 384c-1.9 0-3.6.2-5 .2v-3.3c1.1 0 2.3-.1 3.4-.1v-.1c-2.1-.9-4-3.5-4-7 0-4.5 2.5-5.9 4-6.6-2.5-1.5-4-3.4-4-6.6 0-6 3.4-8 8.8-8h12.7v3.5h-12.5c-2.9 0-5.7 1-5.7 5.1 0 3 2.4 5.4 6.2 5.4h12.1v3.5h-11.8c-4.6 0-6.4 1.2-6.4 4 0 4.5 3.3 6.5 8 6.5h10.2v3.5h-16z"/><path class="st3" d="M304.8 252.6h19v2.7h-16v11.3h14.9v2.7h-14.9v15h-3v-31.7zM338.5 263c6.3 0 10.9 4.6 10.9 10.9s-4.5 10.9-10.9 10.9c-6.3 0-10.9-4.6-10.9-10.9s4.6-10.9 10.9-10.9zm0 19.4c5.1 0 8.2-3.8 8.2-8.4 0-4.6-3.1-8.4-8.2-8.4-5 0-8.2 3.8-8.2 8.4.1 4.6 3.2 8.4 8.2 8.4zM355.4 269.4c0-1.5-.2-4.7-.2-5.8h2.7c0 1.5.1 3.2.2 3.6 1.3-2.4 3.5-4.2 6.6-4.2.5 0 1 .1 1.6.2l-.3 2.6c-.4-.1-.8-.2-1-.2-4.6 0-6.7 3.2-6.7 7.2v11.3h-2.7v-14.7zM387.7 278.4c0 1.5.2 4.7.2 5.8h-2.7c0-1.5-.1-3.2-.2-3.6-1.1 2.3-3.7 4.2-7.1 4.2-6.4 0-7.9-4.4-7.9-8.9v-12.3h2.7v12.2c0 3.4.9 6.6 5.2 6.6 4 0 7.2-2.8 7.2-8.4v-10.3h2.7v14.7zM395.1 269.4c0-1.5-.2-4.7-.2-5.8h2.7c0 1.5.1 3.2.2 3.6h.1c1.1-2.3 3.7-4.2 7.1-4.2 2.7 0 5.2 1.3 6.2 4.5 1.3-3.1 4.2-4.5 7-4.5 6.4 0 7.9 4.4 7.9 8.9v12.3h-2.7V272c0-3.4-.9-6.6-5.2-6.6-5 0-6.3 4.2-6.3 7.2v11.6h-2.7v-12.4c0-3.8-1.4-6.3-4.3-6.3-4 0-7.2 2.8-7.2 8.4v10.3H395v-14.8zM304.4 296.2h9.8c16.4 0 17.1 13.5 17.1 15.8s-.7 15.8-17.1 15.8h-9.8v-31.6zm2.9 29h6.1c8.4 0 14.9-4.1 14.9-13.1s-6.5-13.1-14.9-13.1h-6.1v26.2zM337.9 296.2h3v31.6h-3v-31.6zM375.6 325.8c-3.7 2.1-7.7 2.9-11.8 2.9-9.7 0-16.4-7-16.4-16.6s6.7-16.6 16.4-16.6c4.7 0 8.5 1.4 11.4 4.4L373 302c-1.9-2.3-5.8-3.9-9.3-3.9-8.3 0-13.4 6.1-13.4 13.9 0 7.9 5.1 13.9 13.4 13.9 3.4 0 6.4-.4 8.8-1.9v-10.6H365v-2.7h10.5v15.1zM384.3 296.2h3v31.6h-3v-31.6zM402.9 298.9h-10.8v-2.7h24.6v2.7h-10.8v29h-3v-29z"/><path class="st2" d="M44.1 715.7h3.5l13.5 31.6h-4.4l-3.2-7.8H37.7l-3.3 7.8h-4.2l13.9-31.6zm1.7 4.8-6.7 15.6H52l-6.2-15.6zM65.1 741.8c1.4 1.7 2.9 2.8 5.4 2.8 2.2 0 4.6-.9 4.6-3.2 0-2.2-2.2-2.8-4.5-3.3-4-.9-7.4-1.7-7.4-6.1 0-4.1 3.9-6.2 7.8-6.2 3 0 5.7 1.1 7.1 3.8l-2.9 1.9c-.9-1.5-2.4-2.5-4.4-2.5-1.9 0-4.1.9-4.1 2.9 0 1.7 2.5 2.5 5.3 3 3.7.7 6.8 2.1 6.8 6.3 0 4.7-4.2 6.6-8.4 6.6-3.5 0-6.1-.9-8.1-3.9l2.8-2.1zM98.6 731.7c-1.5-1.8-3.2-2.5-5.3-2.5-4.7 0-7.1 3.5-7.1 7.8s2.8 7.8 7.1 7.8c2.3 0 4-.8 5.3-2.6l2.6 2.5c-2 2.3-4.9 3.4-7.9 3.4-6.5 0-10.8-4.6-10.8-11 0-6.3 4.4-11 10.8-11 3.1 0 5.9 1 8 3.3l-2.7 2.3zM124 743.5c-2.5 3.2-5.4 4.3-9.3 4.3-6.6 0-10.6-4.9-10.6-11 0-6.5 4.6-11 10.7-11 5.9 0 9.9 4 9.9 10.9v1.1h-16.9c.3 3.6 3 6.7 6.8 6.7 3 0 5-1.1 6.7-3.2l2.7 2.2zm-3-8.5c-.1-3.5-2.5-5.9-6.3-5.9s-6.4 2.4-6.8 5.9H121zM130.1 731.4c0-1.9-.2-3.6-.2-5h3.3c0 1.1.1 2.3.1 3.4h.1c.9-2.1 3.5-4 7-4 5.5 0 8 3.5 8 8.5v12.9h-3.5v-12.6c0-3.5-1.5-5.7-4.8-5.7-4.5 0-6.5 3.3-6.5 8v10.2h-3.5v-15.7zM155.4 741.8c1.4 1.7 2.9 2.8 5.4 2.8 2.2 0 4.6-.9 4.6-3.2 0-2.2-2.2-2.8-4.5-3.3-4-.9-7.4-1.7-7.4-6.1 0-4.1 3.9-6.2 7.8-6.2 3 0 5.7 1.1 7.1 3.8l-2.9 1.9c-.9-1.5-2.4-2.5-4.4-2.5-1.9 0-4.1.9-4.1 2.9 0 1.7 2.5 2.5 5.3 3 3.7.7 6.8 2.1 6.8 6.3 0 4.7-4.2 6.6-8.4 6.6-3.5 0-6.1-.9-8.1-3.9l2.8-2.1zM192.7 743.5c-2.5 3.2-5.4 4.3-9.3 4.3-6.6 0-10.6-4.9-10.6-11 0-6.5 4.6-11 10.7-11 5.9 0 9.9 4 9.9 10.9v1.1h-16.9c.3 3.6 3 6.7 6.8 6.7 3 0 5-1.1 6.7-3.2l2.7 2.2zm-3-8.5c-.1-3.5-2.5-5.9-6.3-5.9s-6.4 2.4-6.8 5.9h13.1zM217.1 742.4c0 1.9.2 3.6.2 5H214c0-1.1-.1-2.3-.1-3.4h-.1c-.9 2.1-3.5 4-7 4-5.5 0-8-3.5-8-8.5v-12.9h3.5V739c0 3.5 1.5 5.7 4.8 5.7 4.5 0 6.5-3.3 6.5-8v-10.2h3.5v15.9zM223.7 731.4c0-1.9-.2-3.6-.2-5h3.3c0 1.1.1 2.3.1 3.4h.1c.9-2.1 3.5-4 7-4 .4 0 .9 0 1.4.2l-.2 3.5c-.6-.2-1.3-.3-1.9-.3-4.2 0-6.1 3-6.1 7.8v10.2h-3.5v-15.8zM239.9 741.8c1.4 1.7 2.9 2.8 5.4 2.8 2.2 0 4.6-.9 4.6-3.2 0-2.2-2.2-2.8-4.5-3.3-4-.9-7.4-1.7-7.4-6.1 0-4.1 3.9-6.2 7.8-6.2 3 0 5.7 1.1 7.1 3.8l-2.9 1.9c-.9-1.5-2.4-2.5-4.4-2.5-1.9 0-4.1.9-4.1 2.9 0 1.7 2.5 2.5 5.3 3 3.7.7 6.8 2.1 6.8 6.3 0 4.7-4.2 6.6-8.4 6.6-3.5 0-6.1-.9-8.1-3.9l2.8-2.1z"/><path class="st3" d="M35.2 550.8h3c6.6 0 13.3-1 13.3-9.2 0-5.2-4-9-9.7-9-4.6 0-8.6 2.8-10.2 7.5l-12.2-3.3c3-10.1 11.8-14.6 21.9-14.6 11.8 0 21.9 6.2 21.9 18.2 0 7.3-4.4 13.6-11.7 15.4v.2c8.7 1.3 13.3 8.2 13.3 16.6 0 13-10.9 20.1-23 20.1-11.2 0-20.4-4.6-23.4-16l12.3-3.3c1.4 5.6 4.9 8.9 11.1 8.9s11.5-4.3 11.5-10.7c0-8.9-8.1-10.4-15.1-10.4h-2.8v-10.4z"/><path class="st2" d="M913.5 932.4V923c0-5.8 2.1-11.1 8.7-11.1 6.9 0 8.8 5.9 8.8 10.4v6.3h14.2v3.8h-31.7zm13.9-3.8v-6.3c0-3.8-1.7-6.3-5.2-6.3s-5.2 2.6-5.2 6.3v6.3h10.4zM941.3 887.8c3.2 2.5 4.3 5.4 4.3 9.3 0 6.6-4.9 10.6-11 10.6-6.5 0-11-4.6-11-10.7 0-5.9 4-9.9 11-9.9h1.1V904c3.6-.3 6.7-3 6.7-6.8 0-3-1.1-5-3.2-6.7l2.1-2.7zm-8.5 3c-3.5.1-5.9 2.5-5.9 6.3s2.4 6.4 5.9 6.8v-13.1zM927.2 870.2v6.2h10.5c2.7 0 4.8 0 4.8-3.1 0-1-.2-2.1-.7-3.1l3.2-.1c.5 1.2.8 2.8.8 4.1 0 5-2.7 5.8-7 5.8h-11.5v4.6h-3V880h-5.9v-3.5h5.9v-6.2h2.9zM913.5 863.9c0-1.4 1.2-2.5 2.5-2.5 1.5 0 2.5 1.1 2.5 2.5s-1.1 2.5-2.5 2.5-2.5-1.1-2.5-2.5zm10.7 1.7v-3.5h20.9v3.5h-20.9zM927.2 843.8v6.2h10.5c2.7 0 4.8 0 4.8-3.1 0-1-.2-2.1-.7-3.1l3.2-.1c.5 1.2.8 2.8.8 4.1 0 5-2.7 5.8-7 5.8h-11.5v4.6h-3v-4.6h-5.9v-3.5h5.9v-6.2h2.9zM913.5 816.2v-3.5l31.6-13.5v4.4l-7.8 3.2v15.8l7.8 3.3v4.2l-31.6-13.9zm4.8-1.7 15.6 6.7v-12.9l-15.6 6.2zM927.2 784.2v6.2h10.5c2.7 0 4.8 0 4.8-3.1 0-1-.2-2.1-.7-3.1l3.2-.1c.5 1.2.8 2.8.8 4.1 0 5-2.7 5.8-7 5.8h-11.5v4.6h-3V794h-5.9v-3.5h5.9v-6.2h2.9zM929.2 779.9c-1.9 0-3.6.2-5 .2v-3.3c1.1 0 2.3-.1 3.4-.1v-.1c-2.1-.9-4-3.5-4-7 0-.4 0-.9.2-1.4l3.5.2c-.2.6-.3 1.3-.3 1.9 0 4.2 3 6.1 7.8 6.1H945v3.5h-15.8zM913.5 762.1c0-1.4 1.2-2.5 2.5-2.5 1.5 0 2.5 1.1 2.5 2.5s-1.1 2.5-2.5 2.5-2.5-1.1-2.5-2.5zm10.7 1.7v-3.5h20.9v3.5h-20.9zM940.2 735.2c1.9 0 3.6-.2 5-.2v3.3c-1.1 0-2.3.1-3.4.1v.1c2.1.9 4 3.5 4 7 0 5.5-3.5 8-8.5 8h-12.9V750H937c3.5 0 5.7-1.5 5.7-4.8 0-4.5-3.3-6.5-8-6.5h-10.2v-3.5h15.7zM929.2 728.6c-1.9 0-3.6.2-5 .2v-3.3c1.1 0 2.3-.1 3.4-.1v-.1c-2.1-.9-4-3.5-4-7 0-4.5 2.5-5.9 4-6.6-2.5-1.5-4-3.4-4-6.6 0-6 3.4-8 8.8-8h12.7v3.5h-12.5c-2.9 0-5.7 1-5.7 5.1 0 3 2.4 5.4 6.2 5.4h12.1v3.5h-11.8c-4.6 0-6.4 1.2-6.4 4 0 4.5 3.3 6.5 8 6.5h10.2v3.5h-16zM416.7 440.9h3.5l13.5 31.6h-4.4l-3.2-7.8h-15.8l-3.3 7.8h-4.2l13.9-31.6zm1.7 4.9-6.7 15.6h12.9l-6.2-15.6zM452.1 456.9c-1.5-1.8-3.2-2.5-5.3-2.5-4.7 0-7.1 3.5-7.1 7.8s2.8 7.8 7.1 7.8c2.3 0 4-.8 5.3-2.6l2.6 2.5c-2 2.3-4.9 3.4-7.9 3.4-6.5 0-10.8-4.6-10.8-11 0-6.3 4.4-11 10.8-11 3.1 0 5.9 1 8 3.3l-2.7 2.3zM473.7 456.9c-1.5-1.8-3.2-2.5-5.3-2.5-4.7 0-7.1 3.5-7.1 7.8s2.8 7.8 7.1 7.8c2.3 0 4-.8 5.3-2.6l2.6 2.5c-2 2.3-4.9 3.4-7.9 3.4-6.5 0-10.8-4.6-10.8-11 0-6.3 4.4-11 10.8-11 3.1 0 5.9 1 8 3.3l-2.7 2.3zM498.6 467.6c0 1.9.2 3.6.2 5h-3.3c0-1.1-.1-2.3-.1-3.4h-.1c-.9 2.1-3.5 4-7 4-5.5 0-8-3.5-8-8.5v-12.9h3.5v12.6c0 3.5 1.5 5.7 4.8 5.7 4.5 0 6.5-3.3 6.5-8v-10.2h3.5v15.7zM523.9 468.8c-2.5 3.2-5.4 4.3-9.3 4.3-6.6 0-10.6-4.9-10.6-11 0-6.5 4.6-11 10.7-11 5.9 0 9.9 4 9.9 11v1.1h-16.9c.3 3.6 3 6.7 6.8 6.7 3 0 5-1.1 6.7-3.2l2.7 2.1zm-3-8.5c-.1-3.5-2.5-5.9-6.3-5.9s-6.4 2.4-6.8 5.9h13.1zM532.1 440.9c1.4 0 2.5 1.2 2.5 2.5 0 1.5-1.1 2.5-2.5 2.5s-2.5-1.1-2.5-2.5c-.1-1.3 1.1-2.5 2.5-2.5zm-1.8 10.8h3.5v20.9h-3.5v-20.9zM541.1 438.8h3.5v33.8h-3.5v-33.8z"/><path class="st3" d="M81.3 564.5h17.1v3H84.6v8.5h12.9v3H84.6v9.7h14.5v3H81.3v-27.2zm9.4-7.5h4.2l-5.5 5.5h-2.7l4-5.5zM113.4 576.2h-5.3v9c0 2.3 0 4.1 2.7 4.1.9 0 1.8-.2 2.6-.6l.1 2.7c-1 .5-2.4.7-3.5.7-4.3 0-4.9-2.3-4.9-6v-9.9h-3.9v-2.5h3.9v-5.1h3v5.1h5.3v2.5zM116.8 576c1.8-1.9 4.5-2.8 7.1-2.8 5.3 0 7.5 2.5 7.5 7.6v7.7c0 1 .1 2.2.3 3.1h-2.9c-.2-.8-.2-1.9-.2-2.7h-.1c-1.2 1.8-3.2 3.1-5.9 3.1-3.6 0-6.7-1.8-6.7-5.3 0-5.9 6.9-6.3 11.3-6.3h1.2v-.5c0-2.6-1.6-3.9-4.4-3.9-1.9 0-3.9.7-5.3 2l-1.9-2zm8.7 7c-3.8 0-6.3 1-6.3 3.5 0 2.3 1.7 3.1 3.9 3.1 3.5 0 5.2-2.5 5.3-5.4V583h-2.9zM154.8 590.8c0 6.5-3.5 10-9.8 10-3.5 0-6.3-.9-8.8-3.4l2.1-2.5c1.9 2 3.9 3.1 6.7 3.1 5.4 0 6.8-3.5 6.8-7.2v-2.3h-.1c-1.4 2.3-3.9 3.3-6.3 3.3-5.6 0-9.5-3.9-9.5-9.2 0-5.9 3.8-9.4 9.5-9.4 2.4 0 5.1 1.1 6.3 3.5h.1v-3.1h3v17.2zm-9.3-1.7c4.1 0 6.4-3.1 6.4-6.5 0-3.9-2.6-6.6-6.4-6.6-3.8 0-6.3 2.9-6.3 6.7-.1 3.6 2.8 6.4 6.3 6.4zM176.4 588.4c-2.1 2.7-4.6 3.7-8 3.7-5.6 0-9.1-4.2-9.1-9.4 0-5.6 3.9-9.4 9.2-9.4 5.1 0 8.5 3.5 8.5 9.4v1h-14.5c.2 3.1 2.6 5.8 5.9 5.8 2.6 0 4.3-.9 5.7-2.7l2.3 1.6zm-2.6-7.3c-.1-3-2.1-5.1-5.4-5.1-3.3 0-5.5 2-5.9 5.1h11.3zM700.8 356.1h21.4l5.4 7.1.8 5.2v12.4l-12.9 9.3h-14.7l-6.4-7.8-.3-12.4z"/><path class="st2" d="M705.9 380.8c-.6 2.4-.9 5-.9 7.9v1.4h4.9c-.8-3.9-2.3-6.9-4-9.3zM694.4 373.1v5.9c.9.3 1.9.8 2.8 1.4 2.5 1.6 4.4 3.7 5.7 6.5v-9.2c-1-.9-2.1-1.6-3-2.2-1.9-1.2-3.8-1.9-5.5-2.4zM705 376.8c1.3-3.3 3.1-6.2 5.6-8.7v-12H705v20.7zM706.5 378.4c1.6 1.8 3 4.1 4.1 6.9V371c-1.8 2.2-3.1 4.7-4.1 7.4zM724.3 356.1h-11.7v10.2c3.5-2.8 7.3-4.3 10.5-5.1.5-.1 1.1.2 1.2.7.1.5-.2 1.1-.7 1.2-3.4.9-7.5 2.6-11 5.8v9.4c.9-1.9 2-3.5 3.4-4.9 2.8-2.8 6.2-4.2 9-4.9.5-.1 1.1.2 1.2.7.1.5-.2 1.1-.7 1.2-1.4.4-3 .9-4.5 1.8-5.6 3.1-8.4 8.4-8.4 16.4v1.4h11.7c2.3 0 4.2-1.9 4.2-4.2v-25.7c-.1-2.1-1.9-4-4.2-4zM701 373.8c.7.4 1.3.8 2 1.4v-19h-4.4c-2.3 0-4.2 1.9-4.2 4.2v10.8c2 .4 4.3 1.2 6.6 2.6zM696 382c-.5-.3-1.1-.6-1.6-.8v4.7c0 2.3 1.9 4.2 4.2 4.2h3.4c-1-3.6-3-6.3-6-8.1z"/><path class="st3" d="M754.2 388.4c-9.1 0-15.9-6.3-15.9-15.5 0-9.4 6.8-15.3 15.9-15.3 9.2 0 16 5.9 16 15.3 0 9.2-6.8 15.5-16 15.5zm0-24.5c-5 0-8.4 3.8-8.4 8.9 0 5.3 3.4 9.1 8.4 9.1s8.4-3.8 8.4-9.1c0-5.1-3.4-8.9-8.4-8.9zM793.5 365.9c-1.2-1.5-3.4-2.5-5.2-2.5-1.8 0-4.1.6-4.1 2.9 0 1.9 1.7 2.6 4.5 3.4 4 1.3 9.1 3 9.1 8.8 0 6.7-5.4 9.8-11.2 9.8-4.2 0-8.4-1.5-11-4.2l4.6-4.7c1.4 1.8 4 3.1 6.3 3.1 2.2 0 4.1-.8 4.1-3.2 0-2.2-2.2-2.9-6.1-4.2-3.7-1.2-7.5-3.1-7.5-8.4 0-6.5 5.9-9.2 11.3-9.2 3.3 0 7 1.2 9.6 3.6l-4.4 4.8zM822.8 387.6l-6.3-11.6h-2.4v11.6h-6.9v-29.3h11.2c5.6 0 11.2 2.2 11.2 8.8 0 3.9-2.3 6.7-6.1 7.9l7.6 12.5h-8.3zm-5-23.6H814v6.8h3.3c2.3 0 5.1-.6 5.1-3.6.1-2.6-2.5-3.2-4.6-3.2zM849.2 387.6h-10.9v-29.3h10.6c8.3 0 16.7 3.5 16.7 14.6 0 10.3-8.3 14.7-16.4 14.7zm-.5-23.2h-3.5v17.1h3.3c5 0 9.7-2.1 9.7-8.6 0-6.6-4.6-8.5-9.5-8.5z"/><path class="st0" d="M963.3 915.5v-84.9M157.5 830.6v44.9M3.8 830.6V952l959.5-3.8v-15M157.5 893.2v55"/><path class="st4" d="M374.1 543.3c21-17.2 47.9-27.5 77.1-27.5h90.6"/><path class="st3" d="m525.3 536.3-3.5-3.7 18.1-16.7-18.1-16.8 3.5-3.7 21.9 20.5z"/><path class="st5" d="M329.2 671.9v-34c0-28.4 9.7-54.5 25.9-75.2M329.2 692.2h0c0 24.3-19.7 44-44 44h-12.3M366.3 550.8l-2.4 2.4"/><path class="st4" d="M73.9 639.3v54.5"/><path class="st3" d="m53.5 677.2 3.6-3.4 16.8 18.1 16.8-18.1 3.7 3.4-20.5 22zM72.5 534.7c.2 1.8 1.6 3 3.4 3 1.6 0 2.6-.7 3.4-1.7l2.2 1.7c-1.5 1.8-3.3 2.5-5.3 2.5-3.8 0-6.8-2.6-6.8-6.5s3-6.5 6.8-6.5c3.5 0 5.8 2.4 5.8 6.8v.9h-9.5zm4.4-9.5h-2.4l-3.7-3.7h3.5l2.6 3.7zm2 7.2c0-1.8-1.2-3-3.2-3-1.8 0-3 1.2-3.2 3h6.4zM84.8 527.4h3v1.9h.1c.5-1.2 1.7-2.3 3.8-2.3 1.9 0 3.2.8 3.9 2.3.9-1.6 2.2-2.3 4.1-2.3 3.3 0 4.5 2.4 4.5 5.3v7.4H101v-7.1c0-1.6-.5-2.9-2.3-2.9-1.9 0-2.7 1.6-2.7 3.2v6.8h-3.1v-7.4c0-1.5-.6-2.5-2.1-2.5-2.1 0-2.9 1.5-2.9 3.2v6.8h-3.1v-12.4zM110 534.7c.2 1.8 1.6 3 3.4 3 1.6 0 2.6-.7 3.4-1.7l2.2 1.7c-1.5 1.8-3.3 2.5-5.3 2.5-3.8 0-6.8-2.6-6.8-6.5s3-6.5 6.8-6.5c3.5 0 5.8 2.4 5.8 6.8v.9H110zm6.4-2.3c0-1.8-1.2-3-3.2-3-1.8 0-3 1.2-3.2 3h6.4z"/><path class="st0" d="M193.3.6H1.3l2.5 638.7"/></svg>